
<svg width="213px" height="29px" viewBox="0 0 213 29" version="1.1" xmlns="http://www.w3.org/2000/svg" xmlns:xlink="http://www.w3.org/1999/xlink">
    <defs>
        <polygon id="path-nhhgd54rlt-1" points="0 28.8506 212.056 28.8506 212.056 0.0006 0 0.0006"></polygon>
    </defs>
    <g id="Symbols" stroke="none" stroke-width="1" fill="none" fill-rule="evenodd">
        <g id="header" transform="translate(0.000000, -6.000000)">
            <g id="logo" transform="translate(0.000000, 6.000000)">
                <path d="M41.8886,6.957 C40.8986,6.957 40.1066,7.169 39.5146,7.597 C38.9186,8.023 38.6226,8.551 38.6226,9.185 C38.6226,10.017 39.0586,10.669 39.9306,11.145 C40.8006,11.621 41.9786,11.997 43.4626,12.275 C45.9986,12.749 47.8546,13.457 49.0326,14.397 C50.2126,15.339 50.8026,16.701 50.8026,18.483 C50.8026,19.691 50.4626,20.769 49.7906,21.719 C49.1166,22.671 48.1526,23.417 46.8966,23.963 C45.6366,24.507 44.1766,24.781 42.5126,24.781 C40.4526,24.781 38.5526,24.299 36.8106,23.339 C35.0686,22.377 33.7906,20.749 32.9786,18.453 L36.5426,16.225 C36.9586,17.829 37.6906,19.047 38.7426,19.879 C39.7906,20.709 41.0786,21.125 42.6026,21.125 C43.8486,21.125 44.8506,20.899 45.6006,20.443 C46.3526,19.987 46.7306,19.383 46.7306,18.631 C46.7306,17.859 46.3846,17.241 45.6906,16.775 C44.9986,16.309 43.7606,15.939 41.9786,15.661 C37.0666,14.909 34.6126,12.739 34.6126,9.157 C34.6126,8.107 34.9266,7.141 35.5486,6.259 C36.1726,5.379 37.0526,4.681 38.1906,4.165 C39.3306,3.651 40.6426,3.393 42.1286,3.393 C43.9686,3.393 45.5846,3.833 46.9686,4.715 C48.3546,5.597 49.3346,6.859 49.9106,8.501 L46.4326,10.521 C45.7806,8.145 44.2646,6.957 41.8886,6.957" id="Fill-1" fill="#000000"></path>
                <path d="M65.9492,16.166 L62.3532,6.868 L58.7912,16.166 L65.9492,16.166 Z M59.5332,3.69 L65.2072,3.69 L73.5532,24.482 L69.1272,24.482 L67.3172,19.79 L57.3952,19.79 L55.6132,24.482 L51.1572,24.482 L59.5332,3.69 Z" id="Fill-3" fill="#000000"></path>
                <polygon id="Fill-5" fill="#000000" points="79.7324 12.4824 85.2264 3.6904 89.6824 3.6904 81.7504 16.2264 81.7504 24.4824 77.7424 24.4824 77.7424 16.2264 69.7784 3.6904 74.5304 3.6904"></polygon>
                <mask id="mask-nhhgd54rlt-2" fill="white">
                    <use xlink:href="#path-nhhgd54rlt-1"></use>
                </mask>
                <g id="Clip-8"></g>
                <polygon id="Fill-7" fill="#000000" mask="url(#mask-nhhgd54rlt-2)" points="97.224 24.4826 101.236 24.4826 101.236 3.6906 97.224 3.6906"></polygon>
                <polygon id="Fill-9" fill="#000000" mask="url(#mask-nhhgd54rlt-2)" points="121.8204 7.4034 114.4844 7.4034 114.4844 24.4834 110.4744 24.4834 110.4744 7.4034 103.1084 7.4034 103.1084 3.6914 121.8204 3.6914"></polygon>
                <polygon id="Fill-10" fill="#000000" mask="url(#mask-nhhgd54rlt-2)" points="128.086 3.6904 132.244 3.6904 135.81 21.8084 139.524 3.6904 146.354 3.6904 150.066 21.8084 153.632 3.6904 157.79 3.6904 153.424 24.4824 146.74 24.4824 142.938 6.3644 139.164 24.4824 132.484 24.4824"></polygon>
                <polygon id="Fill-11" fill="#000000" mask="url(#mask-nhhgd54rlt-2)" points="174.8672 3.6904 174.8672 7.4024 163.2552 7.4024 163.2552 11.9184 173.9792 11.9184 173.9792 15.6304 163.2552 15.6304 163.2552 20.7704 175.1652 20.7704 175.1652 24.4824 159.2452 24.4824 159.2452 3.6904"></polygon>
                <polygon id="Fill-12" fill="#000000" mask="url(#mask-nhhgd54rlt-2)" points="181.6094 3.6904 181.6094 20.7704 193.6994 20.7704 193.6994 24.4824 177.5994 24.4824 177.5994 3.6904"></polygon>
                <polygon id="Fill-13" fill="#000000" mask="url(#mask-nhhgd54rlt-2)" points="199.9668 3.6904 199.9668 20.7704 212.0548 20.7704 212.0548 24.4824 195.9568 24.4824 195.9568 3.6904"></polygon>
                <path d="M7.9492,18.6894 L18.7252,18.6894 L18.7252,16.0894 L7.9492,16.0894 C5.2192,16.0894 2.9972,13.8674 2.9972,11.1374 C2.9972,8.4054 5.2192,6.1854 7.9492,6.1854 L21.6012,6.1854 L19.9912,8.0974 L21.9852,9.7694 L26.0872,4.8854 L21.9852,-0.0006 L19.9912,1.6714 L21.6012,3.5854 L7.9492,3.5854 C3.7852,3.5854 0.3972,6.9734 0.3972,11.1374 C0.3972,15.3014 3.7852,18.6894 7.9492,18.6894" id="Fill-14" fill="#000000" mask="url(#mask-nhhgd54rlt-2)"></path>
                <path d="M18.207,10.1612 L7.433,10.1612 L7.433,12.7612 L18.207,12.7612 C20.939,12.7612 23.161,14.9832 23.161,17.7132 C23.161,20.4452 20.939,22.6652 18.207,22.6652 L4.487,22.6652 L6.093,20.7532 L4.101,19.0812 L-0.001,23.9652 L4.101,28.8512 L6.093,27.1792 L4.487,25.2652 L18.207,25.2652 C22.373,25.2652 25.761,21.8772 25.761,17.7132 C25.761,13.5492 22.373,10.1612 18.207,10.1612" id="Fill-15" fill="#000000" mask="url(#mask-nhhgd54rlt-2)"></path>
            </g>
        </g>
    </g>
</svg>