<?xml version="1.0" encoding="UTF-8"?>
<svg width="374px" height="433px" viewBox="0 0 374 433" version="1.1" xmlns="http://www.w3.org/2000/svg" xmlns:xlink="http://www.w3.org/1999/xlink">
    <title>illu</title>
    <defs>
        <polygon id="path-1" points="0.07172 0.0193237839 87.2834651 0.0193237839 87.2834651 40.1458333 0.07172 40.1458333"></polygon>
        <polygon id="path-3" points="0 0.00663920455 19.4856588 0.00663920455 19.4856588 18.9735317 0 18.9735317"></polygon>
    </defs>
    <g id="PAGINE-DRAFT" stroke="none" stroke-width="1" fill="none" fill-rule="evenodd">
        <g id="5.0_SIW_contattaci" transform="translate(-897.000000, -177.000000)">
            <g id="illu" transform="translate(897.000000, 177.000000)">
                <path d="M158.710599,388.596491 C157.726596,390.016463 161.531247,397.45721 167.301515,405.679054 C167.038796,399.197748 165.433821,389.680094 159.816408,388.594233 C159.520251,388.535538 159.295746,388.51522 159.128561,388.51522 C158.846735,388.51522 158.727317,388.569401 158.710599,388.596491 M167.535574,410.467228 C164.227701,406.047027 153.647284,391.310015 156.475098,387.217153 C156.988594,386.476691 158.080073,385.695593 160.351399,386.120004 C170.972418,388.181109 170.005134,408.918578 169.957367,409.801263 C169.931095,410.33855 169.544181,410.801339 168.999636,410.950335 C168.875442,410.98194 168.751247,411 168.624664,411 C168.201925,411 167.793516,410.808112 167.535574,410.467228" id="Fill-1" fill="#1B1C1C"></path>
                <path d="M149.95652,402.399107 C149.815876,402.45742 149.389809,402.634443 149.317419,403.867356 C149.249165,405.096104 149.633867,406.089515 150.492207,406.916317 C152.990699,409.319664 158.963915,409.763263 162.926755,409.663297 C158.177965,405.693817 152.031013,401.52857 149.95652,402.399107 M148.895488,408.601159 C147.540759,407.295354 146.905795,405.658412 147.011278,403.738234 C147.137443,401.507744 148.202612,400.610134 149.075429,400.247757 C153.667029,398.354653 164.494517,407.870158 166.618649,409.802832 C166.957849,410.106895 167.084014,410.590064 166.943371,411.027415 C166.800659,411.462683 166.418025,411.775077 165.960934,411.820894 C165.783061,411.839638 164.163591,412 161.94225,412 C157.90702,412 151.886233,411.471014 148.895488,408.601159" id="Fill-3" fill="#1B1C1C"></path>
                <g id="Group-7" transform="translate(132.000000, 392.000000)">
                    <mask id="mask-2" fill="white">
                        <use xlink:href="#path-1"></use>
                    </mask>
                    <g id="Clip-6"></g>
                    <path d="M71.87972,0.0193237839 C71.87972,0.0193237839 74.60332,0.0193237839 76.20712,1.28849557 C77.80872,2.55549038 87.74832,29.3626625 87.26652,31.5809919 C86.78472,33.8014983 73.64412,35.0706701 73.64412,35.0706701 L68.99332,32.0577477 L0.07172,40.1473572 L44.28292,7.48849769 L71.87972,0.0193237839 Z" id="Fill-5" fill="#1B1C1C" mask="url(#mask-2)"></path>
                </g>
                <path d="M205,391.161753 L187.711316,358 L155,361.475047 L177.339435,402.696371 C177.339435,402.696371 185.413102,410.333597 193.66185,407.278706 C201.906166,404.226004 205,391.161753 205,391.161753" id="Fill-8" fill="#FFFFFF"></path>
                <path d="M186.870683,359.661516 L157.358177,362.795457 L178.410387,401.665843 C179.478872,402.602348 186.310166,408.279778 193.034174,405.79036 C199.622432,403.348525 202.698704,393.440599 203.313959,391.215047 L186.870683,359.661516 Z M176.468285,403.391781 C176.369757,403.296617 176.286555,403.188475 176.223059,403.069519 L154.154913,362.328286 C153.949098,361.951953 153.949098,361.499922 154.150534,361.123589 C154.351969,360.742931 154.730756,360.48988 155.162091,360.444461 L187.477179,357.007723 C188.042075,356.949327 188.530337,357.226169 188.773373,357.699829 L205.853799,390.473196 C205.996118,390.745713 206.035529,391.05716 205.967654,391.353468 C205.834093,391.907152 202.652725,404.97281 193.951582,408.195427 C192.421109,408.762089 190.905963,409 189.445555,409 C182.489458,409 176.759491,403.666461 176.468285,403.391781 L176.468285,403.391781 Z" id="Fill-10" fill="#1B1C1C"></path>
                <path d="M215,63 C215,70.7320191 217.685921,77 221.001031,77 C224.316142,77 227,70.7320191 227,63 C227,55.2679809 224.316142,49 221.001031,49 C217.685921,49 215,55.2679809 215,63" id="Fill-12" fill="#FFFFFF"></path>
                <path d="M368.893391,337 C368.893391,337 369.133261,352.745685 368.893391,352.745685 C368.651361,352.745685 365.502807,355.08297 365.502807,355.08297 C365.502807,355.08297 368.020354,394.591049 364.005245,398.70343 C359.992298,402.813599 330,400.153167 330,400.153167 C330,400.153167 347.746001,386.897487 349.498559,385.30167 C351.253278,383.708067 349.206826,368.387343 345.978316,365.483444 C342.749806,362.583971 338.594234,359.252898 338.594234,359.252898 L368.893391,337 Z" id="Fill-14" fill="#1B1C1C"></path>
                <path d="M293.571501,58.4407141 C293.571501,58.4407141 301.339928,60.5689307 298.290619,70.3085999 C297.336755,78.1596966 284.292608,84.6344879 284.292608,84.6344879 C284.292608,84.6344879 285.113324,94.8270626 285.591348,100.912707 C286.067188,107.00055 287.62131,118 287.62131,118 L261.605048,117.386599 L259.69732,99.1252688 C259.69732,99.1252688 236.798033,98.3249889 232.663894,80.545146 C228.527573,62.7653031 231.391348,41.7821423 231.391348,41.7821423 C231.391348,41.7821423 221.689,37.4553548 222.007682,31.848999 C222.326364,26.2426431 228.848438,29.1271682 228.848438,29.1271682 C228.848438,29.1271682 227.892391,20.3174945 231.707847,21.7575585 C235.525486,23.2020196 235.19589,25.1763362 235.19589,25.1763362 C235.19589,25.1763362 234.242026,15.975317 238.854188,17.0943896 C238.854188,22.2104641 248.303337,25.1763362 248.303337,25.1763362 C248.303337,25.1763362 267.708032,13.2073162 281.485585,23.6791095 C296.055477,31.2180091 293.571501,58.4407141 293.571501,58.4407141" id="Fill-16" fill="#FFFFFF"></path>
                <path d="M164.234216,212.839277 C174.960444,211.527009 174.341453,211.986413 183.449462,208.458457 C226.66829,192.957432 247.280686,193.511354 247.280686,193.511354 L300.962671,247 C300.962671,247 321.155038,220.61177 313.103735,174.491167 C305.284554,136.940968 297.721811,127.689151 279.03934,128.007876 C260.354658,128.328799 250.333638,134.074641 250.333638,134.074641 C250.333638,134.074641 234.076284,129.893849 212.170639,131.375371 C175.88672,128.651921 174.993604,138.332368 123.586411,156.359013 C123.586411,156.359013 114.918328,214.413119 164.234216,212.839277" id="Fill-18" fill="#FFFFFF"></path>
                <path d="M288.561905,119.49918 C288.561905,119.49918 275.905559,115.840644 267.533767,116.005402 C259.159806,116.167904 253.710877,117.650728 251.735559,120.855615 C249.760241,124.060502 247,135 247,135 L292.796588,133.04547 C292.796588,133.04547 294.407632,121.058742 288.561905,119.49918" id="Fill-20" fill="#FFFFFF"></path>
                <path d="M196.454273,224 C196.454273,224 108.29179,241.588152 98.9554832,267.711892 C89.6213858,293.837832 151.750022,365 151.750022,365 L202.611464,359.550863 L164.303002,292.876478 L264,287.583534 L196.454273,224 Z" id="Fill-22" fill="#473FF4"></path>
                <path d="M147,293.762091 C147,293.762091 172.395698,306.700806 171.995315,305.970182 C171.594932,305.241947 164.335424,292 164.335424,292 L147,293.762091 Z" id="Fill-24" fill="#191919"></path>
                <path d="M224,288.113646 C224,288.113646 235.022705,330.605517 250.062948,342.650615 C265.103191,354.695714 324.778063,348.504475 323.992312,347.671082 C323.202122,346.837689 285.801282,307.328605 285.801282,307.328605 L263.387413,286 L224,288.113646 Z" id="Fill-26" fill="#191919"></path>
                <path d="M325.777598,367.856967 C325.403264,368.55294 325.4361,368.850545 325.462369,368.888039 C326.489052,370.263582 334.435448,369.122373 343.655894,366.399407 C337.60525,364.548165 328.384804,362.973437 325.777598,367.856967 M323.555672,370.526036 C323.014967,369.80663 322.59904,368.534194 323.649803,366.556411 C328.584011,357.32129 347.41675,364.927786 348.213579,365.255855 C348.701746,365.455039 349.014785,365.961201 348.999462,366.521261 C348.981949,367.076633 348.636073,367.561706 348.13696,367.72574 C344.463668,368.939592 334.588684,372 328.39356,372 C326.125663,372 324.350312,371.587571 323.555672,370.526036" id="Fill-28" fill="#1B1C1C"></path>
                <path d="M334.42392,381.98431 C334.436931,382.151725 334.473794,382.656231 335.670782,383.144901 C336.865602,383.629046 337.975852,383.567962 339.068754,382.957125 C342.26289,381.174385 344.626507,375.136144 345.851685,370.957564 C340.36549,374.559243 334.252612,379.552272 334.42392,381.98431 M334.790389,385.500018 C332.624101,384.615435 332.081987,383.203722 332.00826,382.172086 C331.626611,376.762782 344.585307,368.726877 347.187454,367.16811 C347.599461,366.916988 348.115554,366.950924 348.505876,367.245031 C348.891861,367.539138 349.074011,368.045906 348.972094,368.534576 C348.859334,369.077543 346.133585,381.873454 340.215867,385.18555 C339.244399,385.728517 338.242572,386 337.223397,386 C336.423237,386 335.610066,385.832585 334.790389,385.500018" id="Fill-30" fill="#1B1C1C"></path>
                <path d="M122.232677,173 C122.367462,173 122.504456,172.979347 122.637031,172.938042 L137.169467,168.243681 C137.812456,168.037153 138.154942,167.378332 137.931774,166.775273 C137.713025,166.176344 137.008167,165.856227 136.365178,166.062754 L121.830533,170.75505 C121.187544,170.963643 120.845058,171.620399 121.068226,172.221393 C121.242783,172.69847 121.724473,173 122.232677,173" id="Fill-32" fill="#1B1C1C"></path>
                <path d="M252.762219,135 C253.342568,135 253.860894,134.593239 253.976078,134.010582 C254.108982,133.344374 253.674828,132.700153 253.003662,132.56823 C252.872973,132.541846 239.684444,129.978154 215.218993,130.000141 C190.846575,130.011134 183.335272,131.238013 183.029592,131.290782 C182.356211,131.402916 181.904337,132.036143 182.017305,132.706749 C182.132489,133.370758 182.765999,133.821493 183.446026,133.711558 C183.516908,133.700564 191.147825,132.469288 215.218993,132.456096 L215.420565,132.456096 C239.405345,132.456096 252.392302,134.953827 252.525207,134.975814 C252.604949,134.993404 252.682477,135 252.762219,135" id="Fill-34" fill="#1B1C1C"></path>
                <path d="M246.24026,134 C246.827786,134 247.351016,133.567186 247.457436,132.953088 C247.468521,132.882841 248.752208,125.654162 252.11108,120.498913 C255.190599,115.785543 275.499022,115.384453 285.928151,118.695143 C288.661807,119.563037 290.568493,121.060892 291.594999,123.150184 C293.466212,126.950339 291.918692,131.570801 291.900956,131.613856 C291.674814,132.273275 292.01181,132.996143 292.659196,133.227279 C293.302148,133.469746 294.007179,133.116243 294.23332,132.461357 C294.315352,132.232486 296.157743,126.807578 293.818727,122.033025 C292.477396,119.295644 290.071867,117.360443 286.662003,116.277274 C275.831584,112.837421 254.07541,112.928062 250.053632,119.096232 C246.397673,124.700158 245.071861,132.198495 245.018651,132.515742 C244.901146,133.202353 245.351213,133.859505 246.02077,133.979606 C246.09615,133.993202 246.167097,134 246.24026,134" id="Fill-36" fill="#1B1C1C"></path>
                <path d="M249.822805,37 C250.390866,37 250.88924,36.5723188 250.984269,35.9638651 C251.089857,35.2958888 250.652724,34.6609807 250.008639,34.5551626 C249.972739,34.5463445 245.996307,33.792391 241.278648,29.3171703 C236.326585,24.6148816 233.12939,20.4990013 233.095602,20.4571149 C232.688033,19.9280248 231.944696,19.8464567 231.437875,20.2741379 C230.931054,20.6996146 230.852919,21.477818 231.2626,22.0069082 C231.39564,22.1788624 234.607618,26.3079701 239.694833,31.1381222 C244.969994,36.1424331 249.440577,36.9537046 249.630635,36.9823637 C249.693988,36.9955909 249.75734,37 249.822805,37" id="Fill-38" fill="#1B1C1C"></path>
                <path d="M240.746525,42 C241.305602,42 241.813037,41.6395172 241.95898,41.0889617 C242.134113,40.437908 241.732206,39.7715611 241.063111,39.601151 C241.018205,39.5880426 236.599479,38.4301282 233.042943,35.1267952 C229.3472,31.688008 225.352833,25.6231585 225.312418,25.5641704 C224.935209,24.9939522 224.156095,24.8322811 223.579056,25.1883944 C222.995281,25.5510619 222.824639,26.3047986 223.197357,26.8728321 C223.367999,27.1328166 227.393799,33.2457305 231.309581,36.8876989 C235.355589,40.6476434 240.225618,41.9104255 240.429939,41.9628594 C240.535468,41.9890763 240.643242,42 240.746525,42" id="Fill-40" fill="#1B1C1C"></path>
                <path d="M263.263692,101 C267.519902,101 271.252916,98.7319701 271.409654,98.6342294 C271.990247,98.2721443 272.173476,97.5146534 271.820264,96.9282089 C271.464844,96.3417643 270.701022,96.1551683 270.122636,96.5128107 C270.093938,96.5328031 266.806855,98.5187176 263.263692,98.5187176 C257.31427,98.5187176 245.024685,96.3462071 236.693286,88.209289 C227.551706,79.2904448 231.185379,43.7305799 231.220701,43.3729376 C231.295758,42.6909737 230.803468,42.0823153 230.125742,42.0067884 C229.467884,41.9357042 228.843139,42.4310721 228.770289,43.1085933 C228.613551,44.623575 224.982086,80.2367531 234.973583,89.9886151 C245.931999,100.691228 261.521913,101 263.263692,101" id="Fill-42" fill="#1B1C1C"></path>
                <path d="M260.817983,118 C260.860256,118 260.900415,117.997761 260.9448,117.993284 C261.591568,117.921646 262.062905,117.30601 261.993155,116.618737 L260.352987,100.121929 C260.287465,99.4324167 259.718902,98.9242371 259.055225,99.0093068 C258.406344,99.0809444 257.937121,99.6943418 258.00687,100.383854 L259.644925,116.880662 C259.708334,117.523162 260.221943,118 260.817983,118" id="Fill-44" fill="#1B1C1C"></path>
                <path d="M278.924456,69 C279.569106,69 280.10343,68.4774706 280.133716,67.8104118 C280.254858,64.753059 281.483587,56.7461298 285.637038,56.4170475 C290.852647,56.0079181 292.338803,58.2514592 292.399374,58.3470709 C292.671944,58.771765 293.188962,59.0007886 293.673532,58.8896121 C294.162427,58.7806591 294.54316,58.3870945 294.618874,57.8779062 C294.772465,56.8261769 298.24449,32.0760718 280.838937,20.8583662 C268.9194,13.1782959 260.417806,17.4052252 254.209263,20.4914839 C251.498704,21.8389427 249.151572,23.0018485 247.427458,22.621625 C241.826789,21.3564368 240.444469,15.237284 240.388224,14.9793546 C240.243286,14.3145194 239.58782,13.8698135 238.94966,14.0343547 C238.300683,14.1811076 237.885338,14.8392723 238.028113,15.5063311 C238.09301,15.8309664 239.77386,23.4354367 246.908276,25.045272 C249.454428,25.6256131 252.143354,24.2781544 255.262769,22.7261309 C261.280945,19.7354839 268.767972,16.0088487 279.553964,22.961825 C292.667618,31.41346 292.838515,48.9482124 292.442639,55.2185651 C291.049503,54.4003063 288.823513,53.6709887 285.453161,53.9422593 C278.312255,54.5048122 277.736829,67.1700354 277.715196,67.7081295 C277.691401,68.3952 278.208419,68.9710941 278.874701,68.9977765 C278.889844,69 278.90715,69 278.924456,69" id="Fill-46" fill="#1B1C1C"></path>
                <path d="M287.456217,117 C287.505422,117 287.556766,116.997775 287.60597,116.988877 C288.258463,116.904339 288.726975,116.285877 288.645681,115.602899 C288.613591,115.344836 285.556499,89.6119328 285.393911,85.0491088 C285.355403,83.9389922 285.605704,83.7409954 287.389898,82.8689199 C289.68967,81.7432305 293.540449,79.8655984 297.517449,72.8711964 C299.94558,68.5998058 300.595934,64.8334182 299.453536,61.6788183 C297.95601,57.5364593 293.925527,56.1237859 293.754382,56.0637195 C293.131839,55.8457006 292.453674,56.2060992 292.24402,56.8557065 C292.040785,57.5097631 292.383076,58.2105382 293.009898,58.4241077 C293.035569,58.4352311 296.146144,59.5564711 297.224362,62.5753654 C298.090788,64.989146 297.493917,68.0280624 295.459421,71.605352 C291.858942,77.9390233 288.555829,79.5541428 286.371581,80.6197658 C284.587387,81.4918414 282.90374,82.3149739 283.004288,85.1403208 C283.171155,89.8121542 286.146952,114.846507 286.273172,115.909906 C286.345909,116.539491 286.863625,117 287.456217,117" id="Fill-48" fill="#1B1C1C"></path>
                <path d="M272.763229,69 C272.832892,69 272.887777,68.9955721 272.919442,68.9933581 C273.567514,68.9380093 274.048818,68.3402423 273.996043,67.6605591 C273.94538,66.9830898 273.358526,66.4783088 272.725231,66.5314436 C272.729453,66.5270157 269.465873,66.5203739 262.387746,60.1065552 C255.195625,53.5886809 256.447439,40.4975833 256.457993,40.3669602 C256.529767,39.6894909 256.061129,39.0762262 255.413057,39.0053798 C254.773429,38.9433891 254.184464,39.4238167 254.114802,40.1012859 C254.055694,40.6924111 252.729997,54.6225964 260.844617,61.9773446 C268.119066,68.5682794 271.899837,69 272.763229,69" id="Fill-50" fill="#1B1C1C"></path>
                <path d="M239.144356,86 C240.547638,86 242.989625,85.8252565 244.360807,84.7352939 C245.991091,83.4421919 247.7108,81.0001514 247.786467,80.8953052 C248.176268,80.336126 248.018055,79.578176 247.428768,79.2046618 C246.846359,78.8333318 246.048414,78.9796795 245.654028,79.5432273 C245.637977,79.5650703 244.065017,81.7952343 242.723644,82.8611697 C241.964679,83.4618505 239.680905,83.6256726 238.367047,83.5361165 C237.672285,83.4967992 237.050897,83.9991868 237.002745,84.6741336 C236.956886,85.3447118 237.491142,85.925734 238.197369,85.9716042 C238.367047,85.9803414 238.706403,86 239.144356,86" id="Fill-52" fill="#1B1C1C"></path>
                <path d="M286,306.943493 L334.727947,358 C334.727947,358 357.90766,353.343474 367.074915,337.930438 C377.681383,320.09548 372.94655,310.79565 372.94655,310.79565 L324.596066,266 L286,306.943493 Z" id="Fill-54" fill="#FF4D00"></path>
                <path d="M183.867037,207.97727 C194.715201,206.959261 205.651329,200.575358 215.866153,197.724933 C223.266127,195.660454 230.855224,194.165185 238.47071,193.138419 C241.034862,192.790325 243.647393,192.700565 246.070802,192 L247.924644,193.753603 L303.359578,247.027223 L324.829399,266.325611 C324.829399,266.325611 327.230817,283.552952 314.014221,294.558396 C300.797625,305.563841 286.375922,307 286.375922,307 L182,208.769784 C182.677323,208.570561 183.299669,208.30347 183.867037,207.97727" id="Fill-56" fill="#34E0A1"></path>
                <path d="M20.4769728,8 L75.9093588,30.0091821 L204,152.717455 C203.894603,152.757294 203.793597,152.755081 203.6882,152.817054 C199.129767,155.318097 194.428609,157.533623 189.889938,160.07008 C185.588411,162.478164 181.98075,165.563522 177.931738,168.32131 C173.928836,171.045898 169.341859,172.825401 165.262105,175.454817 C161.410713,177.940367 157.40342,180.1404 153.80015,183 L33.0368162,67.9276563 L11,18.1568923 L20.4769728,8 Z" id="Fill-58" fill="#34E0A1"></path>
                <g id="Group-62">
                    <mask id="mask-4" fill="white">
                        <use xlink:href="#path-3"></use>
                    </mask>
                    <g id="Clip-61"></g>
                    <path d="M-0.000423529412,0.00574534091 L19.3633412,8.71644648 C19.3633412,8.71644648 20.2887529,11.4025067 17.0487529,15.065113 C13.8087529,18.7299539 10.2214588,18.9735317 10.2214588,18.9735317 L-0.000423529412,0.00574534091 Z" id="Fill-60" fill="#1B1C1C" mask="url(#mask-4)"></path>
                </g>
                <path d="M33.5684196,70 C33.6272307,70 33.6950897,69.9956162 33.7539008,69.9868486 C34.4460623,69.8882131 34.923337,69.2635213 34.8192866,68.5971834 L32.7292303,54.9657515 L43.1274865,54.9657515 C43.5052348,54.9657515 43.8648873,54.7991671 44.1046557,54.5186038 C44.344424,54.2336566 44.4416886,53.8610335 44.3647817,53.5015617 L42.0937682,42.4806839 L57.0838147,45.045208 C57.4502531,45.1043893 57.8280014,45.0123294 58.115271,44.777796 C58.4002787,44.5454545 58.5654022,44.2013261 58.5654022,43.8396624 L58.5654022,32.4483533 L77.7355612,32.4483533 C78.4345086,32.4483533 79,31.9003781 79,31.2252726 C79,30.5479752 78.4345086,30 77.7355612,30 L57.3009634,30 C56.6042779,30 56.0387865,30.5479752 56.0387865,31.2252726 L56.0387865,42.3798564 L40.7117072,39.7605348 C40.3000294,39.6947778 39.8793038,39.8197161 39.5875102,40.1090471 C39.2979786,40.398378 39.1735705,40.8126473 39.2527393,41.2049975 L41.5870879,52.5152063 L31.2612146,52.5152063 C30.8947762,52.5152063 30.5464335,52.6708313 30.3066651,52.942627 C30.0646348,53.2100389 29.9583224,53.5673188 30.0148716,53.9202148 L32.3198146,68.9544633 C32.4125552,69.5638117 32.9531649,70 33.5684196,70" id="Fill-63" fill="#1B1C1C"></path>
                <path d="M304.107837,245 C304.496345,245 304.87823,244.817475 305.116632,244.476614 C305.308679,244.206124 324.138045,216.888881 315.928618,175.042171 C307.902407,134.110288 298.593681,126.840057 280.766487,126.019792 C280.450825,126.006597 280.126333,126 279.788596,126 C261.725208,126 213.51276,146.590191 204.804454,150.920222 C194.809217,155.890193 150.446524,184.621459 148.56138,185.844159 C147.989656,186.213609 147.828514,186.972299 148.199362,187.539667 C148.572417,188.111433 149.336188,188.271968 149.905704,187.90032 C150.367057,187.601242 196.036547,158.023322 205.908168,153.117125 C216.510448,147.845878 264.83106,127.768078 280.649494,128.47399 C295.490036,129.155711 305.105595,132.66108 313.513691,175.512779 C321.520034,216.345703 303.284467,242.800898 303.099043,243.06479 C302.708328,243.618964 302.842981,244.386451 303.40146,244.775692 C303.613373,244.92743 303.862813,245 304.107837,245" id="Fill-65" fill="#1B1C1C"></path>
                <path d="M162.214544,214 C172.655481,214 183.831509,210.169371 196.589965,205.796197 C206.64575,202.350599 218.046267,198.447777 230.791518,195.910067 C269.590692,188.205055 293.927936,201.383645 294.170032,201.517093 C294.757665,201.843057 295.508162,201.639603 295.842694,201.046742 C296.175026,200.458255 295.963742,199.714444 295.369507,199.384104 C294.352704,198.817495 269.975845,185.627967 230.311727,193.516744 C217.401412,196.082894 205.919462,200.016344 195.788848,203.486006 C174.810135,210.674725 158.233166,216.349569 142.584965,205.312719 C119.623267,189.108567 126.333726,156.803084 126.404153,156.479307 C126.54721,155.820815 126.124643,155.168886 125.46218,155.028875 C124.793115,154.8823 124.141657,155.308898 124.003002,155.965202 C123.928172,156.30648 116.894185,190.180531 141.165403,207.303509 C148.014517,212.138284 154.936259,213.997812 162.214544,214" id="Fill-67" fill="#1B1C1C"></path>
                <path d="M214.520023,63.5 C214.520023,71.1815917 217.407783,76.5373007 220,76.5373007 C222.589961,76.5373007 225.477721,71.1815917 225.477721,63.5 C225.477721,55.820615 222.589961,50.464906 220,50.464906 C217.407783,50.464906 214.520023,55.820615 214.520023,63.5 M212,63.5 C212,54.6620871 215.43824,48 220,48 C224.559504,48 228,54.6620871 228,63.5 C228,72.3379129 224.559504,79 220,79 C215.43824,79 212,72.3379129 212,63.5" id="Fill-69" fill="#1B1C1C"></path>
                <path d="M236.520023,63.5 C236.520023,71.1815917 239.407783,76.5373007 242,76.5373007 C244.589961,76.5373007 247.477721,71.1815917 247.477721,63.5 C247.477721,55.820615 244.589961,50.464906 242,50.464906 C239.407783,50.464906 236.520023,55.820615 236.520023,63.5 M234,63.5 C234,54.6620871 237.43824,48 242,48 C246.559504,48 250,54.6620871 250,63.5 C250,72.3379129 246.559504,79 242,79 C237.43824,79 234,72.3379129 234,63.5" id="Fill-71" fill="#1B1C1C"></path>
                <path d="M227.231031,62 L235.768969,62 C236.449449,62 237,61.5523724 237,60.9991047 C237,60.4476276 236.449449,60 235.768969,60 L227.231031,60 C226.550551,60 226,60.4476276 226,60.9991047 C226,61.5523724 226.550551,62 227.231031,62" id="Fill-73" fill="#1B1C1C"></path>
                <path d="M292.508622,72 C292.98335,72 293.427776,71.6733351 293.579285,71.1515483 C293.625748,71.0024664 294.656008,67.4266919 293.310609,64.238969 C291.825823,60.7048498 288.18759,60.9964366 288.032041,61.0117833 C287.411865,61.0687852 286.953298,61.6629206 287.003801,62.3381741 C287.060364,63.0090429 287.565394,63.4825974 288.221932,63.451904 C288.339099,63.451904 290.444062,63.3115916 291.258169,65.2584265 C292.233886,67.5691967 291.43998,70.3776376 291.4319,70.4061386 C291.244029,71.0485064 291.571288,71.7391066 292.165202,71.9429981 C292.280349,71.9824609 292.393476,72 292.508622,72" id="Fill-75" fill="#1B1C1C"></path>
                <path d="M284.190853,74 C284.792465,74 285.309045,73.485224 285.370694,72.7988561 C285.381323,72.6868446 285.636424,70.4323165 287.883438,68.6806482 C290.326029,66.7836034 292.826017,66.6620591 292.851527,66.6620591 C293.506286,66.6358437 294.018614,66.0209724 293.999481,65.2893232 C293.978223,64.5695901 293.455266,64 292.815388,64 L292.7835,64 C292.651698,64.0071497 289.573481,64.1239276 286.531403,66.4976168 C283.32351,68.9904671 283.015263,72.4056244 283.004633,72.5486177 C282.947236,73.2826501 283.429802,73.9308866 284.080309,73.9952336 C284.118574,73.9976168 284.152587,74 284.190853,74" id="Fill-77" fill="#1B1C1C"></path>
            </g>
        </g>
    </g>
</svg>