<?xml version="1.0" encoding="UTF-8"?>
<svg width="299px" height="316px" viewBox="0 0 299 316" version="1.1" xmlns="http://www.w3.org/2000/svg" xmlns:xlink="http://www.w3.org/1999/xlink">
    <title>Group 206</title>
    <defs>
        <polygon id="path-1" points="0 0.146214234 43.4002859 0.146214234 43.4002859 37.5700678 0 37.5700678"></polygon>
    </defs>
    <g id="1.0-Risultati" stroke="none" stroke-width="1" fill="none" fill-rule="evenodd">
        <g id="SIW_result-tool-exploration-01" transform="translate(-150.000000, -908.000000)">
            <g id="Group" transform="translate(0.000000, 852.000000)">
                <g id="Group-206" transform="translate(299.721329, 214.102767) scale(-1, 1) translate(-299.721329, -214.102767) translate(150.442658, 56.539839)">
                    <path d="M215.372599,114.260471 C215.372599,114.260471 232.552258,110.893466 246.243226,118.663209 C259.936518,126.432952 274.402621,147.151101 274.402621,147.151101 L298.557342,108.69268 C298.557342,108.69268 277.374169,83.8304347 258.773233,78.0028363 C240.173459,72.1752379 223.25179,73.0816496 223.25179,73.0816496 L215.372599,114.260471 Z" id="Fill-7" fill="#FFFFFF"></path>
                    <path d="M223.51199,107.540908 C223.465505,107.540908 223.41902,107.536247 223.372535,107.526927 C223.016925,107.451199 222.789149,107.099352 222.864687,106.740516 L228.935616,78.1233028 C229.011154,77.7667964 229.366764,77.5477663 229.720049,77.6141744 C230.074497,77.6910679 230.303435,78.0429141 230.226735,78.4005856 L224.156968,107.017799 C224.090727,107.327703 223.816466,107.540908 223.51199,107.540908" id="Fill-9" fill="#1B1C1C"></path>
                    <path d="M228.757463,108.53866 C228.710978,108.53866 228.664493,108.533999 228.618008,108.524679 C228.262399,108.448951 228.034623,108.097104 228.110161,107.738268 L234.18109,79.1210548 C234.256628,78.7645484 234.618048,78.5443532 234.96436,78.6119263 C235.31997,78.6888199 235.548908,79.0406661 235.472208,79.3983376 L229.402441,108.015551 C229.3362,108.325455 229.061939,108.53866 228.757463,108.53866" id="Fill-11" fill="#1B1C1C"></path>
                    <path d="M233.918915,109.860763 C233.87243,109.860763 233.825945,109.854937 233.77946,109.845617 C233.42385,109.769888 233.196074,109.418042 233.271612,109.060371 L239.342541,80.4431577 C239.418079,80.0854862 239.780662,79.8664561 240.126974,79.9340292 C240.481422,80.0097577 240.71036,80.3616039 240.63366,80.7192754 L234.563893,109.337653 C234.497652,109.646393 234.223391,109.860763 233.918915,109.860763" id="Fill-13" fill="#1B1C1C"></path>
                    <path d="M239.989379,111.285274 C239.942894,111.285274 239.896409,111.279448 239.851086,111.270128 C239.494315,111.194399 239.266539,110.842553 239.342077,110.484882 L245.413006,81.8676688 C245.488544,81.5088323 245.851126,81.2921323 246.197438,81.3585403 C246.551886,81.4342688 246.781986,81.786115 246.704124,82.1437865 L240.634357,110.762165 C240.568116,111.070904 240.293855,111.285274 239.989379,111.285274" id="Fill-15" fill="#1B1C1C"></path>
                    <path d="M255.413653,118.051439 C255.32998,118.051439 255.243983,118.035129 255.162634,118.001342 C254.825618,117.862701 254.664083,117.475903 254.803538,117.136872 L265.897161,90.0750058 C266.037778,89.7383053 266.422441,89.5775279 266.761781,89.7150042 C267.097634,89.8548106 267.258007,90.2416085 267.120877,90.5806391 L256.024929,117.640175 C255.920338,117.895322 255.673968,118.051439 255.413653,118.051439" id="Fill-17" fill="#1B1C1C"></path>
                    <path d="M261.310496,122.069942 C261.226823,122.069942 261.140826,122.053632 261.058315,122.02101 C260.722461,121.881204 260.560926,121.494406 260.699219,121.15654 L271.794005,94.0946739 C271.935783,93.7568084 272.32277,93.597196 272.657462,93.7346723 C272.994477,93.8744788 273.15485,94.2601115 273.016558,94.5991421 L261.921772,121.659843 C261.816019,121.91499 261.569649,122.069942 261.310496,122.069942" id="Fill-19" fill="#1B1C1C"></path>
                    <path d="M267.238019,127.174974 C267.154346,127.174974 267.068349,127.158664 266.985838,127.126042 C266.649985,126.986236 266.48845,126.599438 266.626742,126.260407 L277.721528,99.199706 C277.863307,98.8618405 278.247969,98.7033932 278.584985,98.8397044 C278.922,98.9783458 279.082373,99.3651436 278.944081,99.7041743 L267.849295,126.763711 C267.743542,127.018857 267.497172,127.174974 267.238019,127.174974" id="Fill-21" fill="#1B1C1C"></path>
                    <g id="Group-109" transform="translate(0.000000, 27.421449)">
                        <mask id="mask-2" fill="white">
                            <use xlink:href="#path-1"></use>
                        </mask>
                        <g id="Clip-108"></g>
                        <polygon id="Fill-107" fill="#FFFFFF" mask="url(#mask-2)" points="-0.000348636812 17.7571653 13.046803 37.5700678 32.679704 26.260892 43.4002859 19.9591167 30.7412833 0.146214234"></polygon>
                    </g>
                    <path d="M5.03861542,47.4382361 C4.80967724,47.4382361 4.58654968,47.3182356 4.46568892,47.1061958 C4.28439778,46.7869711 4.39247519,46.3838626 4.70973469,46.2021142 L29.5094332,31.9570031 C29.8232064,31.7764198 30.2287872,31.8812746 30.4100783,32.2016644 C30.5913695,32.518559 30.4832921,32.9239977 30.1660326,33.104581 L5.36633402,47.349692 C5.26174298,47.4102748 5.1501792,47.4382361 5.03861542,47.4382361" id="Fill-110" fill="#1B1C1C"></path>
                    <path d="M6.86686686,49.9378587 C6.63792868,49.9378587 6.41480112,49.8190233 6.29394036,49.6058184 C6.11264922,49.2877588 6.22072663,48.8834852 6.53798613,48.7017368 L31.3376847,34.4577908 C31.6526199,34.2772075 32.0582008,34.3843924 32.2383298,34.7024521 C32.4196209,35.0205117 32.3115435,35.4247853 31.994284,35.6053687 L7.19458546,49.8504797 C7.08999442,49.9098975 6.97843064,49.9378587 6.86686686,49.9378587" id="Fill-112" fill="#1B1C1C"></path>
                    <path d="M8.8267868,52.3988016 C8.59784863,52.3988016 8.37472107,52.2799661 8.25386031,52.0667613 C8.07256916,51.7487016 8.18064658,51.344428 8.49790607,51.1626797 L33.2976046,36.9198987 C33.6125399,36.7393154 34.0169586,36.8441702 34.1982497,37.1633949 C34.3795409,37.4814546 34.2714634,37.8857282 33.9542039,38.0674765 L9.1545054,52.3114226 C9.04991436,52.3708403 8.93835058,52.3988016 8.8267868,52.3988016" id="Fill-114" fill="#1B1C1C"></path>
                    <path d="M10.2295851,54.5593936 C10.0018091,54.5593936 9.77751939,54.4393931 9.65665862,54.2273533 C9.47536748,53.9081286 9.58460702,53.50502 9.90070439,53.3232717 L34.7004029,39.0793256 C35.0165003,38.8975773 35.4197569,39.0047622 35.601048,39.3239869 C35.7835013,39.6408815 35.6742618,40.0463202 35.3581644,40.2269035 L10.5573037,54.4720146 C10.4527127,54.5314323 10.342311,54.5593936 10.2295851,54.5593936" id="Fill-116" fill="#1B1C1C"></path>
                    <path d="M32.9374628,49.4656625 C32.873546,49.4656625 32.8084672,49.4563421 32.7457125,49.4377012 L30.2041502,48.6617755 C29.8566755,48.5534255 29.6602768,48.1829384 29.7660299,47.8357524 C29.8717831,47.4862363 30.240176,47.2881772 30.5888128,47.3941971 L32.5283956,47.9872094 L34.8131288,41.5887347 C34.9363138,41.2438788 35.3174901,41.0691208 35.657992,41.1891213 C36.0019804,41.3114519 36.178623,41.6900944 36.0566001,42.0361153 L33.5591984,49.0276023 C33.4615801,49.2967297 33.2093995,49.4656625 32.9374628,49.4656625" id="Fill-118" fill="#1B1C1C"></path>
                    <path d="M36.1378325,91.7466248 C36.1378325,91.7466248 29.3731162,75.8191762 27.6508504,70.8979896 C25.9285845,65.977968 24.7571649,64.3002907 22.9477398,61.2793066 C21.140639,58.2571574 17.5520041,55.0753959 17.2080158,53.2625724 C16.8628653,51.4497489 29.1279083,47.5887611 30.3330296,49.7464404 C31.5381508,51.9052849 30.4968889,55.16627 30.4968889,55.16627 L32.6793553,53.6819917 C32.6793553,53.6819917 32.1540759,57.8843402 32.3272322,60.4742545 C32.4980642,63.0641688 44.8711846,86.6227188 44.8711846,86.6227188 L36.1378325,91.7466248 Z" id="Fill-120" fill="#FFFFFF"></path>
                    <path d="M36.1378325,92.4076762 C35.8728685,92.4076762 35.6241743,92.2468988 35.5230696,91.9859268 C35.4300998,91.7459257 26.2911668,68.0953365 24.3643674,64.9019244 C22.4271088,61.6945317 17.399766,55.2774162 17.3497947,55.2133382 C17.1243429,54.9244049 17.1731521,54.5096458 17.4590343,54.2836254 C17.7437543,54.0564399 18.1586321,54.1053722 18.3864082,54.3943055 C18.5944281,54.6611028 23.5148557,60.9384119 25.4939506,64.2168729 C27.4823426,67.5081495 36.3760677,90.5284447 36.7525954,91.5070897 C36.8862395,91.8484505 36.7154075,92.2305881 36.3760677,92.3622391 C36.2982054,92.3936956 36.2168569,92.4076762 36.1378325,92.4076762" id="Fill-122" fill="#1B1C1C"></path>
                    <path d="M23.1877181,57.9134666 C22.9796982,57.9134666 22.7751646,57.8156021 22.646169,57.6303585 L17.5920973,50.3615888 C17.3829152,50.0610049 17.456129,49.6485759 17.7559566,49.4400313 C18.0522979,49.2326518 18.4671757,49.3013899 18.6751957,49.6031388 L23.7304294,56.8730736 C23.9384494,57.1724924 23.8652357,57.5860865 23.565408,57.7946311 C23.45152,57.8750198 23.319038,57.9134666 23.1877181,57.9134666" id="Fill-124" fill="#1B1C1C"></path>
                    <path d="M24.7356656,55.7461172 C24.4788365,55.7461172 24.2336286,55.5946603 24.1290375,55.3418436 L21.0924109,48.1557927 C20.9494698,47.8190922 21.1075185,47.4311293 21.4422098,47.2889927 C21.7815497,47.1456911 22.1650502,47.3018083 22.3068291,47.6396739 L25.3422936,54.8257249 C25.4863969,55.1635904 25.3283482,55.5503882 24.9936568,55.6925248 C24.9076597,55.7286414 24.8216627,55.7461172 24.7356656,55.7461172" id="Fill-126" fill="#1B1C1C"></path>
                    <path d="M27.7578819,55.9190112 C27.5289437,55.9190112 27.304654,55.7990107 27.1837933,55.5846408 C27.124525,55.480951 27.0977962,55.3667758 27.0977962,55.2560957 C27.0315552,54.7026952 26.1495041,49.8723827 25.5986579,46.8980007 C25.5312548,46.5379992 25.7671657,46.1908132 26.1262616,46.1267352 C26.490006,46.0626573 26.8293458,46.2968331 26.8955868,46.6545045 C28.5504496,55.567165 28.5504496,55.567165 28.0832762,55.8327972 C27.9810095,55.892215 27.8694457,55.9190112 27.7578819,55.9190112" id="Fill-128" fill="#1B1C1C"></path>
                    <path d="M44.870836,87.2833042 C44.6314387,87.2833042 44.3990142,87.1516531 44.2816398,86.9209725 C43.8086559,85.9865995 32.6755203,63.9880563 31.934086,62.2497963 C31.3286201,60.8307609 31.7713889,56.9767634 32.066568,54.9192787 L30.6906148,55.6043302 C30.4814327,55.7056899 30.2269278,55.6917092 30.0316912,55.5623883 C29.8364546,55.4319023 29.7248908,55.2070469 29.7388363,54.970541 L30.0828246,49.2361469 C30.1049049,48.8703201 30.4000841,48.563911 30.7812603,48.6163384 C31.1450047,48.6373093 31.4227521,48.9518738 31.4006717,49.3165356 L31.1252486,53.9103422 L32.6243869,53.1647079 C32.8451902,53.0575229 33.1113163,53.0784939 33.3112015,53.2276208 C33.5122487,53.3755826 33.609867,53.623739 33.5680306,53.8695653 C33.1485043,56.3068576 32.6638991,60.5965851 33.1485043,61.7290173 C33.8736688,63.4276655 45.34382,86.0937844 45.4611943,86.3221349 C45.6250536,86.6471849 45.4948959,87.0467983 45.1706637,87.2122359 C45.0742075,87.2600031 44.9719407,87.2833042 44.870836,87.2833042" id="Fill-130" fill="#1B1C1C"></path>
                    <path d="M44.6199337,277.647829 C44.6199337,277.647829 51.9180643,269.360802 53.7914061,266.187196 C55.6635858,263.014755 58.2992801,253.524228 58.2992801,253.524228 L64.5119881,249.807707 L67.0953868,250.584798 L76.9118373,263.079998 L44.6199337,277.647829 Z" id="Fill-132" fill="#1B1C1C"></path>
                    <path d="M54.3912939,240.73823 L59.5023095,256.733252 C59.5023095,256.733252 61.912552,256.79966 62.5005861,255.628781 C63.0862959,254.457902 63.7928665,252.313038 64.4971129,251.662938 C65.2025214,251.011673 66.4948018,250.62138 66.4948018,250.62138 L64.4750326,237.466759 L54.3912939,240.73823 Z" id="Fill-134" fill="#FFFFFF"></path>
                    <path d="M55.1699161,241.178504 L59.9253222,256.060899 C60.7295111,256.011967 61.7382336,255.776626 61.9753066,255.305945 C62.1565978,254.945943 62.348348,254.490407 62.5482331,254.01623 C63.030514,252.870982 63.5290647,251.689618 64.1136124,251.151363 C64.6168115,250.687672 65.3303549,250.355632 65.8161222,250.164563 L63.9974001,238.315967 L55.1699161,241.178504 Z M59.6313051,257.399546 C59.573199,257.399546 59.525552,257.399546 59.4895262,257.398381 C59.2385077,257.392556 59.0200286,257.215468 58.9363558,256.955661 L53.8253401,240.960639 C53.7707203,240.787046 53.7823416,240.598307 53.8567174,240.4352 C53.9322554,240.274422 54.0647374,240.150927 54.2239482,240.100829 L64.3065248,236.830524 C64.4703841,236.778096 64.6470267,236.802562 64.7934542,236.903922 C64.9387195,237.004117 65.0386621,237.169554 65.0677152,237.357128 L67.0874844,250.510584 C67.1397799,250.847284 66.9515161,251.172334 66.6540126,251.263208 C66.3297804,251.361073 65.3745155,251.718744 64.8817755,252.173115 C64.5029235,252.521466 64.0218047,253.662054 63.6348179,254.578951 C63.4233115,255.084584 63.2176158,255.568082 63.0258656,255.952549 C62.3553208,257.285371 60.3111469,257.399546 59.6313051,257.399546 L59.6313051,257.399546 Z" id="Fill-136" fill="#1B1C1C"></path>
                    <path d="M154.455288,276.796757 L164.530892,286.379324 L140.850318,315.125858 C140.850318,315.125858 144.121693,300.796863 144.896829,296.737816 C145.671965,292.681099 145.978765,283.425913 145.978765,283.425913 L150.064789,276.192095 L154.455288,276.796757 Z" id="Fill-138" fill="#1B1C1C"></path>
                    <path d="M141.451833,269.540221 L147.103235,286.398547 C147.103235,286.398547 148.673263,286.227284 149.458858,284.865336 C150.243291,283.503389 150.557064,280.438133 151.342659,279.161234 C152.127092,277.884335 153.854006,276.947632 153.854006,276.947632 L152.397866,267.019045 L141.451833,269.540221 Z" id="Fill-140" fill="#FFFFFF"></path>
                    <path d="M142.254162,270.022669 L147.489525,285.639049 C147.921835,285.498077 148.565651,285.184678 148.949151,284.519432 C149.289653,283.92875 149.553455,282.870881 149.810284,281.849129 C150.108949,280.658444 150.390183,279.534167 150.842249,278.799019 C151.469795,277.776101 152.597054,276.974545 153.193223,276.597067 L151.902105,267.800912 L142.254162,270.022669 Z M147.1037,287.049929 C146.85152,287.049929 146.624906,286.880996 146.538909,286.621189 L140.886344,269.762862 C140.825913,269.585774 140.841021,269.38888 140.924694,269.223443 C141.010691,269.05917 141.157118,268.940335 141.32795,268.901888 L152.272822,266.379547 C152.433195,266.344595 152.600541,266.379547 152.737671,266.480906 C152.874802,266.581101 152.966609,266.739548 152.991014,266.915471 L154.449478,276.842893 C154.490152,277.126002 154.358832,277.403284 154.124083,277.530275 C154.107814,277.539596 152.527327,278.408726 151.842837,279.523682 C151.50001,280.080578 151.232722,281.154757 150.971245,282.191655 C150.693497,283.304281 150.404129,284.457684 149.969495,285.212639 C149.037472,286.827403 147.238506,287.038278 147.164131,287.046433 C147.143212,287.048764 147.122294,287.049929 147.1037,287.049929 L147.1037,287.049929 Z" id="Fill-142" fill="#1B1C1C"></path>
                    <path d="M53.7909413,241.734817 L68.7753514,237.332079 C68.7753514,237.332079 62.1872778,215.96616 61.9281245,205.217375 C61.6701332,194.47092 62.5754268,188.124873 62.5754268,188.124873 C62.5754268,188.124873 84.0165907,175.823071 91.766787,172.715873 C99.5169834,169.60751 112.820964,165.334093 112.820964,165.334093 C112.820964,165.334093 117.72977,197.318311 123.542708,217.520342 C129.353322,237.721207 140.850202,270.223874 140.850202,270.223874 L155.446463,267.115511 L144.164576,144.042738 C144.164576,144.042738 123.799537,137.363485 107.783162,138.917667 C91.766787,140.470683 75.7631953,147.170907 75.7631953,147.170907 C75.7631953,147.170907 35.794309,177.246767 33.2957452,183.204851 C30.7995056,189.160606 53.7909413,241.734817 53.7909413,241.734817" id="Fill-144" fill="#4BE3AB"></path>
                    <path d="M83.5647574,6.12205478 C83.5647574,6.12205478 83.6925909,8.45216209 85.3730203,10.5888705 C87.0522877,12.7255789 88.7303928,13.8265546 88.7303928,13.8265546 C88.7303928,13.8265546 86.0563485,30.1384709 90.5770058,34.6064516 C94.2888257,37.7765626 99.5021082,36.8025778 99.5021082,36.8025778 L100.356268,43.9338712 L106.814184,51.5742931 L110.947855,44.3218341 C110.947855,44.3218341 109.78457,40.6321092 109.78457,36.6814122 C109.78457,32.7330454 109.914728,29.9485671 109.914728,29.9485671 C109.914728,29.9485671 116.75963,28.9769124 115.468512,22.1788243 C114.177394,15.3807362 109.803164,18.1850203 109.803164,18.1850203 C109.803164,18.1850203 112.938571,12.641695 110.998988,10.0214894 C108.15295,6.86535901 101.965808,6.25137573 99.8170435,5.73292686 C97.6706028,5.21564303 95.8356111,5.02107907 94.7374051,3.92010337 C93.6391992,2.81912766 92.6711509,-0.288070444 88.7303928,1.26611114 C84.791959,2.81912766 82.9790476,3.79194746 83.5647574,6.12205478" id="Fill-146" fill="#FFFFFF"></path>
                    <path d="M72.9080922,147.118596 C72.9080922,147.118596 83.2416873,142.111195 84.6188027,125.880833 C85.9970802,109.651635 83.45668,81.6810272 83.45668,81.6810272 C83.45668,81.6810272 69.4635605,104.990256 66.3630171,112.24155 C63.2636359,119.492844 58.9579712,122.601207 54.6523066,121.564309 C50.346642,120.529741 33.2959776,92.5591332 33.2959776,92.5591332 L47.4180928,84.2709415 L52.5639721,93.7894299 C52.5639721,93.7894299 53.5320203,92.2993262 54.4361518,93.076417 C55.3414454,93.8535078 55.4053621,94.8239975 55.4053621,94.8239975 C55.4053621,94.8239975 67.22415,64.8471669 70.453689,61.6094828 C73.683228,58.3717987 96.2865147,50.4738999 96.2865147,50.4738999 L97.6427119,43.2214409 L100.161032,42.3068738 L100.356268,43.9344538 L106.814184,51.5737106 L110.947855,44.3224166 L110.269175,41.4925013 L112.950192,42.1204652 L114.306389,47.4948577 C114.306389,47.4948577 141.022428,53.884012 143.346674,56.5601402 C145.672081,59.2351034 175.466583,104.860935 175.725736,107.191042 C175.983728,109.522314 175.725736,120.140613 175.725736,120.140613 L158.804068,118.32779 C158.804068,118.32779 159.708199,112.046986 159.063221,111.269895 C158.417081,110.492804 157.253796,110.752611 157.899936,109.715713 C158.546077,108.681146 158.223006,108.161532 156.931888,106.544437 C155.639608,104.925013 138.525027,84.1416205 138.525027,84.1416205 C138.525027,84.1416205 132.971242,107.968133 132.712089,109.780956 C132.454098,111.594945 136.716764,113.925052 136.716764,114.443501 C136.716764,114.960785 135.553479,115.091271 135.553479,116.644287 C135.553479,118.198469 146.921363,140.989249 146.921363,140.989249 C146.921363,140.989249 144.078811,146.687526 132.712089,148.888312 C121.346529,151.089099 113.466175,147.592773 113.466175,147.592773 L112.046061,142.672751 L103.003584,151.86619 C103.003584,151.86619 99.2580624,155.491837 92.1540063,152.64328 C85.0487881,149.794724 81.4334244,146.901896 72.9080922,147.118596" id="Fill-148" fill="#FF4D00"></path>
                    <polygon id="Fill-150" fill="#FFCE00" points="166.55438 151.413566 195.229758 149.924628 200.137402 196.283278 174.433572 198.225422 169.39577 192.786952 143.820936 194.341133 139.687265 153.735518"></polygon>
                    <path d="M161.244177,118.589569 C161.08729,118.572102 162.517863,145.433579 162.453947,148.735341 C162.388868,152.037103 159.64742,160.939278 159.64742,160.939278 C159.64742,160.939278 160.51204,161.589378 162.577132,160.360246 C164.642224,159.128785 166.553915,151.413799 166.553915,151.413799 L174.43427,150.959428 C174.43427,150.959428 171.140814,143.06153 171.010656,140.600936 C170.88166,138.140343 173.073424,119.857156 173.073424,119.857156 L161.244177,118.589569 Z" id="Fill-152" fill="#FFFFFF"></path>
                    <path d="M99.0003036,59.2935891 C98.9433596,59.2935891 98.8875777,59.2854338 98.8306337,59.2702881 C98.615641,59.2143655 98.4436468,59.052423 98.3739195,58.8403833 L95.660363,50.6826775 C95.5453128,50.3366566 95.7324146,49.9615093 96.077565,49.845004 C96.4273639,49.7319938 96.796919,49.9172373 96.9142934,50.2632582 L99.307104,57.4632898 L106.37281,51.083456 C106.507616,50.9622904 106.674962,50.9017076 106.866712,50.9156883 C107.045679,50.9273388 107.211863,51.0170479 107.325751,51.1580194 L111.295562,56.0500797 L113.668616,47.3203327 C113.765073,46.9696515 114.127655,46.7646021 114.479778,46.8554763 C114.830739,46.9521757 115.038759,47.3168375 114.943465,47.6686837 L112.231071,57.641543 C112.16483,57.880379 111.973079,58.0621274 111.731358,58.1133898 C111.494285,58.161157 111.238618,58.0761081 111.081731,57.8838742 L106.741203,52.5316177 L99.4430724,59.1234913 C99.3198874,59.2330063 99.1618387,59.2935891 99.0003036,59.2935891" id="Fill-154" fill="#1B1C1C"></path>
                    <path d="M112.046874,143.334385 C112.029442,143.334385 112.013173,143.334385 111.998065,143.33322 C111.634321,143.306424 111.36006,142.989529 111.386788,142.624867 C111.400734,142.441954 112.68488,124.210029 110.147966,110.98434 C107.584323,97.6200098 106.167695,52.0535962 106.154912,51.5957301 C106.143291,51.2287382 106.430335,50.9246592 106.792917,50.9130087 L106.813836,50.9130087 C107.170607,50.9130087 107.463462,51.1961167 107.473921,51.5537882 C107.487867,52.0116543 108.901008,97.473213 111.444895,110.735019 C114.01551,124.134301 112.717419,142.536323 112.703474,142.720402 C112.679069,143.068753 112.388538,143.334385 112.046874,143.334385" id="Fill-156" fill="#1B1C1C"></path>
                    <path d="M98.6052981,37.7764461 C96.965543,37.7764461 94.87256,37.4187747 92.2647566,36.3644011 C84.795794,33.343417 87.4895944,16.8986846 88.0102254,14.0804198 C87.438461,13.5829419 86.14037,12.4202183 84.8829532,11.0338045 C83.2734133,9.25593261 82.8817779,5.94252001 82.7992672,4.97086526 C82.7702141,4.60620347 83.0375023,4.27532823 83.4012467,4.24387178 C83.7568563,4.17746372 84.0799264,4.46989219 84.113628,4.83338893 C84.113628,4.83338893 84.1159522,4.85785506 84.1159522,4.85902011 C84.1682477,5.47649855 84.4936421,8.63612407 85.8602984,10.1437035 C87.438461,11.8831286 89.1363223,13.303329 89.152592,13.3173097 C89.3396938,13.4745919 89.426853,13.7204182 89.3792059,13.9580892 C89.3408559,14.1410026 85.7684907,32.3100144 92.7598209,35.1364346 C99.7581238,37.9675149 102.503058,35.3170179 102.530949,35.2890566 C102.785453,35.0339098 103.202656,35.0257545 103.461809,35.2785711 C103.720962,35.5302227 103.731421,35.9438167 103.481565,36.2071189 C103.394406,36.297993 101.937104,37.7764461 98.6052981,37.7764461" id="Fill-158" fill="#1B1C1C"></path>
                    <path d="M100.354177,44.5950392 C100.025296,44.5950392 99.7405758,44.3480478 99.7010636,44.0125123 L98.9259278,37.5383092 C98.8817671,37.1759775 99.1397583,36.8462673 99.5023406,36.8031603 C99.8579502,36.7495678 100.192642,37.0175302 100.234478,37.3810269 L101.009614,43.854065 C101.054937,44.2187268 100.796945,44.547272 100.433201,44.590379 C100.407634,44.5938741 100.380905,44.5950392 100.354177,44.5950392" id="Fill-160" fill="#1B1C1C"></path>
                    <path d="M93.2304806,11.6390499 C93.0433788,11.6390499 91.3513282,11.555166 89.4675273,8.61573563 C87.6894795,5.84523803 86.9003982,3.05143936 86.8678588,2.93260389 C86.7690784,2.58075768 86.9747741,2.21609589 87.3257351,2.11706633 C87.6766962,2.0145416 88.0416027,2.22658137 88.139221,2.57726252 C88.1473559,2.60405876 88.9131947,5.30465313 90.5796787,7.90039268 C92.0555745,10.2037038 93.2421018,10.3155489 93.253723,10.3155489 C93.6081705,10.3423451 93.8894042,10.6452591 93.8777829,11.0006005 C93.8649996,11.3571069 93.5860901,11.6390499 93.2304806,11.6390499" id="Fill-162" fill="#1B1C1C"></path>
                    <path d="M96.999477,10.0211399 C96.971586,10.0211399 96.9413708,10.0199748 96.9134799,10.0153146 C96.8437525,10.0059942 95.2237535,9.78230385 93.48638,8.38773463 C91.7699248,7.0106412 90.4485913,4.18888125 90.3928094,4.07004577 C90.2405713,3.73800548 90.3835124,3.3453824 90.7135552,3.19043026 C91.0447602,3.03780823 91.4363956,3.17994478 91.5897958,3.51082002 C91.6025791,3.53761625 92.8379155,6.17063752 94.3114871,7.35316698 C95.7408981,8.50074483 97.0703664,8.70113406 97.0831498,8.70229911 C97.4457321,8.75006631 97.7002369,9.08210661 97.6525899,9.44443829 C97.6084293,9.77764364 97.3248713,10.0211399 96.999477,10.0211399" id="Fill-164" fill="#1B1C1C"></path>
                    <path d="M110.94832,44.9841671 C110.715895,44.9841671 110.491605,44.8618365 110.370745,44.6428064 C110.280099,44.4785338 108.159225,40.5662836 108.950631,35.7336411 C109.672309,31.3309033 109.278349,29.610119 109.273701,29.5914782 C109.220243,29.3689529 109.28416,29.131282 109.445695,28.9681745 C109.60723,28.8039019 109.845465,28.7339987 110.06162,28.7864261 C110.07789,28.7899213 111.703699,29.1394374 113.048275,28.2481713 C113.95938,27.6423434 114.556711,26.5891349 114.825161,25.1176721 C115.266768,22.7095062 114.947184,20.6823129 113.929164,19.4089092 C113.370183,18.7075469 112.610155,18.274147 111.896612,18.2485158 C111.880342,18.2473507 111.861748,18.2473507 111.845478,18.2473507 C110.628736,18.2473507 108.390488,19.8050275 107.246959,20.8011483 C106.475309,21.6376569 104.715856,22.8516428 103.318984,21.8030945 C102.589171,21.2543542 102.428798,20.0671645 102.241696,18.6924012 C101.973246,16.7153052 101.702471,15.3137456 100.648426,15.2636483 C97.8767634,15.1366575 93.33635,14.5716064 93.1445997,14.5483054 C92.7808553,14.5028683 92.5240262,14.171993 92.5705111,13.8096613 C92.6158339,13.4484947 92.9540116,13.1758721 93.3061348,13.2352899 C93.3526197,13.2399501 97.9894893,13.8166517 100.710019,13.9424775 C102.944781,14.0461672 103.294579,16.6290912 103.551409,18.514148 C103.665297,19.3634721 103.822183,20.5273607 104.11039,20.7417306 C104.879715,21.3242574 106.318423,19.8644452 106.331206,19.8492995 C106.721679,19.5044436 109.740874,16.9226847 111.851289,16.9226847 C111.88499,16.9226847 111.915206,16.9226847 111.945421,16.9238498 C113.054086,16.9669567 114.15113,17.5704545 114.959967,18.5805561 C115.852477,19.6955124 116.779851,21.7786284 116.125576,25.3553431 C115.787399,27.2031182 114.991344,28.5522503 113.761819,29.3607976 C112.664775,30.0854609 111.472437,30.2089566 110.674059,30.1775002 C110.742624,31.1631356 110.736813,32.9992601 110.252208,35.9468459 C109.535178,40.3321078 111.504976,43.9659102 111.525895,44.0020269 C111.702537,44.3212516 111.586325,44.7243601 111.267903,44.9026133 C111.165637,44.9573709 111.056397,44.9841671 110.94832,44.9841671" id="Fill-166" fill="#1B1C1C"></path>
                    <path d="M175.839973,114.586919 L175.815569,114.586919 L159.261131,113.936819 C158.897386,113.924004 158.613828,113.615264 158.626612,113.250603 C158.641719,112.884776 158.896224,112.630794 159.313426,112.614483 L175.86554,113.262253 C176.231608,113.277399 176.515166,113.584973 176.500059,113.9508 C176.486113,114.307306 176.194421,114.586919 175.839973,114.586919" id="Fill-168" fill="#1B1C1C"></path>
                    <path d="M36.9799066,99.1067347 C36.775373,99.1067347 36.5743258,99.0123654 36.4453302,98.8341122 C36.2314996,98.5393536 36.2965785,98.1257596 36.5917576,97.9102246 L49.570344,88.4348432 C49.8643611,88.2204734 50.2757525,88.2845513 50.4919073,88.580475 C50.7069,88.8752335 50.6418212,89.2888276 50.346642,89.5043625 L37.3680556,98.9809089 C37.2495191,99.0647928 37.1147129,99.1067347 36.9799066,99.1067347" id="Fill-170" fill="#1B1C1C"></path>
                    <path d="M138.52491,84.8030215 C138.306431,84.8030215 138.091439,84.6923414 137.965929,84.4919522 L130.990869,73.3144274 C130.796794,73.003358 130.890926,72.5944242 131.198889,72.4010253 C131.509176,72.2087914 131.915919,72.3007974 132.108831,72.610735 L139.083891,83.7894248 C139.277966,84.0993291 139.183834,84.5082629 138.875871,84.7016618 C138.766632,84.771565 138.645771,84.8030215 138.52491,84.8030215" id="Fill-172" fill="#1B1C1C"></path>
                    <path d="M83.4557503,82.3432437 C83.0920059,82.3432437 82.7968267,82.0473201 82.7968267,81.6814932 L82.7968267,74.4290342 C82.7968267,74.0643724 83.0920059,73.7672837 83.4557503,73.7672837 C83.8206568,73.7672837 84.115836,74.0643724 84.115836,74.4290342 L84.115836,81.6814932 C84.115836,82.0473201 83.8206568,82.3432437 83.4557503,82.3432437" id="Fill-174" fill="#1B1C1C"></path>
                    <path d="M51.7516483,237.661673 C51.3913903,237.661673 51.0985354,237.373905 51.0914727,237.011573 C51.085752,236.655067 51.3623372,236.359143 51.7156225,236.339337 C52.5267842,236.227492 61.5553155,233.349809 67.0742362,231.556792 C67.4286836,231.443782 67.7935902,231.63485 67.905154,231.982036 C68.0178799,232.329222 67.8284539,232.703205 67.4809792,232.816215 C63.0102931,234.269037 52.5267842,237.648857 51.7632696,237.661673 L51.7516483,237.661673 Z" id="Fill-176" fill="#1B1C1C"></path>
                    <path d="M138.925494,265.381795 C138.632639,265.381795 138.365351,265.186066 138.286327,264.890142 C138.193357,264.534801 138.404863,264.173634 138.755824,264.08043 L154.672257,259.867596 C155.026704,259.772061 155.384638,259.986431 155.47877,260.338277 C155.57174,260.692454 155.361395,261.054785 155.009272,261.146825 L139.094002,265.359659 C139.037058,265.375969 138.980114,265.381795 138.925494,265.381795" id="Fill-178" fill="#1B1C1C"></path>
                    <path d="M112.81864,165.994912 C112.500218,165.994912 112.217822,165.761901 112.167851,165.434521 L110.574581,155.074864 C110.519961,154.713697 110.767493,154.374667 111.127751,154.319909 C111.481037,154.265152 111.825025,154.512143 111.879645,154.87331 L113.471753,165.232967 C113.527535,165.592968 113.280003,165.931999 112.920907,165.986756 C112.888367,165.992582 112.852341,165.994912 112.81864,165.994912" id="Fill-180" fill="#1B1C1C"></path>
                    <path d="M169.164624,149.548781 C168.955442,149.245867 168.544051,149.173634 168.245385,149.378684 L166.373205,150.673058 C166.234913,150.769758 166.137294,150.916554 166.102431,151.080827 C166.091972,151.129759 165.079763,155.900654 163.86302,157.741439 C162.924025,159.163969 161.512046,160.398926 160.649751,160.551548 C160.602104,160.560869 160.524242,160.565529 160.463811,160.562034 C160.421975,159.824555 161.183165,157.380272 161.747957,155.566284 C162.562605,152.947243 163.406306,150.238493 163.337741,148.792662 C163.208745,146.008183 161.902519,118.557189 161.902519,118.557189 C161.885087,118.192527 161.577125,117.911749 161.212218,117.92806 C160.849636,117.945536 160.568402,118.25544 160.584672,118.620102 C160.584672,118.620102 161.890898,146.069931 162.021056,148.854409 C162.076838,150.068395 161.233137,152.77831 160.487054,155.170165 C159.128532,159.533291 158.758977,160.993103 159.577112,161.595436 C159.771186,161.738738 160.080311,161.88903 160.514945,161.88903 C160.627671,161.88903 160.750856,161.878544 160.881013,161.855243 C162.319721,161.597766 164.008286,159.920089 164.965875,158.473092 C166.157051,156.668424 167.100694,152.681611 167.337767,151.614422 L168.994954,150.470339 C169.294782,150.261794 169.371482,149.849365 169.164624,149.548781" id="Fill-182" fill="#1B1C1C"></path>
                    <path d="M174.433805,151.621761 C174.165354,151.621761 173.913174,151.456324 173.814393,151.189526 C173.697019,150.871467 170.96022,143.417454 170.402401,141.064045 C169.835285,138.67219 172.152558,121.693863 172.419846,119.765699 C172.469817,119.404533 172.817292,119.158706 173.163605,119.201813 C173.525025,119.251911 173.777205,119.585116 173.727234,119.947448 C172.695269,127.421267 171.301884,139.130056 171.687709,140.759966 C172.226934,143.035316 175.025325,150.654767 175.052054,150.730495 C175.178725,151.073021 175.003245,151.455159 174.661581,151.580984 C174.587205,151.608946 174.509343,151.621761 174.433805,151.621761" id="Fill-184" fill="#1B1C1C"></path>
                    <path d="M92.7577291,28.6455711 C92.3788771,28.6455711 91.1040285,28.600134 90.5252914,28.0199373 C90.2719486,27.7671207 89.7443449,27.2381863 91.573526,23.8700162 C91.7478444,23.5484614 92.151101,23.431956 92.4695226,23.6043839 C92.7891064,23.779142 92.908805,24.1810855 92.7333245,24.5038054 C92.1720192,25.537208 91.6850898,26.6801256 91.5944442,27.1543024 C91.8431385,27.2463417 92.340527,27.3232352 92.7577291,27.3232352 C93.1214735,27.3232352 93.4166527,27.6191588 93.4166527,27.9838206 C93.4166527,28.3508125 93.1214735,28.6455711 92.7577291,28.6455711 L92.7577291,28.6455711 Z" id="Fill-186" fill="#1B1C1C"></path>
                    <path d="M92.8344292,31.6883417 C92.5218182,31.6883417 92.3416891,31.6638756 92.3242573,31.6627106 C91.9628371,31.6137783 91.7094944,31.2782429 91.7583036,30.9170762 C91.8071127,30.5535795 92.1452904,30.3019279 92.4985757,30.3508602 C92.5171697,30.3531903 93.3643571,30.4498897 94.6543133,30.1073639 C95.7990042,29.80445 96.1801804,29.2207581 96.1964502,29.1951269 C96.3893625,28.8910479 96.7937812,28.7955135 97.0994195,28.9784269 C97.407382,29.1660006 97.5119731,29.5574586 97.331844,29.8685279 C97.2690894,29.9768779 96.6729205,30.9415424 94.992491,31.3865929 C94.0523338,31.6359143 93.2981161,31.6883417 92.8344292,31.6883417" id="Fill-188" fill="#1B1C1C"></path>
                    <path d="M91.3465635,19.4542298 C91.3465635,19.8806394 91.001413,20.2254953 90.5772382,20.2254953 C90.1519013,20.2254953 89.807913,19.8806394 89.807913,19.4542298 C89.807913,19.0278202 90.1519013,18.6829643 90.5772382,18.6829643 C91.001413,18.6829643 91.3465635,19.0278202 91.3465635,19.4542298" id="Fill-190" fill="#1B1C1C"></path>
                    <path d="M97.530567,20.447438 C97.530567,20.8726826 97.1854166,21.2187036 96.7612418,21.2187036 C96.3359049,21.2187036 95.9919166,20.8726826 95.9919166,20.447438 C95.9919166,20.0210284 96.3359049,19.6750075 96.7612418,19.6750075 C97.1854166,19.6750075 97.530567,20.0210284 97.530567,20.447438" id="Fill-192" fill="#1B1C1C"></path>
                    <path d="M112.949146,25.538839 C112.829448,25.538839 112.708587,25.5062175 112.598185,25.4374794 C112.291385,25.2440805 112.197253,24.8351466 112.390165,24.5252423 C112.3983,24.5066015 112.794584,23.7772779 112.121715,22.6203796 C111.426765,21.4296948 110.10427,21.4704717 110.097297,21.4797921 C109.725418,21.5287243 109.423266,21.2153249 109.405834,20.8518282 C109.388402,20.4871664 109.668474,20.176097 110.032218,20.1586212 C110.114729,20.1411454 112.1682,20.0759024 113.261757,21.9539689 C114.354153,23.8320354 113.544153,25.1718471 113.508127,25.2277697 C113.38378,25.4281589 113.167625,25.538839 112.949146,25.538839" id="Fill-194" fill="#1B1C1C"></path>
                    <path d="M110.065455,25.5354604 C110.054996,25.5354604 110.042213,25.5342953 110.031753,25.5342953 C109.669171,25.5156545 109.390262,25.2115755 109.405369,24.8480787 C109.407694,24.7933212 109.473935,23.5001116 110.517521,22.6740886 C111.429787,21.9517553 112.473373,21.6604919 112.518696,21.6488414 C112.870819,21.553307 113.232239,21.7618516 113.327533,22.1125327 C113.42399,22.4643789 113.218294,22.8278757 112.866171,22.9269052 C112.858036,22.9280703 112.029442,23.1622461 111.335655,23.7133165 C110.775512,24.1560368 110.724379,24.9028362 110.723216,24.9098266 C110.70346,25.2628378 110.411768,25.5354604 110.065455,25.5354604" id="Fill-196" fill="#1B1C1C"></path>
                    <path d="M111.843735,9.78673106 C110.733908,7.44846837 105.58338,6.39758997 101.03948,5.4690422 C99.0557369,5.06476858 97.1812329,4.68263098 96.2189953,4.27952242 C94.0202592,3.36262519 93.8563999,1.62203503 93.8889393,0.917177565 C93.9098575,0.408049117 93.4357115,-0.174477712 92.901135,0.0492125901 C92.0318672,0.411544278 92.4293132,4.13156061 95.7111477,5.50282876 C96.7919218,5.95486958 98.6385348,6.33001686 100.778003,6.76691198 C104.595576,7.54633287 109.825128,8.61352202 110.653721,10.3552772 C111.937867,13.0686872 109.687998,17.667154 109.663593,17.7137561 C109.500896,18.0411362 109.63454,18.4384195 109.961096,18.600362 C110.055228,18.6481292 110.155171,18.6702652 110.255113,18.6702652 C110.496835,18.6702652 110.729259,18.536284 110.845472,18.3056034 C110.950063,18.0923986 113.409114,13.0838329 111.843735,9.78673106" id="Fill-198" fill="#1B1C1C"></path>
                    <path d="M200.271744,229.505249 L225.244598,226.915335 C225.244598,226.915335 225.072604,223.980564 226.277726,219.145592 C227.484009,214.311784 230.772816,210.825944 230.772816,210.825944 L219.905807,199.89541 L211.294478,198.858512 C211.294478,198.858512 204.836562,199.032105 201.994009,207.146704 C199.152619,215.261303 200.271744,229.505249 200.271744,229.505249" id="Fill-200" fill="#1B1C1C"></path>
                    <path d="M221.971945,211.893948 L244.705389,209.131606 C244.705389,209.131606 244.964542,204.039156 242.812291,201.276814 C240.658878,198.514472 234.974936,196.872911 234.974936,196.872911 L211.294361,198.859328 C211.294361,198.859328 218.269422,200.239916 219.819693,203.606922 C221.368803,206.973927 221.971945,211.893948 221.971945,211.893948" id="Fill-202" fill="#FFFFFF"></path>
                </g>
            </g>
        </g>
    </g>
</svg>