<?xml version="1.0" encoding="UTF-8"?>
<svg width="299px" height="289px" viewBox="0 0 299 289" version="1.1" xmlns="http://www.w3.org/2000/svg" xmlns:xlink="http://www.w3.org/1999/xlink">
    <title>Group 6</title>
    <defs>
        <polygon id="path-1" points="0 106 135.849155 106 135.849155 0.113098214 0 0.113098214"></polygon>
    </defs>
    <g id="1.0-Risultati" stroke="none" stroke-width="1" fill="none" fill-rule="evenodd">
        <g id="SIW_result-tool-exploration-01" transform="translate(-1028.000000, -909.000000)">
            <g id="Group" transform="translate(0.000000, 852.000000)">
                <g id="Group-6" transform="translate(1028.000000, 57.000000)">
                    <rect id="Rectangle" x="0" y="1.13686838e-13" width="298.56" height="289"></rect>
                    <g id="Group-26" transform="translate(161.550375, 72.251119) rotate(-19.000000) translate(-161.550375, -72.251119) translate(93.550375, 19.251119)">
                        <polygon id="Fill-1" fill="#FFFFFF" points="0 10.6078226 3.22538661 89 62 86.6789113 58.7746134 18.2886372 49.8151531 9"></polygon>
                        <polygon id="Fill-2" fill="#FFFFFF" points="72 34.4903983 75.1999323 106 128 102.264403 123.022222 37.3367709 118.222087 32"></polygon>
                        <g id="Group-25">
                            <path d="M10.5990451,5.99122411 L13.0930169,82.5653402 L67.5772986,81.3378223 L65.6143972,15.0376616 L55.3904535,4.58577768 L10.5990451,5.99122411 Z M12.7597211,83.2533938 C12.5743972,83.2533938 12.4216366,83.108117 12.4154113,82.9235634 L9.89924284,5.67275089 C9.89653803,5.58284018 9.93053803,5.49529554 9.99279155,5.42951875 C10.0545662,5.36374196 10.1412423,5.32493839 10.2331859,5.32162589 L55.5211859,3.90009018 C55.622707,3.90009018 55.7127352,3.93463482 55.7792986,4.00419732 L66.2024535,14.6595634 C66.2623127,14.720608 66.2967915,14.8010545 66.2991859,14.886233 L68.2766198,81.659608 C68.2793268,81.7504652 68.2448479,81.838483 68.1816366,81.9037866 C68.1184254,81.9700366 68.0317493,82.008367 67.9402845,82.010733 L12.767862,83.2533938 L12.7597211,83.2533938 Z" id="Fill-3" fill="#1D1D1B"></path>
                            <path d="M55.7698169,4.97409732 L54.1406901,15.8414634 L65.2194225,14.6342937 L55.7698169,4.97409732 Z M53.7341268,16.5687938 C53.6412254,16.5687938 53.5511972,16.531883 53.4855915,16.4642134 C53.4118451,16.3884991 53.3773662,16.2829723 53.3936479,16.1788652 L55.191338,4.19092768 C55.210493,4.06221339 55.3014789,3.95621339 55.4259859,3.91693661 C55.5548028,3.87671339 55.6884085,3.91173125 55.7793944,4.00400804 L66.2025493,14.6598473 C66.2940141,14.7530705 66.3237042,14.8893563 66.279169,15.0119188 C66.2341549,15.1335348 66.1230563,15.2196598 65.9923239,15.2348027 L53.7719577,16.5669009 C53.7590282,16.5683205 53.7470563,16.5687938 53.7341268,16.5687938 L53.7341268,16.5687938 Z" id="Fill-5" fill="#1D1D1B"></path>
                            <path d="M78.7143099,27.4734964 L81.9179718,99.5984518 L135.147127,95.9163714 L132.649803,33.8723 L123.512901,25.3217911 L78.7143099,27.4734964 Z M81.5894648,100.302121 C81.505662,100.302121 81.4232958,100.271836 81.3600845,100.215996 C81.2906479,100.154952 81.2499437,100.068354 81.2451549,99.9770232 L78.0100789,27.1644875 C78.0027042,26.9775679 78.1492394,26.8185679 78.3379155,26.8105232 L123.626394,24.6351571 C123.71307,24.6242732 123.811718,24.66355 123.879718,24.7274339 L133.22493,33.4738536 C133.290056,33.5348982 133.328366,33.6181839 133.332676,33.7076214 L135.848972,96.2192286 C135.856338,96.4028357 135.714113,96.5589964 135.528789,96.5722464 L81.6138873,100.302121 C81.6057465,100.302121 81.5976056,100.302121 81.5894648,100.302121 L81.5894648,100.302121 Z" id="Fill-7" fill="#1D1D1B"></path>
                            <path d="M124.109769,25.8800893 L125.263854,34.6369196 L132.24822,33.4969464 L124.109769,25.8800893 Z M124.968389,35.370875 C124.895121,35.370875 124.822811,35.3476875 124.762952,35.3036786 C124.687769,35.2487857 124.638445,35.1659732 124.626473,35.0746429 L123.301431,25.0188393 C123.282276,24.8754554 123.35698,24.7368036 123.486755,24.6715 C123.616051,24.60525 123.774079,24.6279643 123.87991,24.7273393 L133.225121,33.4737589 C133.319938,33.56225 133.355375,33.6971161 133.318023,33.8201518 C133.279234,33.9441339 133.173403,34.0349911 133.044107,34.0562857 L125.023938,35.3661429 C125.00622,35.3699286 124.987065,35.370875 124.968389,35.370875 L124.968389,35.370875 Z" id="Fill-9" fill="#1D1D1B"></path>
                            <mask id="mask-2" fill="white">
                                <use xlink:href="#path-1"></use>
                            </mask>
                            <g id="Clip-12"></g>
                            <polygon id="Fill-11" fill="#1D1D1B" mask="url(#mask-2)" points="17.612 24.9743571 60.4735493 24.9743571 60.4735493 23.3318304 17.612 23.3318304"></polygon>
                            <polygon id="Fill-13" fill="#1D1D1B" mask="url(#mask-2)" points="18.1512113 31.6452589 61.0127606 31.6452589 61.0127606 30.0027321 18.1512113 30.0027321"></polygon>
                            <polygon id="Fill-14" fill="#1D1D1B" mask="url(#mask-2)" points="18.1512113 38.3156875 61.0127606 38.3156875 61.0127606 36.6731607 18.1512113 36.6731607"></polygon>
                            <polygon id="Fill-15" fill="#1D1D1B" mask="url(#mask-2)" points="18.1512113 49.1267411 61.0127606 49.1267411 61.0127606 47.4837411 18.1512113 47.4837411"></polygon>
                            <polygon id="Fill-16" fill="#1D1D1B" mask="url(#mask-2)" points="18.6904225 55.7976429 61.5519718 55.7976429 61.5519718 54.1546429 18.6904225 54.1546429"></polygon>
                            <polygon id="Fill-17" fill="#1D1D1B" mask="url(#mask-2)" points="18.6904225 62.4680714 61.5519718 62.4680714 61.5519718 60.8250714 18.6904225 60.8250714"></polygon>
                            <polygon id="Fill-18" fill="#1D1D1B" mask="url(#mask-2)" points="84.3755493 42.4558393 127.237099 42.4558393 127.237099 40.8128393 84.3755493 40.8128393"></polygon>
                            <polygon id="Fill-19" fill="#1D1D1B" mask="url(#mask-2)" points="84.9147606 49.1267411 127.77631 49.1267411 127.77631 47.4837411 84.9147606 47.4837411"></polygon>
                            <polygon id="Fill-20" fill="#1D1D1B" mask="url(#mask-2)" points="84.9147606 55.7976429 127.77631 55.7976429 127.77631 54.1546429 84.9147606 54.1546429"></polygon>
                            <polygon id="Fill-21" fill="#1D1D1B" mask="url(#mask-2)" points="87.0716056 69.5719643 129.933155 69.5719643 129.933155 67.9289643 87.0716056 67.9289643"></polygon>
                            <polygon id="Fill-22" fill="#1D1D1B" mask="url(#mask-2)" points="87.6108169 76.2428661 130.472366 76.2428661 130.472366 74.5998661 87.6108169 74.5998661"></polygon>
                            <polygon id="Fill-23" fill="#1D1D1B" mask="url(#mask-2)" points="87.6108169 82.9132946 130.472366 82.9132946 130.472366 81.2702946 87.6108169 81.2702946"></polygon>
                            <path d="M97.9436085,20.3868286 C97.7539746,20.3868286 97.5997775,20.2349268 97.5992986,20.0470607 C97.5992986,19.9623554 97.4632986,11.4714714 87.4122282,4.51948036 C77.3721718,-2.42588571 66.7943408,2.45484643 66.688031,2.50500714 C66.5137211,2.58734643 66.3097211,2.51447143 66.2283127,2.34600714 C66.1459465,2.17659643 66.2177775,1.97311429 66.3892141,1.89172143 C66.4983972,1.83966786 77.4286789,-3.21851964 87.8077775,3.96203393 C98.1682,11.1288643 98.2879183,19.9580964 98.2879183,20.0461143 C98.2879183,20.2349268 98.1337211,20.3863554 97.9440873,20.3868286 L97.9436085,20.3868286 Z" id="Fill-24" fill="#1D1D1B" mask="url(#mask-2)"></path>
                        </g>
                    </g>
                    <g id="Group-5" transform="translate(56.000000, 144.000000)">
                        <polygon id="Fill-1" fill="#FFFFFF" points="19 67.2894785 29.1635388 145 106 84.2380712 101.516046 5"></polygon>
                        <polygon id="Fill-2" fill="#1B1C1C" points="10.3153708 141.151438 28 144 17.9803012 66.945869 0 62"></polygon>
                        <polygon id="Fill-3" fill="#FFFFFF" points="84.0192621 0 0 62.0553655 18.2817631 67 101 5.25207294"></polygon>
                        <polygon id="Fill-4" fill="#1B1C1C" points="88.3288033 98 54 41.3737704 101.512205 6 106 84.2170525"></polygon>
                        <path d="M33.6065197,39.795412 C33.6065197,39.795412 37.5042171,42.6439904 39.4517171,42.0448578 C41.4005658,41.4457253 44.0992829,38.4460145 44.0992829,38.4460145 L40.80175,21.3477976 L54.7430987,11.7495325 L56.6905987,24.6470747 C56.6905987,24.6470747 60.738,25.3973398 61.788625,24.7968578 C62.8379013,24.1963759 66.2837895,21.3477976 66.2837895,21.3477976 L63.8858289,1.10008675 L53.9918816,2.00013494 L29.7074737,18.4978699 L33.6065197,39.795412 Z" id="Fill-5" fill="#1B1C1C"></path>
                    </g>
                </g>
            </g>
        </g>
    </g>
</svg>