<?xml version="1.0" encoding="UTF-8"?>
<svg width="422px" height="674px" viewBox="0 0 422 674" version="1.1" xmlns="http://www.w3.org/2000/svg" xmlns:xlink="http://www.w3.org/1999/xlink">
    <title>Group 92</title>
    <defs>
        <polygon id="path-1" points="0.128466292 0.11034386 129.97809 0.11034386 129.97809 122.755046 0.128466292 122.755046"></polygon>
    </defs>
    <g id="PAGINE-DRAFT" stroke="none" stroke-width="1" fill="none" fill-rule="evenodd">
        <g id="2.0_SIW_come-funziona" transform="translate(-154.000000, -1656.000000)">
            <g id="Group-92" transform="translate(364.665630, 1992.948226) rotate(-3.000000) translate(-364.665630, -1992.948226) translate(171.165630, 1665.948226)">
                <path d="M135.487012,87.6691129 C130.80106,87.6691129 126.987012,81.6157486 126.987012,74.170273 C126.987012,66.7271175 130.80106,60.6691129 135.487012,60.6691129 C140.175069,60.6691129 143.987012,66.7271175 143.987012,74.170273 C143.987012,81.6157486 140.175069,87.6691129 135.487012,87.6691129" id="Fill-1" fill="#FFFFFF"></path>
                <path d="M42.2719038,583.483502 L23.5716262,604.126614 L71.5716262,646.808905 C71.5716262,646.808905 63.6411535,624.136928 61.6077549,611.220033 C59.5721723,598.300964 58.6220881,589.317851 58.6220881,589.317851 C58.6220881,589.317851 51.3031637,585.003521 49.3964431,583.483502 C47.4875383,581.965659 42.2719038,583.483502 42.2719038,583.483502" id="Fill-3" fill="#1B1C1C"></path>
                <path d="M56.5115,562.305153 L44.5225756,581.864928 C44.5225756,581.864928 48.2719463,582.08392 49.0943159,583.715831 C49.9144199,585.349848 50.0322249,588.94637 51.0856735,590.582493 C52.1413875,592.214405 55.0729197,593.305153 55.0729197,593.305153 L71.5225756,569.915125 L56.5115,562.305153 Z" id="Fill-5" fill="#FFFFFF"></path>
                <path d="M46.2061801,581.126193 C47.5070507,581.428611 49.1203014,582.074785 49.7472012,583.43893 C50.1580025,584.337482 50.384799,585.568911 50.6222935,586.874313 C50.8619275,588.188417 51.1336554,589.680927 51.5765505,590.425006 C52.0387019,591.212598 53.1277531,591.926218 53.9621931,592.370055 L68.2867467,570.082493 L56.1616914,563.355322 L46.2061801,581.126193 Z M54.8094707,595.252817 L53.9493556,594.902534 C53.6284171,594.77417 50.791321,593.577552 49.6359426,591.610746 C48.9833677,590.507681 48.6838251,588.873753 48.3971201,587.292041 C48.193859,586.186801 47.9863188,585.044575 47.6974742,584.415806 C47.3808149,583.726119 45.5086739,583.236593 44.3340391,583.16262 L42.5239461,583.04731 L55.2972971,560.252817 L71.5239461,569.255739 L54.8094707,595.252817 Z" id="Fill-7" fill="#1B1C1C"></path>
                <path d="M139.506643,591.590646 L121.345797,620.363509 L188.345797,653.432965 C188.345797,653.432965 171.40479,633.123629 167.361088,625.572178 C163.315215,618.020726 160.061587,601.433465 160.061587,601.433465 C160.061587,601.433465 156.48889,595.887239 151.937284,592.241171 C147.387847,588.595103 139.506643,591.590646 139.506643,591.590646" id="Fill-9" fill="#1B1C1C"></path>
                <path d="M148.404175,572.370777 L138.970953,594.412477 C138.970953,594.412477 143.535054,593.673744 144.950261,596.337406 C146.367712,599.003179 145.421249,602.262049 147.468927,605.075569 C149.514362,607.889089 154.863443,609.370777 154.863443,609.370777 L169.970953,579.30643 L148.404175,572.370777 Z" id="Fill-11" fill="#FFFFFF"></path>
                <path d="M142.46694,592.759434 C144.074615,592.825217 146.290096,593.328134 147.308636,595.411954 C147.978673,596.782776 148.144627,598.225747 148.304357,599.619912 C148.491055,601.213546 148.663232,602.722299 149.561456,604.061291 C150.675419,605.727073 153.285039,606.998161 154.896863,607.61779 L167.909699,579.465004 L150.144368,573.255986 L142.46694,592.759434 Z M156.081357,610.39763 L155.166538,610.119646 C154.948724,610.053864 149.810386,608.48145 147.717296,605.351477 C146.512059,603.547763 146.288021,601.603997 146.088877,599.887286 C145.945742,598.635296 145.806756,597.444845 145.313044,596.432644 C144.398225,594.561026 141.004474,595.104262 140.969209,595.110628 L138.996436,595.458638 L148.862376,570.39763 L170.996436,578.132378 L156.081357,610.39763 Z" id="Fill-13" fill="#1B1C1C"></path>
                <g id="Group-17" transform="translate(256.224356, 223.678350)">
                    <mask id="mask-2" fill="white">
                        <use xlink:href="#path-1"></use>
                    </mask>
                    <g id="Clip-16"></g>
                    <polygon id="Fill-15" fill="#FF4D00" mask="url(#mask-2)" points="34.0190281 0.11034386 18.0684663 34.7585544 0.128466292 75.6241684 95.4396461 122.755046 129.978747 64.8100632 87.4446461 44.0324491 87.1028483 24.6057825"></polygon>
                </g>
                <path d="M243.854249,258.832438 C243.854249,258.832438 251.924522,257.603182 254.328432,255.970643 C256.734517,254.335947 264.835218,252.075841 267.747732,251.950758 C270.660246,251.82352 277.493787,250.945787 277.493787,250.945787 L273.444523,258.832438 C273.444523,258.832438 284.077373,260.238535 287.62238,260.238535 C291.165215,260.238535 295.342716,258.355832 296.735941,261.120581 C298.129166,263.883173 288.498308,286.389349 282.67328,290.284151 C276.850425,294.178954 268.254162,279.708232 262.050942,277.320887 C255.847721,274.935698 241.872001,275.681878 241.872001,275.681878 L243.854249,258.832438 Z" id="Fill-18" fill="#FFFFFF"></path>
                <path d="M244.485716,260.496006 L243.695543,257.911337 C243.695543,257.911337 251.061162,255.388262 256.865813,253.460596 C262.707065,251.523806 276.656743,249.593859 277.246682,249.511733 C277.933508,249.395389 278.592344,249.938329 278.684926,250.684302 C278.775355,251.425711 278.277998,252.107809 277.578253,252.205903 C277.436151,252.224153 263.260402,254.188319 257.632302,256.056672 C251.836264,257.977494 244.485716,260.496006 244.485716,260.496006" id="Fill-20" fill="#1B1C1C"></path>
                <path d="M283.549728,259.619173 C283.337475,259.619173 283.125223,259.616824 282.908549,259.616824 C275.150286,259.583925 269.859455,258.441889 269.638359,258.394892 C268.92643,258.237451 268.468761,257.499592 268.614684,256.742935 C268.756186,255.986277 269.448217,255.476356 270.16899,255.654946 C270.219842,255.664345 275.444344,256.787582 282.919604,256.82048 C290.330746,256.82048 295.057781,256.240063 295.104212,256.235363 C295.807297,256.143718 296.483851,256.679488 296.576712,257.445545 C296.669572,258.211602 296.156629,258.911863 295.435856,259.010557 C295.250135,259.036406 290.876853,259.619173 283.549728,259.619173" id="Fill-22" fill="#1B1C1C"></path>
                <path d="M289.540858,269.581356 C287.649325,269.581356 285.243882,269.456936 282.274865,269.091294 C273.395886,267.999444 268.174735,265.597374 267.954488,265.495806 C267.293747,265.188565 266.974173,264.310006 267.233287,263.535555 C267.49672,262.756025 268.258947,262.385303 268.902414,262.684927 C268.954237,262.70778 274.04799,265.041292 282.540457,266.084897 C290.916323,267.118346 294.513691,266.128063 294.550399,266.122985 C295.239211,265.922389 295.930182,266.417531 296.105084,267.224992 C296.275668,268.034992 295.861085,268.850071 295.172273,269.053206 C295.066468,269.086215 293.334722,269.581356 289.540858,269.581356" id="Fill-24" fill="#1B1C1C"></path>
                <path d="M295.378852,277.67575 C295.187842,277.67575 290.633514,277.662552 284.100044,276.630908 C277.458411,275.588266 270.768451,272.286567 270.487689,272.145789 C269.815701,271.813639 269.55335,271.023959 269.903152,270.381656 C270.252953,269.739354 271.081432,269.490791 271.748817,269.822941 C271.817856,269.853736 278.344423,273.071848 284.5442,274.0485 C290.842935,275.04055 295.332826,275.058147 295.378852,275.058147 C296.135989,275.058147 296.748143,275.641058 296.748143,276.364749 C296.748143,277.088439 296.135989,277.67575 295.378852,277.67575" id="Fill-26" fill="#1B1C1C"></path>
                <path d="M289.979815,288.454072 C289.837016,288.454072 286.409854,288.421165 279.439093,285.523422 C272.593555,282.679879 266.995856,278.667173 266.760788,278.496831 C266.202775,278.094205 266.12149,277.368318 266.578445,276.87665 C267.0354,276.381111 267.859237,276.313361 268.41725,276.715987 C268.472172,276.752765 274.010555,280.719015 280.555117,283.438673 C286.893172,286.075097 289.96224,286.150589 289.988602,286.150589 C290.706988,286.160267 291.28697,286.679035 291.282601,287.310073 C291.273788,287.943047 290.698201,288.454072 289.979815,288.454072" id="Fill-28" fill="#1B1C1C"></path>
                <path d="M277.996413,290.432835 C277.765206,290.432835 277.533998,290.375518 277.324399,290.248145 L272.918489,287.596672 C271.155261,286.53311 269.428766,285.119274 267.605035,283.622646 C264.806775,281.329938 261.911277,278.958685 258.825628,277.871772 C253.747703,276.086432 240.689875,275.961182 240.558065,275.961182 C239.847155,275.956936 239.27886,275.385882 239.283157,274.687456 C239.287503,273.993275 239.864442,273.432835 240.568869,273.432835 L240.579673,273.432835 C241.135003,273.437081 254.210119,273.564454 259.694277,275.492026 C263.209929,276.727541 266.280453,279.245273 269.25374,281.682336 C271.004003,283.119524 272.65703,284.473919 274.262518,285.441951 L278.668428,288.089179 C279.275618,288.454314 279.463609,289.235533 279.094109,289.827815 C278.849937,290.218425 278.428577,290.432835 277.996413,290.432835" id="Fill-30" fill="#1B1C1C"></path>
                <polygon id="Fill-32" fill="#FF4D00" points="281.388473 101.741051 297.317386 116.49513 370.039004 46.7593293 315.158645 0.495129918 283.895964 33.1551752 266.6958 31.4510967 239.039004 63.9381057 265.713371 86.8665045"></polygon>
                <path d="M251.284121,103.792745 C251.284121,103.792745 254.756089,95.1665072 257.021073,85.3388063 C259.283898,75.5111054 260.037453,67.5170987 260.037453,67.5170987 C260.037453,67.5170987 264.187405,67.1233607 265.318817,72.8921851 C266.450229,78.6565097 265.785201,86.6077677 265.785201,86.6077677 L280.284121,100.933082 L265.228131,114.511418 L251.284121,103.792745 Z" id="Fill-34" fill="#FFFFFF"></path>
                <path d="M252.843244,103.284129 C252.70998,103.284129 252.574633,103.260663 252.439287,103.215864 C251.793788,102.98547 251.448133,102.26442 251.673017,101.600969 C251.725073,101.44524 256.982768,85.7634776 257.92603,80.7801289 C258.271684,78.9497723 258.352892,76.7567575 258.4341,74.6362744 C258.592352,70.386775 258.717287,67.0332544 260.953629,66.3975361 C262.05306,66.0860768 263.300331,66.4210022 264.466394,67.3425804 C266.236311,68.7462805 267.997899,71.7584759 267.943761,75.3381244 C267.88754,79.1908332 268.014557,83.9821865 268.05412,85.3197548 C268.764169,86.4290619 271.03591,90.1751065 271.485677,93.279033 C272.010406,96.9162802 270.627788,100.71139 270.569485,100.87352 C270.325861,101.526304 269.609565,101.850563 268.972395,101.609502 C268.33106,101.362042 268.010393,100.628192 268.249852,99.9711412 C268.262346,99.9412753 269.461725,96.6240205 269.034863,93.6480909 C268.668386,91.1372171 266.579883,87.5959676 265.805284,86.4397283 C265.67202,86.2434663 265.597059,86.0066719 265.586648,85.7634776 C265.584565,85.7080123 265.39508,79.860684 265.465877,75.2997254 C265.503357,72.611789 264.189454,70.3355762 262.950512,69.3521328 C262.442442,68.9532089 261.940618,68.7612135 261.615787,68.8422782 C261.111881,69.315867 260.99111,72.5733899 260.911984,74.7322721 C260.828694,76.9508863 260.743322,79.242032 260.360187,81.2643841 C259.383609,86.422662 254.232109,101.775899 254.015554,102.428683 C253.838563,102.955604 253.359644,103.284129 252.843244,103.284129" id="Fill-36" fill="#1B1C1C"></path>
                <path d="M267.700215,115.013536 C267.352424,115.013536 267.006717,114.860743 266.763055,114.559588 C266.313218,114.008206 266.369448,113.175599 266.88801,112.699507 L281.409823,99.3357119 C281.926302,98.8596198 282.709351,98.9171937 283.157105,99.4685748 C283.604859,100.019956 283.54863,100.850349 283.030068,101.328656 L268.510337,114.690236 C268.275006,114.90946 267.987611,115.013536 267.700215,115.013536" id="Fill-38" fill="#1B1C1C"></path>
                <path d="M178.646478,151.043041 C178.646478,151.043041 183.772553,143.847657 173.074276,133.986834 C162.373812,124.12601 151.929214,127.664012 144.288212,118.814666 C136.645024,109.967492 135.829313,102.715673 135.829313,102.715673 L120.853474,53.8391554 C120.853474,53.8391554 134.099481,56.1160658 134.609027,51.5644156 C135.118573,47.0127655 133.080389,44.9898099 133.080389,44.9898099 C133.080389,44.9898099 136.544426,42.9668543 136.148599,39.1748978 C135.754958,35.3829413 131.678591,33.1082015 131.678591,33.1082015 C131.678591,33.1082015 135.396308,30.8312912 136.148599,27.5450736 C136.90089,24.258856 136.148599,22.3617924 136.148599,22.3617924 C136.148599,22.3617924 136.008638,29.6939213 122.126245,28.0508125 C108.243853,26.4077037 103.021554,19.5813138 80.0963614,26.6594878 C57.1689821,33.7398325 41.6311121,62.4367168 40.8678866,83.1676707 C40.1024743,103.898625 40.3583407,123.114532 38.3201571,128.929445 C36.2819734,134.744357 22.2727411,144.587816 20.2323705,151.043041 C18.1963738,157.500437 31.6960602,170.141739 31.4401938,173.933695 C31.1865143,177.725652 19.7250115,188.849737 11.8281433,192.895648 C3.93127503,196.94156 0.873999543,196.43365 0.873999543,196.43365 C0.873999543,196.43365 8.60029018,199.891341 14.0347176,200.479561 C19.4691451,201.069952 23.6308012,198.795212 23.6308012,198.795212 C23.6308012,198.795212 22.8653889,201.069952 26.3469215,202.67182 C29.8284541,204.271518 39.4223508,201.069952 39.4223508,201.069952 C39.4223508,201.069952 41.1827991,205.782223 45.694358,203.930741 C50.2081038,202.08143 178.646478,151.043041 178.646478,151.043041" id="Fill-40" fill="#1B1C1C"></path>
                <path d="M139.428114,337.901501 C139.428114,337.901501 249.673424,400.485362 257.206232,422.136607 C264.739041,443.785674 218.517093,509.752269 203.795379,532.080932 C189.073665,554.407417 172.639048,580.796233 172.639048,580.796233 L145.587513,571.660889 C145.587513,571.660889 149.015526,564.5578 150.040622,557.114912 C151.067924,549.674202 140.797115,524.977843 158.259033,504.004016 C175.718748,483.030189 189.073665,466.114337 194.207968,454.273676 C199.344475,442.433015 198.729417,434.652508 198.729417,434.652508 C198.729417,434.652508 179.827953,433.975089 163.737239,432.284811 C147.644321,430.594533 139.428114,429.241874 139.428114,429.241874 C139.428114,429.241874 150.040622,463.406842 147.98602,478.292618 C145.933621,493.178393 69.9243425,572.338307 69.9243425,572.338307 L51.0934233,562.190103 C51.0934233,562.190103 53.831424,552.88486 52.9760743,541.553896 C52.1207247,530.220755 58.9679308,508.739409 73.5198973,498.589026 C88.0718637,488.440822 95.2607688,480.997934 97.1434198,474.739984 C99.0260708,468.482033 64.6180884,441.590054 52.2926764,406.743312 C39.9672645,371.898748 36.0300107,330.796233 36.0300107,330.796233 L139.428114,337.901501 Z" id="Fill-42" fill="#473FF4"></path>
                <path d="M268.269643,113.709839 L263.172215,122.592575 C263.172215,122.592575 263.852601,132.157246 260.455045,136.257647 C257.057488,140.355849 222.399351,181.696431 205.750669,190.579168 C189.101987,199.461905 157.504494,198.436804 157.504494,198.436804 C157.504494,198.436804 158.863079,202.196239 160.221664,211.078975 C161.580249,219.961712 157.504494,229.869549 157.504494,229.869549 C157.504494,229.869549 219.343082,241.825387 228.855364,244.557522 C238.369835,247.294056 239.050221,253.783425 239.050221,253.783425 L245.164947,256.517759 L242.786877,277.015367 L232.252921,279.747502 C232.252921,279.747502 220.362568,290.339472 194.877614,291.70554 C169.394847,293.071607 144.931567,286.923204 144.931567,286.923204 C144.931567,286.923204 149.00951,309.471013 147.648737,315.280648 C146.290152,321.085884 139.15594,324.504352 139.15594,324.504352 L139.15594,337.828457 C139.15594,337.828457 124.883141,346.370227 87.8491204,342.269825 C50.8151003,338.169424 36.5444887,330.652754 36.5444887,330.652754 L34.1642303,320.062984 C34.1642303,320.062984 22.6129764,315.621615 22.2738771,295.464974 C21.93259,275.308333 42.3201156,209.028775 48.4348419,194.336403 C54.5517559,179.64843 60.4980264,139.673915 71.3710817,133.86648 C82.2419492,128.056844 87.3393776,136.512822 87.3393776,136.512822 L118.939058,140.355849 C118.939058,140.355849 136.436582,152.316087 159.541278,151.97512 C182.645973,151.629753 188.4216,145.140384 191.821344,146.506451 C195.216713,147.872518 200.314141,143.090183 203.372598,139.330749 C206.431055,135.573514 234.504103,107.814412 237.818525,106.406548 C241.13076,104.996485 245.079626,105.126273 245.079626,105.126273 L250.303943,100.383534 L268.269643,113.709839 Z" id="Fill-44" fill="#FFCE00"></path>
                <path d="M121.291691,51.3642772 C121.291691,51.3642772 137.035893,79.3087864 136.527945,95.2069582 C136.019998,111.102929 133.238275,119.306236 128.915268,123.151467 C124.592262,126.996699 118.499068,126.996699 118.499068,126.996699 L120.020732,140.328448 C120.020732,140.328448 128.655844,154.173042 124.339378,157.50763 C120.020732,160.840017 104.531594,143.405514 99.4521156,140.585971 C94.3748175,137.766428 88.5345078,136.483217 88.5345078,136.483217 C88.5345078,136.483217 89.8032873,129.048076 88.5345078,121.612935 C87.2657283,114.177794 85.4868209,112.126416 85.4868209,112.126416 C85.4868209,112.126416 70.7585146,120.074402 67.4579438,108.281185 C64.1573731,96.4879683 70.2505668,89.8231941 77.8697839,90.8466815 C85.4868209,91.8723701 88.5345078,90.8466815 92.8509741,86.7439275 C97.1674405,82.6433745 106.563385,69.0541024 107.834344,60.5932727 C109.103124,52.1346441 107.579281,43.929136 107.579281,43.929136 C107.579281,43.929136 113.672474,49.8279455 121.291691,51.3642772" id="Fill-46" fill="#FFFFFF"></path>
                <path d="M137.650889,430.546776 C137.538444,430.546776 137.419512,430.531383 137.304905,430.498398 C136.881074,430.377452 94.6991294,418.315875 71.1354521,403.019553 C47.2776884,387.534115 35.4601701,332.464275 34.9671428,330.128925 C34.8179372,329.423042 35.2612293,328.723756 35.9575222,328.574224 C36.6646272,328.429089 37.3349713,328.873289 37.4863393,329.581371 C37.6052713,330.144318 49.5719952,385.917842 72.517226,400.811745 C95.760868,415.901361 137.577367,427.855186 137.999035,427.976132 C138.682354,428.171844 139.082398,428.89312 138.889944,429.590206 C138.732089,430.168546 138.215275,430.546776 137.650889,430.546776" id="Fill-48" fill="#1B1C1C"></path>
                <path d="M179.006354,572.851265 C178.836442,572.851265 178.666531,572.817959 178.501033,572.749128 L149.12623,560.39276 C148.457618,560.110772 148.142068,559.335863 148.422311,558.66309 C148.702555,557.985877 149.477086,557.672804 150.136871,557.954792 L179.511675,570.31116 C180.182493,570.590927 180.498043,571.368057 180.2178,572.038609 C180.008169,572.547074 179.520501,572.851265 179.006354,572.851265" id="Fill-50" fill="#1B1C1C"></path>
                <path d="M79.1544343,567.723712 C78.925224,567.723712 78.6892056,567.668038 78.48042,567.545555 L53.1833257,553.197233 C52.5365444,552.832011 52.3141424,552.021396 52.6885947,551.386712 C53.0675859,550.752028 53.8959199,550.536012 54.5336237,550.901234 L79.830718,565.251783 C80.4774993,565.617005 80.6999013,566.425392 80.3231796,567.060077 C80.0735446,567.485427 79.619663,567.723712 79.1544343,567.723712" id="Fill-52" fill="#1B1C1C"></path>
                <path d="M91.3385099,330.542963 C67.2718594,330.542963 36.0343827,322.011214 35.7232698,321.923363 C35.0379511,321.735403 34.6419892,321.059156 34.846497,320.415597 C35.044478,319.769995 35.7711333,319.404291 36.4521007,319.592251 C36.761038,319.678058 67.6504164,328.111741 91.3385099,328.111741 C115.096223,328.111741 140.007012,323.735542 140.257208,323.690595 C140.944702,323.572099 141.638723,323.997052 141.76926,324.658998 C141.904148,325.318901 141.440742,325.95633 140.738019,326.078913 C140.487823,326.125903 115.335541,330.542963 91.3385099,330.542963" id="Fill-54" fill="#1B1C1C"></path>
                <path d="M157.647961,231.278053 C156.206805,231.278053 146.118715,230.759904 133.672173,217.014732 C124.147068,206.494329 114.998012,187.307494 108.318266,173.295596 C105.859824,168.140336 103.738304,163.691247 102.105863,160.744135 C96.2216876,150.14284 91.5026091,145.566946 91.4526142,145.518848 C90.9396237,145.024748 90.9157131,144.200518 91.4091405,143.682369 C91.9069152,143.159847 92.7198748,143.144543 93.2350391,143.632084 C93.4371922,143.824477 98.2627814,148.481264 104.364326,159.47609 C106.038066,162.495349 108.176976,166.977233 110.650634,172.169659 C117.262996,186.037263 126.31641,205.02296 135.587193,215.261331 C147.968524,228.936542 157.589271,228.731032 157.702303,228.674188 C158.406578,228.602041 159.019558,229.205455 159.052164,229.922557 C159.078248,230.637472 158.523957,231.245259 157.808814,231.275867 C157.787077,231.275867 157.730561,231.278053 157.647961,231.278053" id="Fill-56" fill="#1B1C1C"></path>
                <path d="M145.290874,289.270909 C145.229542,289.270909 145.170401,289.26431 145.10907,289.257711 C144.259191,289.13893 124.043911,286.156216 103.561402,266.355041 C83.1380332,246.619856 63.4769268,182.674071 62.6489524,179.964113 C62.4386732,179.273425 62.8263755,178.538745 63.5141638,178.32538 C64.2129041,178.120813 64.9335485,178.510149 65.1438277,179.196438 C65.3431549,179.854131 85.4335813,245.203287 105.368489,264.469948 C125.202637,283.637626 145.266779,286.637938 145.466106,286.664334 C146.180179,286.763317 146.679592,287.42321 146.578834,288.140293 C146.486837,288.793587 145.930473,289.270909 145.290874,289.270909" id="Fill-58" fill="#1B1C1C"></path>
                <path d="M157.974019,200.238602 C157.363002,200.238602 156.815044,199.800527 156.701973,199.178113 C156.61717,198.716182 156.7933,198.265095 157.123814,197.97666 C157.215141,197.174245 156.862882,193.047231 146.412537,176.48062 C132.809259,154.921688 128.466908,151.722873 128.290778,151.599257 C127.712378,151.191544 127.560167,150.395635 127.95374,149.814427 C128.345139,149.226712 129.127936,149.061892 129.719383,149.44575 C130.184713,149.745029 134.666228,153.015411 148.600021,175.103503 C161.240024,195.133509 159.909268,198.150155 159.470032,199.141245 C159.217797,199.718117 158.74377,200.119324 158.208858,200.216915 C158.130579,200.229927 158.052299,200.238602 157.974019,200.238602 L157.974019,200.238602 Z" id="Fill-60" fill="#1B1C1C"></path>
                <path d="M138.678436,263.666164 C138.498708,263.666164 138.316762,263.648172 138.134815,263.61219 C134.440412,262.890286 135.465526,256.948636 136.654835,250.066938 C137.265022,246.551874 138.170317,241.311888 137.453625,239.89057 C135.991396,240.257144 131.875409,244.784222 129.374753,247.532404 C124.475508,252.916321 121.406823,256.258218 119.030423,256.033325 C118.324825,255.983849 117.710201,255.619524 117.306368,255.019062 C114.481758,250.822575 126.161842,239.420545 133.375359,232.997626 C133.923417,232.511859 134.75549,232.565833 135.241421,233.121317 C135.720695,233.679049 135.667442,234.524644 135.119383,235.010411 C126.383728,242.78718 119.132491,251.290351 119.432037,253.325624 C120.931987,252.862347 124.970314,248.422976 127.433249,245.717524 C132.285898,240.378585 135.345707,237.052431 137.702137,237.189615 C138.385547,237.216602 138.993514,237.522456 139.415098,238.057699 C140.946112,239.996269 140.375865,244.062318 139.259778,250.530215 C138.773847,253.327873 137.489127,260.760558 138.634059,260.980952 C140.821856,259.310003 142.011165,249.909513 142.230832,243.738474 C142.257459,242.998579 142.960838,242.425104 143.597651,242.447593 C144.327656,242.476829 144.900122,243.095282 144.873496,243.832928 C144.778085,246.522638 144.116864,260.074637 140.513434,262.982492 C139.954281,263.434525 139.328562,263.666164 138.678436,263.666164 L138.678436,263.666164 Z" id="Fill-62" fill="#1B1C1C"></path>
                <path d="M70.2734373,309.026882 C70.0773413,309.026882 69.8834002,308.983088 69.6959238,308.88893 C68.730528,308.394052 65.4723172,305.604344 64.9723801,303.681766 C64.7762841,302.924122 64.9809997,302.387639 65.1900251,302.06794 C65.8558896,301.051908 66.7350894,301.062856 76.9363922,302.262825 C81.2828281,302.773031 87.8337281,303.537244 91.438878,303.598557 C88.6138024,302.175236 83.5066863,300.031496 78.8477896,298.071694 C64.6556096,292.104696 54.4543068,287.635469 52.4567133,284.445041 C51.9890997,283.698346 51.961086,282.879389 52.3769819,282.196195 C54.122452,279.336415 66.3148836,279.583854 98.9788777,283.133397 C100.269664,283.273539 101.454859,283.402733 102.463353,283.510029 C93.6131734,276.68028 62.0567986,256.703429 59.5700425,255.591049 C59.0205427,255.442148 58.6175761,254.934132 58.6175761,254.329768 C58.6175761,253.609349 59.1907799,253.026882 59.8997424,253.026882 C62.4102024,253.026882 105.456511,281.556796 106.90245,284.175705 C107.128714,284.587373 107.156728,285.318741 106.913224,285.719461 C106.78393,285.938433 106.46716,286.444259 105.531933,286.413603 C104.697986,286.376378 102.314665,286.117991 98.7052052,285.72384 C88.8249827,284.653065 59.4989308,281.464827 54.9068361,283.409302 C57.5509,286.297548 70.8768097,291.901051 79.8282697,295.660807 C93.817889,301.542406 95.7745394,302.573766 95.9275374,304.156936 C95.9749452,304.636486 95.6430904,305.310921 95.2508984,305.578067 C93.5980891,306.690447 88.0470633,306.189 76.6433256,304.853269 C73.6027598,304.496344 70.0040747,304.075917 68.0495792,303.962051 C68.8684417,304.964944 70.2863667,306.27002 70.8509509,306.561253 C71.4844919,306.883143 71.7366153,307.664874 71.4176899,308.310843 C71.1957351,308.766305 70.7432058,309.026882 70.2734373,309.026882" id="Fill-64" fill="#1B1C1C"></path>
                <path d="M232.296752,281.169791 C232.192029,281.169791 232.085212,281.156402 231.980489,281.125161 C231.312359,280.937715 230.916507,280.212479 231.090347,279.505094 L237.595717,253.164503 C237.771651,252.457118 238.464915,252.021976 239.118384,252.216117 C239.786515,252.403562 240.182366,253.131031 240.008527,253.838415 L233.503156,280.179006 C233.356545,280.774816 232.849687,281.169791 232.296752,281.169791" id="Fill-66" fill="#1B1C1C"></path>
                <path d="M264.754721,125.032986 C264.439743,125.032986 264.128992,124.914703 263.88166,124.669375 L246.399296,107.27734 C245.89829,106.777921 245.883493,105.952128 246.365473,105.432995 C246.847454,104.913863 247.644413,104.89853 248.145419,105.395758 L265.627782,122.789983 C266.128788,123.289402 266.143586,124.115195 265.661605,124.632137 C265.414273,124.89718 265.084497,125.032986 264.754721,125.032986" id="Fill-68" fill="#1B1C1C"></path>
                <path d="M133.103003,110.240832 C132.936208,110.240832 132.767274,110.205882 132.604756,110.135981 C131.95682,109.854195 131.655305,109.091843 131.931159,108.432158 C131.954682,108.373179 134.554978,101.616863 131.845623,84.1766974 C129.104193,66.5399372 119.010938,53.4816572 118.910433,53.3527782 C118.472061,52.7892058 118.559736,51.9722441 119.109305,51.5222599 C119.663151,51.0788289 120.460774,51.1683888 120.899147,51.7275925 C121.331104,52.280243 131.516309,65.4608488 134.360383,83.7704009 C137.210872,102.10835 134.394597,109.157375 134.272709,109.447899 C134.067422,109.941571 133.596974,110.240832 133.103003,110.240832" id="Fill-70" fill="#1B1C1C"></path>
                <path d="M72.9179653,101.675814 C72.4321255,101.675814 71.9862725,101.312622 71.8163286,100.70813 C71.7743424,100.558873 71.4204591,99.1956578 72.0382554,97.6284579 C72.6060681,96.1732007 73.7816804,95.0637226 75.5271048,94.3248998 C79.7976965,92.5263512 82.9966415,95.0239207 83.1325966,95.1383512 C83.6844147,95.5811474 83.8443619,96.4965912 83.4864799,97.1856617 C83.128598,97.8747321 82.3928406,98.071254 81.8410226,97.6259702 C81.7490529,97.5612921 79.4378151,95.8100083 76.290853,97.1309341 C73.8096712,98.1782217 74.0415947,99.6160655 74.0735842,99.7777607 C74.2415288,100.546435 73.8956429,101.372324 73.2838446,101.606161 C73.1618848,101.650938 73.0399251,101.675814 72.9179653,101.675814" id="Fill-72" fill="#1B1C1C"></path>
                <path d="M78.6273625,107.591828 C77.8802147,107.591828 77.2742961,106.951143 77.2742961,106.275548 C77.2742961,106.135912 77.3768011,105.768339 77.4314705,105.636916 C77.6706489,105.035247 78.3061801,103.435587 76.7367141,101.495049 C74.6820577,98.9507882 72.2857178,97.938423 72.2629389,97.9302091 C71.5841278,97.646829 71.2811685,96.9240044 71.5932394,96.3120676 C71.9030324,95.7021843 72.6957379,95.4188042 73.3813827,95.7021843 C73.5021109,95.7514678 76.4269211,96.9589135 78.9303218,100.053506 C80.5316782,102.037167 80.887029,104.19332 79.9827068,106.462415 C79.9827068,107.135956 79.3767882,107.591828 78.6273625,107.591828" id="Fill-74" fill="#1B1C1C"></path>
                <path d="M116.646955,127.445772 C115.816736,127.445772 114.560654,127.426615 112.689435,127.363397 C108.207113,127.208226 103.337643,125.727389 103.131164,125.664171 C102.464408,125.459191 102.109522,124.811684 102.33966,124.213986 C102.571949,123.622034 103.309683,123.304028 103.967835,123.507092 C104.010852,123.520502 108.691049,124.941952 112.786222,125.083714 C116.840529,125.22356 117.819155,125.148847 117.862172,125.141185 C118.492364,125.0454 119.189231,125.530072 119.262359,126.15459 C119.335487,126.775277 118.840797,127.334662 118.146081,127.407458 C118.085857,127.41129 117.72667,127.445772 116.646955,127.445772" id="Fill-76" fill="#1B1C1C"></path>
                <path d="M121.667503,95.1003988 C120.913142,95.1003988 120.290383,94.4980935 120.269233,93.7381536 C120.248083,92.9664498 120.856742,92.3194422 121.629903,92.3006201 C123.169174,92.253565 124.868249,91.9500596 125.467507,91.6300849 C125.204303,90.3995939 123.075173,85.8587764 121.115245,82.1602452 C120.75099,81.4755935 121.011844,80.6286016 121.695703,80.2662773 C122.381913,79.8992475 123.225575,80.162756 123.58513,80.8450551 C126.917478,87.131617 128.4826,90.9877827 128.245247,92.3053256 C127.852791,94.4745659 124.471093,95.0227579 121.707454,95.1003988 L121.667503,95.1003988 Z" id="Fill-78" fill="#1B1C1C"></path>
                <path d="M126.244789,99.8711832 C126.526565,99.8711832 126.814744,99.9634368 127.066635,100.142178 C127.621647,100.530412 127.649398,101.314567 127.218196,101.814274 C126.582066,102.546537 124.381227,103.19039 120.854763,103.674722 C115.629105,104.395453 112.339588,102.905942 112.202969,102.842517 C111.579648,102.554225 111.334161,101.862323 111.65863,101.301114 C111.983099,100.737983 112.755847,100.520802 113.370631,100.809095 C113.389843,100.818704 116.083789,102.010313 120.472658,101.412587 C124.434594,100.868675 125.31621,100.297856 125.3525,100.272871 C125.587313,100.001876 125.909647,99.8711832 126.244789,99.8711832" id="Fill-80" fill="#1B1C1C"></path>
                <path d="M108.96993,61.8269514 C104.924412,61.8269514 101.5021,67.3021617 101.5021,73.7787 C101.5021,80.2595174 104.924412,85.7325881 108.96993,85.7325881 C113.017574,85.7325881 116.439886,80.2595174 116.439886,73.7787 C116.439886,67.3021617 113.017574,61.8269514 108.96993,61.8269514 M108.96993,88.2808396 C103.456795,88.2808396 98.9709931,81.774347 98.9709931,73.7787 C98.9709931,65.7830529 103.456795,59.2808396 108.96993,59.2808396 C114.485191,59.2808396 118.970993,65.7830529 118.970993,73.7787 C118.970993,81.774347 114.485191,88.2808396 108.96993,88.2808396" id="Fill-82" fill="#1B1C1C"></path>
                <path d="M135.986326,62.2413927 C131.940379,62.2413927 128.51983,67.716603 128.51983,74.1952808 C128.51983,80.6739587 131.940379,86.149169 135.986326,86.149169 C140.032274,86.149169 143.45495,80.6739587 143.45495,74.1952808 C143.45495,67.716603 140.032274,62.2413927 135.986326,62.2413927 M135.986326,88.6952808 C130.472606,88.6952808 125.986326,82.1909279 125.986326,74.1952808 C125.986326,66.1996338 130.472606,59.6952808 135.986326,59.6952808 C141.500047,59.6952808 145.986326,66.1996338 145.986326,74.1952808 C145.986326,82.1909279 141.500047,88.6952808 135.986326,88.6952808" id="Fill-84" fill="#1B1C1C"></path>
                <path d="M117.56888,81.6369128 C117.56888,82.7427085 116.674676,83.6369128 115.56888,83.6369128 C114.464924,83.6369128 113.56888,82.7427085 113.56888,81.6369128 C113.56888,80.531117 114.464924,79.6369128 115.56888,79.6369128 C116.674676,79.6369128 117.56888,80.531117 117.56888,81.6369128" id="Fill-86" fill="#1B1C1C"></path>
                <path d="M133.756297,78.4806895 C133.756297,79.5841377 132.862092,80.4797699 131.756297,80.4797699 C130.652341,80.4797699 129.756297,79.5841377 129.756297,78.4806895 C129.756297,77.3754021 130.652341,76.4797699 131.756297,76.4797699 C132.862092,76.4797699 133.756297,77.3754021 133.756297,78.4806895" id="Fill-88" fill="#1B1C1C"></path>
                <path d="M119.414223,76.0397109 C118.630431,76.0397109 117.984232,75.4705499 117.95229,74.7449263 C117.920349,73.9988946 118.546892,73.3707767 119.355254,73.3390307 L127.429055,73.0397109 C128.259531,73.0986678 128.915558,73.5907313 128.949957,74.3322279 C128.981898,75.0782597 128.352898,75.7086452 127.54945,75.7381236 L119.473192,76.0397109 L119.414223,76.0397109 Z" id="Fill-90" fill="#1B1C1C"></path>
            </g>
        </g>
    </g>
</svg>