<?xml version="1.0" encoding="UTF-8"?>
<svg width="325px" height="436px" viewBox="0 0 325 436" version="1.1" xmlns="http://www.w3.org/2000/svg" xmlns:xlink="http://www.w3.org/1999/xlink">
    <title>Group 19</title>
    <g id="PAGINE-DRAFT" stroke="none" stroke-width="1" fill="none" fill-rule="evenodd">
        <g id="2.0_SIW_come-funziona" transform="translate(-1026.000000, -187.000000)">
            <g id="Group-19" transform="translate(1188.500000, 405.000000) rotate(20.000000) translate(-1188.500000, -405.000000) translate(1087.000000, 211.000000)">
                <polygon id="Fill-1" fill="#34E0A1" points="18.8132584 0.667945148 4.81394935 33.2425802 29.7508987 43.6679451 35.4389278 26.5111612 39.8137766 25.2085051 46.8139493 10.6580624"></polygon>
                <polygon id="Fill-2" fill="#FF4D00" points="0.622071075 127.367272 45.297218 179.75974 83.6220711 144.9778 59.7513997 116.360171 59.7513997 105.13299 42.2310222 85.7597403"></polygon>
                <polygon id="Fill-3" fill="#34E0A1" points="83.919612 203.271891 142.700339 289.613324 201.919612 240.716359 176.478759 207.677982 179.767852 188.954704 151.474373 152.613324"></polygon>
                <g id="Group-18" transform="translate(15.799695, 47.919395)">
                    <path d="M153.76948,127.455291 C153.76948,127.455291 153.240062,139.498777 149.272039,146.521284 C145.306105,153.542752 139.355115,155.517248 140.456763,166.270398 C141.559456,177.024587 152.578029,177.902141 151.035721,188.873639 C149.492369,199.846177 143.762753,205.990092 144.203412,212.793211 C144.645116,219.59633 147.046814,224.700489 147.046814,224.700489 L186.518198,192.384893 L160.95369,159.468318 L164.259679,140.815107 L153.76948,127.455291 Z" id="Fill-4" fill="#FF4D00"></path>
                    <path d="M97.0156852,133.466428 C97.0156852,133.466428 103.212066,143.449119 100.786351,153.323676 C98.3627246,163.199272 89.9390299,159.688018 97.0156852,172.85444 C104.092341,186.020862 108.280693,188.873951 108.280693,196.115847 C108.280693,203.357743 105.483237,209.74496 105.483237,209.74496 L67.9488741,155.078783 L97.0156852,133.466428 Z" id="Fill-6" fill="#FF4D00"></path>
                    <polygon id="Fill-8" fill="#FF4D00" points="141.999698 292.745927 140.32373 302.693266 154.781952 321.566905 125.10323 339.999688 97.3354243 298.889841 131.715209 279.431859"></polygon>
                    <path d="M26.2445368,152.264269 C24.4975626,152.372404 23.0085098,153.545248 22.3579629,155.324269 C21.8149703,156.80904 21.4098143,158.786654 21.4432293,160.945187 C24.4443076,160.865125 26.848094,159.902312 28.4447011,158.600538 C30.0715904,157.277969 30.769127,155.650752 30.1833216,154.552771 C29.4085129,153.100232 28.0499872,152.255951 26.5118563,152.255951 C26.4241421,152.255951 26.3353837,152.258031 26.2445368,152.264269 M28.367429,174.428734 C22.6419898,171.220049 20.5514684,166.467327 20.1828599,162.16378 C16.7442549,161.99222 12.7094023,160.782985 8.31429491,157.934055 C-6.18778418,148.538826 2.8352908,130.333749 2.92822607,130.150752 C3.08381434,129.841945 3.48374926,129.709896 3.80745639,129.858581 C4.13534038,130.005187 4.27630961,130.3743 4.11967713,130.683107 C4.03196294,130.855706 -4.50659558,148.123963 9.06508659,156.917174 C13.1876534,159.587266 16.9437003,160.739315 20.1243838,160.923352 C20.0951457,158.619254 20.5295398,156.51063 21.1101242,154.922924 C21.9350552,152.664575 23.8689443,151.172526 26.1568227,151.02904 C28.3120856,150.907388 30.3148929,152.031364 31.3643305,153.999621 C32.2372955,155.636196 31.4311603,157.810324 29.312445,159.535278 C27.5205694,160.994055 24.8390214,162.082679 21.5111033,162.178336 C21.8818002,166.119009 23.8250872,170.441272 29.0451256,173.365064 C37.9710884,178.365248 51.0958459,174.320599 51.2274172,174.279009 C51.568876,174.172954 51.9468824,174.345554 52.0627904,174.668917 C52.1786984,174.992281 51.9928279,175.342679 51.6471922,175.451853 C51.3057334,175.559988 46.2277085,177.127939 40.1722968,177.127939 C36.3097399,177.127939 32.0493365,176.489529 28.367429,174.428734" id="Fill-10" fill="#1B1C1C"></path>
                    <path d="M180.501005,263.92422 C179.119507,262.854312 177.22321,262.752416 175.553507,263.655963 C174.159478,264.410826 172.540943,265.627339 171.13125,267.265994 C173.433748,269.185382 175.875126,270.0463 177.937454,270.124281 C180.036329,270.204343 181.640245,269.445321 181.931582,268.235046 C182.316898,266.635902 181.859531,265.108502 180.706716,264.0937 C180.64093,264.035474 180.572012,263.979327 180.501005,263.92422 M167.356408,281.936933 C165.198012,275.757676 166.790442,270.817798 169.375922,267.348135 C166.911571,264.954618 164.691567,261.388257 163.292317,256.355841 C158.66957,239.755107 177.534386,232.056758 177.725478,231.980856 C178.048141,231.851927 178.434501,232.017248 178.578603,232.340612 C178.727926,232.667095 178.586956,233.037248 178.264293,233.165138 C178.084688,233.235841 160.204569,240.55052 164.530758,256.087584 C165.84647,260.805994 167.895223,264.145688 170.156996,266.379083 C171.665889,264.635413 173.394068,263.339878 174.884165,262.531988 C177.003924,261.384098 179.445302,261.540061 181.257018,262.940612 C182.952826,264.270459 183.705706,266.43315 183.184642,268.59896 C182.750248,270.400856 180.701495,271.499878 177.965647,271.395902 C175.652708,271.307523 172.919993,270.357187 170.361663,268.235046 C168.019485,271.434373 166.602483,275.95315 168.570831,281.585505 C171.93843,291.216758 184.463807,296.836636 184.590157,296.892783 C184.916997,297.038349 185.085116,297.41682 184.957721,297.734985 C184.829283,298.05419 184.456497,298.194557 184.125481,298.047951 C183.796553,297.905505 178.949299,295.732416 174.41009,291.740795 C171.515522,289.194434 168.74626,285.907768 167.356408,281.936933" id="Fill-12" fill="#1B1C1C"></path>
                    <path d="M86.4206467,57.753107 C86.4383984,57.753107 86.4540616,57.7520673 86.4728575,57.7499878 C86.8143163,57.7229541 87.0691052,57.4245443 87.0409113,57.0824648 C87.0315134,56.962893 85.9549261,44.8954924 76.9924157,28.7366544 C68.0090209,12.5393456 47.0401089,0.757877676 46.8302214,0.639345566 C46.5315755,0.47506422 46.1525249,0.581119266 45.9833618,0.878489297 C45.8162872,1.17689908 45.9248857,1.55433028 46.2235316,1.72069113 C46.4302865,1.83714373 67.0953315,13.4522508 75.9043421,29.3365933 C84.7384139,45.2635657 85.7920284,57.0679083 85.8024705,57.1843609 C85.8296201,57.5077248 86.1011164,57.753107 86.4206467,57.753107" id="Fill-14" fill="#1B1C1C"></path>
                    <path d="M86.1544759,220.13981 C86.1690949,220.131492 86.1847582,220.123174 86.2014657,220.116936 C86.5126422,219.975529 86.8812506,220.112777 87.0232641,220.423664 C87.0733865,220.533878 92.0281939,231.598954 92.0908468,250.057731 C92.1545441,268.561217 79.5884424,289.011125 79.4620922,289.215957 C79.2814427,289.503969 78.8992595,289.595468 78.6058347,289.41767 C78.313454,289.237792 78.2236514,288.856202 78.4032566,288.56507 C78.5285626,288.363358 90.909838,268.206661 90.847185,250.06085 C90.7855762,231.866171 85.9404115,221.042318 85.8913333,220.935223 C85.7576736,220.639933 85.8746259,220.293694 86.1544759,220.13981" id="Fill-16" fill="#1B1C1C"></path>
                </g>
            </g>
        </g>
    </g>
</svg>