<?xml version="1.0" encoding="UTF-8"?>
<svg width="269px" height="235px" viewBox="0 0 269 235" version="1.1" xmlns="http://www.w3.org/2000/svg" xmlns:xlink="http://www.w3.org/1999/xlink">
    <title>Group 26</title>
    <defs>
        <polygon id="path-1" points="0 179 226.748222 179 226.748222 0.190986607 0 0.190986607"></polygon>
    </defs>
    <g id="PAGINE-DRAFT" stroke="none" stroke-width="1" fill="none" fill-rule="evenodd">
        <g id="2.0_SIW_come-funziona" transform="translate(-88.000000, -318.000000)">
            <g id="Group-26" transform="translate(222.500000, 435.500000) rotate(16.000000) translate(-222.500000, -435.500000) translate(109.000000, 346.000000)">
                <polygon id="Fill-1" fill="#FFCE00" points="8.52651283e-14 18.7132007 5.41032592 151 104 147.083163 98.5896741 31.6745753 83.560902 16"></polygon>
                <polygon id="Fill-2" fill="#FFCE00" points="119 58.2067539 124.371315 179 213 172.689869 204.644444 63.0148157 196.587074 54"></polygon>
                <g id="Group-25" transform="translate(0.000000, -0.000000)">
                    <path d="M17.6910532,10.1172558 L21.8537856,139.426376 L112.794462,137.353492 L109.518148,25.3937871 L92.4531835,7.74390759 L17.6910532,10.1172558 Z M21.2974757,140.588278 C20.9881482,140.588278 20.7331729,140.342952 20.722782,140.0313 L16.5230009,9.5794567 C16.5184863,9.42762634 16.5752363,9.27979152 16.6791447,9.16871562 C16.7822539,9.05763973 16.9269264,8.99211295 17.0803912,8.9865192 L92.6713912,6.58600134 C92.8408419,6.58600134 92.9911095,6.64433616 93.1022116,6.76180491 L110.499683,24.7553004 C110.599595,24.8583853 110.657145,24.9942335 110.661141,25.1380728 L113.961711,137.896885 C113.966229,138.050314 113.90868,138.198948 113.803173,138.309225 C113.697666,138.4211 113.552993,138.485827 113.400328,138.489823 L21.3110637,140.588278 L21.2974757,140.588278 Z" id="Fill-3" fill="#1D1D1B"></path>
                    <path d="M93.0863856,8.39965491 L90.3671813,26.7511504 L108.858889,24.7126281 L93.0863856,8.39965491 Z M89.6885792,27.9793781 C89.5335158,27.9793781 89.3832482,27.9170478 89.2737447,27.8027754 C89.1506532,27.6749183 89.0931039,27.4967174 89.1202799,27.3209138 L92.1208363,7.07713259 C92.1528081,6.85977545 92.3046743,6.68077545 92.5124912,6.61444955 C92.7275018,6.54652545 92.9505053,6.60565937 93.1023715,6.76148527 L110.499843,24.7557799 C110.652509,24.913204 110.702065,25.1433469 110.627731,25.3503156 C110.552597,25.5556862 110.36716,25.7011237 110.148952,25.7266951 L89.7517236,27.9761817 C89.7301426,27.978579 89.7101602,27.9793781 89.6885792,27.9793781 L89.6885792,27.9793781 Z" id="Fill-5" fill="#1D1D1B"></path>
                    <path d="M131.383444,46.3939232 L136.730732,168.189838 L225.576454,161.971986 L221.408127,57.19945 L206.157563,42.760383 L131.383444,46.3939232 Z M136.182415,169.378111 C136.042539,169.378111 135.90506,169.326968 135.799553,169.232673 C135.683655,169.129588 135.615715,168.983352 135.607722,168.829124 L130.207999,45.8721063 C130.19569,45.5564589 130.440275,45.2879589 130.755197,45.2743741 L206.346996,41.6008786 C206.491669,41.5824991 206.656324,41.648825 206.769824,41.7567045 L222.368081,56.5266018 C222.476785,56.6296866 222.540729,56.7703295 222.547923,56.9213607 L226.747916,162.483414 C226.760211,162.793468 226.52282,163.057173 226.213493,163.079548 L136.22318,169.378111 C136.209592,169.378111 136.196004,169.378111 136.182415,169.378111 L136.182415,169.378111 Z" id="Fill-7" fill="#1D1D1B"></path>
                    <path d="M207.153806,43.7031696 L209.080108,58.4906473 L220.737837,56.5655982 L207.153806,43.7031696 Z M208.586943,59.7300625 C208.464651,59.7300625 208.343957,59.6909062 208.244045,59.6165893 C208.118556,59.5238929 208.036228,59.3840491 208.016246,59.2298214 L205.804594,42.2487946 C205.772623,42.0066652 205.897313,41.7725268 206.113922,41.66225 C206.329732,41.550375 206.593499,41.5887321 206.770144,41.7565446 L222.368401,56.526442 C222.526661,56.675875 222.585809,56.9036205 222.523464,57.1113884 C222.458721,57.3207545 222.282077,57.474183 222.066267,57.5101429 L208.679661,59.7220714 C208.650087,59.7284643 208.618115,59.7300625 208.586943,59.7300625 L208.586943,59.7300625 Z" id="Fill-9" fill="#1D1D1B"></path>
                    <mask id="mask-2" fill="white">
                        <use xlink:href="#path-1"></use>
                    </mask>
                    <g id="Clip-12"></g>
                    <polygon id="Fill-11" fill="#1D1D1B" mask="url(#mask-2)" points="29.3965 42.1736786 100.937468 42.1736786 100.937468 39.3999777 29.3965 39.3999777"></polygon>
                    <polygon id="Fill-13" fill="#1D1D1B" mask="url(#mask-2)" points="30.296507 53.438692 101.837475 53.438692 101.837475 50.6649911 30.296507 50.6649911"></polygon>
                    <polygon id="Fill-14" fill="#1D1D1B" mask="url(#mask-2)" points="30.296507 64.7029062 101.837475 64.7029062 101.837475 61.9292054 30.296507 61.9292054"></polygon>
                    <polygon id="Fill-15" fill="#1D1D1B" mask="url(#mask-2)" points="30.296507 82.959308 101.837475 82.959308 101.837475 80.184808 30.296507 80.184808"></polygon>
                    <polygon id="Fill-16" fill="#1D1D1B" mask="url(#mask-2)" points="31.1965141 94.2243214 102.737482 94.2243214 102.737482 91.4498214 31.1965141 91.4498214"></polygon>
                    <polygon id="Fill-17" fill="#1D1D1B" mask="url(#mask-2)" points="31.1965141 105.488536 102.737482 105.488536 102.737482 102.714036 31.1965141 102.714036"></polygon>
                    <polygon id="Fill-18" fill="#1D1D1B" mask="url(#mask-2)" points="140.832718 71.6942946 212.373687 71.6942946 212.373687 68.9197946 140.832718 68.9197946"></polygon>
                    <polygon id="Fill-19" fill="#1D1D1B" mask="url(#mask-2)" points="141.732725 82.959308 213.273694 82.959308 213.273694 80.184808 141.732725 80.184808"></polygon>
                    <polygon id="Fill-20" fill="#1D1D1B" mask="url(#mask-2)" points="141.732725 94.2243214 213.273694 94.2243214 213.273694 91.4498214 141.732725 91.4498214"></polygon>
                    <polygon id="Fill-21" fill="#1D1D1B" mask="url(#mask-2)" points="145.332754 117.484732 216.873722 117.484732 216.873722 114.710232 145.332754 114.710232"></polygon>
                    <polygon id="Fill-22" fill="#1D1D1B" mask="url(#mask-2)" points="146.232761 128.749746 217.773729 128.749746 217.773729 125.975246 146.232761 125.975246"></polygon>
                    <polygon id="Fill-23" fill="#1D1D1B" mask="url(#mask-2)" points="146.232761 140.01396 217.773729 140.01396 217.773729 137.23946 146.232761 137.23946"></polygon>
                    <path d="M163.479405,34.4268143 C163.162884,34.4268143 162.905511,34.1703009 162.904712,33.8530554 C162.904712,33.7100152 162.677712,19.3716357 145.901293,7.63195268 C129.143257,-4.09654286 111.487613,4.14544821 111.310169,4.23015357 C111.019226,4.36919821 110.678726,4.24613571 110.542845,3.96165357 C110.405367,3.67557321 110.525261,3.33195714 110.811409,3.19451071 C110.993648,3.10660893 129.237574,-5.43504732 146.561511,6.69060446 C163.854275,18.7930821 164.054099,33.7028232 164.054099,33.8514571 C164.054099,34.1703009 163.796726,34.4260152 163.480205,34.4268143 L163.479405,34.4268143 Z" id="Fill-24" fill="#1D1D1B" mask="url(#mask-2)"></path>
                </g>
            </g>
        </g>
    </g>
</svg>