<?xml version="1.0" encoding="UTF-8"?>
<svg width="287px" height="450px" viewBox="0 0 287 450" version="1.1" xmlns="http://www.w3.org/2000/svg" xmlns:xlink="http://www.w3.org/1999/xlink">
    <title>Group 93</title>
    <g id="PAGINE-DRAFT" stroke="none" stroke-width="1" fill="none" fill-rule="evenodd">
        <g id="3.0_SIW_about" transform="translate(-90.000000, -181.000000)">
            <g id="Group-93" transform="translate(90.000000, 181.000000)">
                <polygon id="Fill-1" fill="#34E0A1" points="225 68.0584353 240.314893 76.9833442 268.363145 93 287 64.9415647 243.082365 40"></polygon>
                <g id="Group-92">
                    <path d="M279.141908,68.4714022 C279.467802,68.4714022 279.788707,68.300369 279.959967,67.998155 C280.221015,67.5431734 280.064719,66.9686347 279.612459,66.7095941 L244.129973,46.4064576 C243.679376,46.1490775 243.100749,46.298524 242.839701,46.7551661 C242.580317,47.2068266 242.736612,47.7846863 243.188873,48.0420664 L278.671358,68.345203 C278.821003,68.4315498 278.980624,68.4714022 279.141908,68.4714022" id="Fill-2" fill="#1B1C1C"></path>
                    <path d="M276.526114,72.0340406 C276.852008,72.0340406 277.172913,71.8646679 277.344173,71.5607934 C277.605221,71.1074723 277.448925,70.5312731 276.996664,70.2722325 L241.512517,49.9707565 C241.061919,49.7133764 240.481629,49.8661439 240.223907,50.3194649 C239.964522,50.772786 240.120818,51.3489852 240.573079,51.6063653 L276.055564,71.9095018 C276.205209,71.9941882 276.36483,72.0340406 276.526114,72.0340406" id="Fill-4" fill="#1B1C1C"></path>
                    <path d="M273.721934,75.5415498 C274.047827,75.5415498 274.368733,75.3721771 274.539993,75.0683026 C274.80104,74.6149815 274.644744,74.0387823 274.192484,73.7797417 L238.708336,53.4799262 C238.257738,53.2225461 237.680774,53.3719926 237.419727,53.8269742 C237.160342,54.2802952 237.316638,54.8564945 237.768898,55.1155351 L273.251383,75.4170111 C273.401028,75.5016974 273.56065,75.5415498 273.721934,75.5415498" id="Fill-6" fill="#1B1C1C"></path>
                    <path d="M271.714862,78.6209779 C272.040756,78.6209779 272.359998,78.4499446 272.532921,78.1477306 C272.792306,77.6927491 272.637673,77.1182103 272.18375,76.8591697 L236.701264,56.5576937 C236.250667,56.2986531 235.67204,56.4514207 235.412655,56.9064022 C235.15327,57.3580627 235.309566,57.9359225 235.761827,58.1933026 L271.244312,78.4964391 C271.393957,78.5811255 271.553578,78.6209779 271.714862,78.6209779" id="Fill-8" fill="#1B1C1C"></path>
                    <path d="M239.223614,71.3610332 C239.315063,71.3610332 239.408176,71.3477491 239.499625,71.3211808 L243.134336,70.2152768 C243.633152,70.0608487 243.914152,69.5328044 243.761182,69.0379705 C243.609874,68.5398155 243.082791,68.2575277 242.583975,68.4086347 L239.810554,69.2538376 L236.53998,60.1342804 C236.363732,59.6427675 235.818359,59.39369 235.331182,59.5647232 C234.840679,59.7390775 234.586282,60.2787454 234.760868,60.7719188 L238.33572,70.736679 C238.473726,71.1202583 238.836199,71.3610332 239.223614,71.3610332" id="Fill-10" fill="#1B1C1C"></path>
                    <path d="M234.644644,131.623007 C234.644644,131.623007 244.323348,108.922085 246.789164,101.908063 C249.251656,94.8957011 250.929342,92.5045572 253.516537,88.1988376 C256.10207,83.8914576 261.236555,79.3565867 261.730383,76.7728229 C262.222549,74.189059 244.675845,68.686107 242.951602,71.7613838 C241.225697,74.838321 242.715496,79.486107 242.715496,79.486107 L239.594567,77.3706089 C239.594567,77.3706089 240.346117,83.3600923 240.098372,87.0514207 C239.852289,90.7427491 222.150951,124.320055 222.150951,124.320055 L234.644644,131.623007 Z" id="Fill-12" fill="#FFFFFF"></path>
                    <path d="M234.644644,132.565018 C235.023744,132.565018 235.38123,132.335867 235.524224,131.963911 C235.657241,131.621845 248.732886,97.9133579 251.491342,93.3618819 C254.261437,88.7904797 261.454372,79.6443542 261.527531,79.5530258 C261.850099,79.1412177 261.778602,78.5500738 261.369573,78.2279336 C260.962206,77.9041328 260.368614,77.9738745 260.042721,78.3856827 C259.745093,78.765941 252.706792,87.7128044 249.875176,92.3854982 C247.030259,97.0764576 234.303786,129.886605 233.765064,131.281439 C233.573851,131.76797 233.818271,132.31262 234.303786,132.500258 C234.416851,132.545092 234.531579,132.565018 234.644644,132.565018" id="Fill-14" fill="#1B1C1C"></path>
                    <path d="M253.173351,83.4014391 C253.470979,83.4014391 253.76528,83.2619557 253.94818,82.9979336 L261.179357,72.6379705 C261.478647,72.2095572 261.373896,71.6217343 260.946576,71.3245018 C260.522582,71.0289299 259.928991,71.1269004 259.631363,71.5569742 L252.398523,81.9185978 C252.099233,82.3453506 252.205647,82.9348339 252.632967,83.2320664 C252.795914,83.3466421 252.985464,83.4014391 253.173351,83.4014391" id="Fill-16" fill="#1B1C1C"></path>
                    <path d="M250.960102,80.3123801 C251.327564,80.3123801 251.678398,80.0965129 251.828043,79.7361808 L256.171073,69.4941144 C256.37725,69.0142251 256.15112,68.4612731 255.670593,68.25869 C255.186741,68.0544465 254.63638,68.2769557 254.433528,68.7585055 L250.092162,79.000572 C249.885984,79.4821218 250.110451,80.0334133 250.589315,80.2359963 C250.712357,80.2874723 250.837061,80.3123801 250.960102,80.3123801" id="Fill-18" fill="#1B1C1C"></path>
                    <path d="M246.636028,80.5588007 C246.963584,80.5588007 247.282827,80.3877675 247.45575,80.0822325 C247.540549,79.9344465 247.578791,79.7717159 247.578791,79.6139668 C247.673566,78.8252214 248.935572,71.9407196 249.725365,67.7014207 C249.821803,67.188321 249.48427,66.6934871 248.970489,66.6021587 C248.448395,66.5108303 247.964543,66.8445941 247.869767,67.3543727 C245.502051,80.0573247 245.502051,80.0573247 246.168803,80.4359225 C246.316785,80.5206089 246.476407,80.5588007 246.636028,80.5588007" id="Fill-20" fill="#1B1C1C"></path>
                    <path d="M222.149954,125.261402 C222.492475,125.261402 222.825019,125.073764 222.992954,124.744982 C223.669682,123.413247 239.598557,92.0593727 240.659374,89.5818819 C241.525652,87.5593727 240.893818,82.0663838 240.469824,79.1339114 L242.440149,80.1102952 C242.739439,80.2547601 243.103575,80.2348339 243.38125,80.0505166 C243.66225,79.8645387 243.821871,79.544059 243.800256,79.2069742 L243.309753,71.0339114 C243.278161,70.5125092 242.854167,70.0757934 242.308794,70.1505166 C241.790025,70.1804059 241.390972,70.6287454 241.424226,71.1484871 L241.818291,77.6959041 L239.67338,76.6331734 C239.3558,76.4804059 238.975037,76.5102952 238.689049,76.7228413 C238.40306,76.9337269 238.261729,77.287417 238.32325,77.637786 C238.92183,81.1115867 239.615185,87.2256089 238.92183,88.839631 C237.885954,91.2606642 221.473226,123.566015 221.306954,123.891476 C221.070847,124.35476 221.257072,124.924317 221.722634,125.160111 C221.86064,125.228192 222.00696,125.261402 222.149954,125.261402" id="Fill-22" fill="#1B1C1C"></path>
                    <path d="M222.508769,396.582343 C222.508769,396.582343 212.068538,384.771089 209.386568,380.247841 C206.707923,375.726255 202.93687,362.199686 202.93687,362.199686 L194.049621,356.902638 L190.351728,358.010203 L176.306716,375.819244 L222.508769,396.582343 Z" id="Fill-24" fill="#1B1C1C"></path>
                    <path d="M208.528271,343.976015 L201.21562,366.773247 C201.21562,366.773247 197.768798,366.867897 196.92746,365.199077 C196.087786,363.530258 195.078514,360.473247 194.070904,359.546679 C193.059969,358.61845 191.211022,358.062177 191.211022,358.062177 L194.100833,339.313284 L208.528271,343.976015 Z" id="Fill-26" fill="#FFFFFF"></path>
                    <path d="M194.786373,340.523635 L192.184214,357.411089 C192.877569,357.683413 193.900143,358.156661 194.616776,358.817546 C195.453125,359.584705 196.168095,361.268469 196.858125,362.900756 C197.145776,363.576587 197.418462,364.225849 197.677847,364.738948 C198.015379,365.409797 199.460285,365.745221 200.610888,365.814963 L207.416409,344.603524 L194.786373,340.523635 Z M196.176409,365.660535 C195.900397,365.112565 195.606095,364.42345 195.30348,363.702786 C194.749793,362.395959 194.059764,360.770314 193.517717,360.273819 C192.812722,359.626218 191.449291,359.116439 190.985391,358.976956 C190.558072,358.847435 190.290373,358.384151 190.363533,357.904262 L193.253344,339.15703 C193.296575,338.889686 193.437906,338.653893 193.645746,338.511089 C193.853586,338.366624 194.107983,338.331753 194.342427,338.406476 L208.769864,343.067546 C208.995995,343.138948 209.185545,343.314963 209.293622,343.544114 C209.400036,343.776587 209.418326,344.04559 209.338515,344.293007 L202.025864,367.09024 C201.906149,367.460535 201.593557,367.712934 201.236072,367.721236 C201.184527,367.722897 201.114693,367.722897 201.03322,367.722897 C200.058864,367.722897 197.135799,367.560166 196.176409,365.660535 L196.176409,365.660535 Z" id="Fill-28" fill="#1B1C1C"></path>
                    <path d="M65.3604337,395.369336 L50.9446349,409.027085 L84.8275817,449.998672 C84.8275817,449.998672 80.1453568,429.575978 79.0363213,423.790738 C77.9272858,418.008819 77.4883272,404.817675 77.4883272,404.817675 L71.6438598,394.507528 L65.3604337,395.369336 Z" id="Fill-30" fill="#1B1C1C"></path>
                    <path d="M83.9652941,385.026808 L75.8794775,409.054483 C75.8794775,409.054483 73.6331402,408.810387 72.510803,406.869244 C71.3884657,404.9281 70.937868,400.55928 69.8155308,398.739354 C68.6915308,396.919428 66.220726,395.584373 66.220726,395.584373 L68.3057793,381.43345 L83.9652941,385.026808 Z" id="Fill-32" fill="#FFFFFF"></path>
                    <path d="M69.0139325,382.547491 L67.1666485,395.084391 C68.0179621,395.622399 69.6324651,396.766494 70.5303349,398.222768 C71.1771337,399.270554 71.5811751,400.872952 72.0084947,402.571661 C72.3742935,404.027934 72.7517314,405.534022 73.2405716,406.377565 C73.7876071,407.324059 74.7104178,407.770738 75.3272876,407.973321 L82.8195124,385.714096 L69.0139325,382.547491 Z M75.7945124,409.979225 C75.6880982,409.967601 73.112542,409.665387 71.7807018,407.363911 C71.1588438,406.287897 70.744826,404.645646 70.3457728,403.059852 C69.9716604,401.580332 69.5892343,400.049336 69.0987314,399.257269 C68.1193882,397.666494 65.8580864,396.427749 65.836471,396.416125 C65.5006012,396.233469 65.3110509,395.838266 65.3709089,395.436421 L67.4559621,381.285498 C67.492542,381.03476 67.623897,380.80893 67.8184355,380.666125 C68.012974,380.521661 68.2540686,380.471845 68.485187,380.521661 L84.1447018,384.116679 C84.3874592,384.173137 84.5986249,384.340849 84.7183408,384.576642 C84.8413822,384.810775 84.8596722,385.091402 84.7748734,385.345461 L76.6890568,409.371476 C76.5643527,409.741771 76.2401219,409.982546 75.880974,409.982546 C75.851045,409.982546 75.8244414,409.980886 75.7945124,409.979225 L75.7945124,409.979225 Z" id="Fill-34" fill="#1B1C1C"></path>
                    <path d="M209.387233,345.396587 L187.94976,339.121494 C187.94976,339.121494 197.374067,308.66928 197.744854,293.349354 C198.115641,278.032749 196.820381,268.987915 196.820381,268.987915 C196.820381,268.987915 166.141499,251.45452 155.052807,247.025923 C143.965778,242.595664 124.930937,236.504889 124.930937,236.504889 C124.930937,236.504889 117.9076,282.091052 109.590665,310.88441 C101.275393,339.676107 84.8277479,386.001199 84.8277479,386.001199 L63.9422982,381.570941 L80.0840024,206.158948 C80.0840024,206.158948 109.221541,196.639207 132.137174,198.854336 C155.052807,201.067804 177.95015,210.617435 177.95015,210.617435 C177.95015,210.617435 235.137807,253.483672 238.710996,261.975554 C242.284186,270.464114 209.387233,345.396587 209.387233,345.396587" id="Fill-36" fill="#473FF4"></path>
                    <path d="M166.789628,9.5846679 C166.789628,9.5846679 166.605066,12.9057011 164.20077,15.9510886 C161.7998,18.996476 159.397167,20.5656642 159.397167,20.5656642 C159.397167,20.5656642 163.22309,43.8145572 156.756764,50.1826384 C151.444368,54.7009041 143.985398,53.3127122 143.985398,53.3127122 L142.76496,63.4767343 L133.523551,74.3664022 L127.610912,64.0296863 C127.610912,64.0296863 129.273634,58.7708303 129.273634,53.1400185 C129.273634,47.5125277 129.089072,43.543893 129.089072,43.543893 C129.089072,43.543893 119.293978,42.1590221 121.141262,32.4699077 C122.988546,22.7807934 129.248693,26.7776568 129.248693,26.7776568 C129.248693,26.7776568 124.761007,18.8769188 127.53609,15.142417 C131.609759,10.6440775 140.46209,9.76898524 143.5348,9.03005535 C146.60751,8.29278598 149.231285,8.0154797 150.80422,6.44629151 C152.37383,4.87710332 153.76054,0.448505535 159.397167,2.66363469 C165.033794,4.87710332 167.625978,6.26363469 166.789628,9.5846679" id="Fill-38" fill="#FFFFFF"></path>
                    <path d="M182.036788,210.542878 C182.036788,210.542878 167.250202,203.405978 165.279877,180.273321 C163.307889,157.142325 166.944262,117.276642 166.944262,117.276642 C166.944262,117.276642 186.965096,150.498598 191.399575,160.833653 C195.835717,171.168708 201.996102,175.598967 208.154824,174.121107 C214.315208,172.646568 238.710664,132.780886 238.710664,132.780886 L218.505267,120.96797 L211.144398,134.534391 C211.144398,134.534391 209.757688,132.41059 208.46409,133.518155 C207.170492,134.62572 207.079043,136.00893 207.079043,136.00893 C207.079043,136.00893 190.167498,93.2838376 185.546794,88.669262 C180.927753,84.0546863 148.586149,72.7980443 148.586149,72.7980443 L146.645753,62.4613284 L143.042634,61.1578229 L142.76496,63.4775646 L133.523551,74.365572 L127.610912,64.0305166 L128.580279,59.9971218 L124.746043,60.8921402 L122.805646,68.5521033 C122.805646,68.5521033 84.5813325,77.6583764 81.254226,81.472583 C77.9271195,85.2851292 35.2982556,150.31428 34.9274686,153.635314 C34.5600071,156.958007 34.9274686,172.091956 34.9274686,172.091956 L59.1383621,169.508192 C59.1383621,169.508192 57.8447645,160.556347 58.7692379,159.448782 C59.6937112,158.341218 61.3564331,158.711513 60.4319598,157.233653 C59.5091491,155.759114 59.9697231,155.018524 61.8186698,152.713727 C63.6676166,150.405609 88.1528592,120.783653 88.1528592,120.783653 C88.1528592,120.783653 96.0990071,154.742878 96.4697941,157.326642 C96.8405811,159.912066 90.7417172,163.2331 90.7417172,163.97203 C90.7417172,164.709299 92.4044391,164.895277 92.4044391,167.108745 C92.4044391,169.323875 76.1413562,201.8069 76.1413562,201.8069 C76.1413562,201.8069 80.2067112,209.928487 96.4697941,213.065203 C112.732877,216.201919 124.007794,211.218708 124.007794,211.218708 L126.037978,204.206347 L138.977279,217.309483 C138.977279,217.309483 144.334569,222.477011 154.498788,218.417048 C164.66467,214.357085 169.83906,210.234022 182.036788,210.542878" id="Fill-40" fill="#FF4D00"></path>
                    <polygon id="Fill-42" fill="#FFCE00" points="48.0496698 216.664373 7.0220071 214.542232 0.000332544379 280.615849 36.7764154 283.38393 43.9843148 275.632638 80.5758355 277.847768 86.4901373 219.973782"></polygon>
                    <path d="M55.647145,169.881298 C55.8732751,169.856402 53.8248018,208.141273 53.9179142,212.847177 C54.0110266,217.553081 57.9317249,230.241089 57.9317249,230.241089 C57.9317249,230.241089 56.6946598,231.167657 53.7416657,229.415812 C50.7870089,227.660646 48.0501686,216.664705 48.0501686,216.664705 L36.7752515,216.017103 C36.7752515,216.017103 41.489068,204.760461 41.6752929,201.25345 C41.8581923,197.746439 38.7222988,171.687952 38.7222988,171.687952 L55.647145,169.881298 Z" id="Fill-44" fill="#FFFFFF"></path>
                    <path d="M144.703361,85.3684871 C144.784834,85.3684871 144.864645,85.3568635 144.946118,85.3352768 C145.253722,85.255572 145.499805,85.0247601 145.601231,84.7225461 L149.482024,73.0956089 C149.646633,72.6024354 149.380598,72.0677491 148.885107,71.9016974 C148.384627,71.7406273 147.855882,72.0046494 147.689609,72.4978229 L144.264402,82.7598155 L134.156716,73.6668266 C133.96384,73.4941328 133.722746,73.407786 133.450059,73.4277122 C133.194,73.4443173 132.954568,73.5721771 132.791621,73.7730996 L127.113426,80.7456089 L123.716485,68.3033579 C123.578479,67.8035424 123.061373,67.5112915 122.557568,67.6408118 C122.053763,67.7786347 121.757799,68.2983764 121.894142,68.7998524 L125.773272,83.0138745 C125.868047,83.3542804 126.142396,83.613321 126.489905,83.6863838 C126.829101,83.7544649 127.194899,83.6332472 127.417704,83.359262 L133.629633,75.7308487 L144.071527,85.1260517 C144.247775,85.2821402 144.472243,85.3684871 144.703361,85.3684871" id="Fill-46" fill="#1B1C1C"></path>
                    <path d="M126.038476,205.149354 C126.061754,205.149354 126.085033,205.149354 126.108311,205.147694 C126.62708,205.109502 127.019482,204.657841 126.98124,204.1381 C126.96295,203.877399 125.123979,177.891974 128.753701,159.04179 C132.423328,139.994004 134.448524,75.0495387 134.468476,74.3969557 C134.483441,73.873893 134.074411,73.4404982 133.553979,73.423893 L133.52405,73.423893 C133.015257,73.423893 132.596251,73.8273985 132.579624,74.3371771 C132.559672,74.9897601 130.539464,139.784779 126.898104,158.686439 C123.221825,177.784041 125.079086,204.0119 125.097376,204.274262 C125.133956,204.770756 125.547973,205.149354 126.038476,205.149354" id="Fill-48" fill="#1B1C1C"></path>
                    <path d="M145.26852,54.700738 C147.614621,54.700738 150.609183,54.1909594 154.341993,52.6881919 C165.028307,48.3824723 161.172455,24.9442804 160.427556,20.9274908 C161.247278,20.2184502 163.104538,18.5612546 164.90194,16.5852399 C167.20481,14.0512915 167.76681,9.32878229 167.883201,7.94391144 C167.926431,7.42416974 167.542343,6.95258303 167.023573,6.90774908 C166.513118,6.81309963 166.050881,7.2298893 166.004325,7.74797048 C166.004325,7.74797048 165.999337,7.78284133 165.999337,7.78450185 C165.926177,8.66457565 165.458952,13.1678967 163.503591,15.3166052 C161.247278,17.7957565 158.816378,19.8199262 158.7931,19.8398524 C158.527064,20.0640221 158.40236,20.4143911 158.470532,20.7531365 C158.525402,21.0138376 163.636609,46.9095941 153.633674,50.9380074 C143.6191,54.9730627 139.693414,51.1953875 139.653508,51.1555351 C139.289372,50.7918819 138.692455,50.7802583 138.320005,51.1405904 C137.950881,51.499262 137.935917,52.0887454 138.291739,52.4640221 C138.416443,52.5935424 140.501496,54.700738 145.26852,54.700738" id="Fill-50" fill="#1B1C1C"></path>
                    <path d="M142.76629,64.4190775 C143.23684,64.4190775 143.644207,64.067048 143.70074,63.5888192 L144.809775,54.3613284 C144.874621,53.8449077 144.505497,53.3749815 143.985065,53.3135424 C143.477935,53.2371587 142.997408,53.6190775 142.93755,54.1371587 L141.828515,63.3629889 C141.763669,63.8827306 142.134456,64.3509963 142.653225,64.4124354 C142.691467,64.417417 142.72971,64.4190775 142.76629,64.4190775" id="Fill-52" fill="#1B1C1C"></path>
                    <path d="M152.960272,17.4478782 C153.22797,17.4478782 155.64723,17.328321 158.342502,13.1388376 C160.88813,9.19012915 162.015455,5.20821033 162.063674,5.03883764 C162.203343,4.53736162 161.909041,4.01761993 161.406899,3.87647601 C160.904757,3.73035055 160.384325,4.03256458 160.242993,4.53238007 C160.233017,4.57057196 159.137283,8.41964945 156.75294,12.1192804 C154.641283,15.4021218 152.943644,15.5615314 152.925354,15.5615314 C152.419887,15.5997232 152.015846,16.0314576 152.032473,16.5379151 C152.052425,17.0460332 152.449816,17.4478782 152.960272,17.4478782" id="Fill-54" fill="#1B1C1C"></path>
                    <path d="M147.567732,15.1419188 C147.607637,15.1419188 147.650868,15.1402583 147.690773,15.1336162 C147.788874,15.1203321 150.106708,14.8015129 152.59414,12.8138745 C155.048318,10.8511439 156.940495,6.82937269 157.018643,6.66 C157.238122,6.18675277 157.033608,5.62715867 156.561395,5.40630996 C156.087519,5.18878229 155.525519,5.39136531 155.30604,5.86295203 C155.289412,5.90114391 153.520276,9.65391144 151.413608,11.3393358 C149.36846,12.9749446 147.464643,13.2605535 147.448016,13.262214 C146.929247,13.3302952 146.565111,13.8035424 146.633282,14.3199631 C146.694803,14.7948708 147.100507,15.1419188 147.567732,15.1419188" id="Fill-56" fill="#1B1C1C"></path>
                    <path d="M127.610247,64.97369 C127.941129,64.97369 128.263697,64.7993358 128.43662,64.4871587 C128.56465,64.2530258 131.599117,58.6770111 130.468466,51.7891882 C129.434253,45.5140959 129.999579,43.0615129 130.004567,43.0349446 C130.081052,42.717786 129.989602,42.3790406 129.758484,42.1465683 C129.527366,41.9124354 129.186508,41.8128044 128.877241,41.8875277 C128.853963,41.8925092 126.529478,42.3906642 124.605709,41.120369 C123.302135,40.2569004 122.445833,38.7557934 122.061744,36.6585609 C121.42991,33.2262731 121.887159,30.3369742 123.345366,28.5220295 C124.145135,27.5223985 125.230892,26.9046863 126.251804,26.868155 C126.275082,26.8664945 126.301685,26.8664945 126.326626,26.8664945 C128.065833,26.8664945 131.269898,29.0866052 132.904354,30.5063469 C134.010064,31.6985978 136.527425,33.4288561 138.524354,31.9343911 C139.568543,31.1522878 139.797999,29.4602214 140.065697,27.5008118 C140.449786,24.6829151 140.8372,22.6853137 142.345289,22.6139114 C146.31088,22.4329151 152.808798,21.6275646 153.083147,21.5943542 C153.601916,21.5295941 153.969378,21.0580074 153.904531,20.5415867 C153.839685,20.0268266 153.35417,19.6382657 152.852028,19.722952 C152.78552,19.7295941 146.149596,20.5515498 142.258827,20.7308856 C139.061413,20.8786716 138.560934,24.5600369 138.193472,27.2467528 C138.030525,28.4572694 137.804395,30.1161255 137.393703,30.4216605 C136.291318,31.2519188 134.234531,29.1712915 134.214579,29.1497048 C133.657567,28.6581919 129.336153,24.9784871 126.31665,24.9784871 C126.270093,24.9784871 126.2252,24.9784871 126.181969,24.9801476 C124.597395,25.0415867 123.026123,25.9017343 121.870531,27.3414022 C120.593561,28.9305166 119.266709,31.8995203 120.202821,36.9973063 C120.686673,39.6308856 121.825638,41.5537638 123.583135,42.7061624 C125.152744,43.7390037 126.858697,43.9150185 128.00265,43.8701845 C127.902886,45.2749815 127.912863,47.8919557 128.604555,52.0930627 C129.632117,58.3432472 126.813804,63.5223985 126.783875,63.5738745 C126.531141,64.0288561 126.69575,64.6033948 127.152999,64.8574539 C127.299318,64.9354982 127.453951,64.97369 127.610247,64.97369" id="Fill-58" fill="#1B1C1C"></path>
                    <path d="M34.7640231,164.176439 L34.800603,164.176439 L58.4844136,163.249871 C59.0065083,163.231605 59.4105497,162.791568 59.3922598,162.271827 C59.3723071,161.750424 59.008171,161.388432 58.4112538,161.365185 L34.7274432,162.288432 C34.2053485,162.310018 33.7996444,162.748395 33.819597,163.269797 C33.8395497,163.777915 34.2585556,164.176439 34.7640231,164.176439" id="Fill-60" fill="#1B1C1C"></path>
                    <path d="M233.441498,142.112989 C233.732475,142.112989 234.020125,141.978487 234.204688,141.724428 C234.512291,141.304317 234.419179,140.714834 233.996847,140.407638 L215.427569,126.902657 C215.006901,126.597122 214.416634,126.68845 214.109031,127.110221 C213.801427,127.530332 213.89454,128.119815 214.316871,128.427011 L232.886149,141.933653 C233.054084,142.05321 233.24696,142.112989 233.441498,142.112989" id="Fill-62" fill="#1B1C1C"></path>
                    <path d="M88.1530254,121.726328 C88.4656172,121.726328 88.7748834,121.568579 88.9527947,121.28297 L98.9341142,105.351974 C99.210126,104.908616 99.0754456,104.325775 98.636487,104.050129 C98.1908775,103.776144 97.6089249,103.907277 97.332913,104.349022 L87.3532562,120.281679 C87.0772444,120.723376 87.2102621,121.306218 87.6508834,121.581863 C87.808842,121.681494 87.9801024,121.726328 88.1530254,121.726328" id="Fill-64" fill="#1B1C1C"></path>
                    <path d="M166.943929,118.22048 C167.466024,118.22048 167.888355,117.798708 167.888355,117.277306 L167.888355,106.94059 C167.888355,106.420849 167.466024,105.997417 166.943929,105.997417 C166.421834,105.997417 165.999503,106.420849 165.999503,106.94059 L165.999503,117.277306 C165.999503,117.798708 166.421834,118.22048 166.943929,118.22048" id="Fill-66" fill="#1B1C1C"></path>
                    <path d="M212.305144,339.591255 C212.820588,339.591255 213.241256,339.181107 213.249754,338.664686 C213.259546,338.156568 212.863818,337.734797 212.356688,337.706568 C211.197771,337.547159 198.278422,333.445683 190.382156,330.890148 C189.876688,330.729077 189.352931,331.001402 189.193309,331.496236 C189.033688,331.99107 189.304712,332.524096 189.800203,332.685166 C196.196694,334.75583 211.197771,339.572989 212.288517,339.591255 L212.305144,339.591255 Z" id="Fill-68" fill="#1B1C1C"></path>
                    <path d="M87.5815479,379.099926 C88.0005538,379.099926 88.3813172,378.820959 88.4943822,378.399188 C88.6274,377.892731 88.3264473,377.37797 87.8243053,377.245129 L65.0516663,371.240701 C64.5428734,371.104539 64.0324178,371.410074 63.8977373,371.91155 C63.7647195,372.416347 64.0640095,372.932768 64.5678142,373.063948 L87.3387905,379.068376 C87.4202639,379.091624 87.5017373,379.099926 87.5815479,379.099926" id="Fill-70" fill="#1B1C1C"></path>
                    <path d="M124.9326,237.446734 C125.389849,237.446734 125.792227,237.114631 125.865387,236.648026 L128.143316,221.882712 C128.223127,221.367952 127.868967,220.884742 127.353523,220.806697 C126.846393,220.728653 126.354227,221.080683 126.276079,221.595443 L123.99815,236.360756 C123.91834,236.873856 124.272499,237.357066 124.78628,237.435111 C124.834499,237.443413 124.884381,237.446734 124.9326,237.446734" id="Fill-72" fill="#1B1C1C"></path>
                    <path d="M44.3150302,214.00655 C44.6143201,213.574815 45.2045864,213.471863 45.6302432,213.764114 L48.3088882,215.608948 C48.5084148,215.746771 48.6464207,215.955996 48.6979651,216.190129 C48.7129296,216.259871 50.1611604,223.059686 51.9003675,225.683303 C53.2438467,227.710793 55.2640538,229.470941 56.4994562,229.688469 C56.5676278,229.701753 56.6790302,229.708395 56.763829,229.703413 C56.8253497,228.652306 55.7346041,225.168542 54.9265213,222.583118 C53.7609533,218.850277 52.5538172,214.989576 52.6535805,212.928875 C52.8364799,208.96024 54.7053793,169.835148 54.7053793,169.835148 C54.7303201,169.315406 55.1709414,168.915221 55.6930361,168.938469 C56.213468,168.963376 56.614184,169.405074 56.5909059,169.924815 C56.5909059,169.924815 54.7220065,209.048247 54.5374444,213.016882 C54.4576337,214.74714 55.6647698,218.609502 56.7322373,222.018542 C58.6742964,228.237177 59.203042,230.317804 58.0341485,231.176292 C57.7548112,231.380535 57.3141899,231.594742 56.692332,231.594742 C56.5310479,231.594742 56.3547994,231.579797 56.1669118,231.546587 C54.1084621,231.179613 51.6941899,228.788469 50.3241071,226.726107 C48.6198172,224.153967 47.2680243,218.471679 46.928829,216.950646 L44.5577876,215.320018 C44.1288053,215.022786 44.0190657,214.434963 44.3150302,214.00655" id="Fill-74" fill="#1B1C1C"></path>
                    <path d="M36.7775793,216.961107 C37.1600053,216.961107 37.5224787,216.725314 37.6621473,216.345055 C37.8300822,215.891734 41.747455,205.267749 42.5438988,201.913506 C43.3553071,198.504465 40.0415024,174.305756 39.6574136,171.557601 C39.5859166,171.042841 39.0887627,170.692472 38.5949343,170.753911 C38.0778278,170.825314 37.7153544,171.300221 37.7868515,171.816642 C39.2633485,182.468856 41.2586148,199.157048 40.7065911,201.480111 C39.9350882,204.7231 35.9295911,215.582878 35.8913485,215.690812 C35.7101118,216.179004 35.9628456,216.723653 36.4516858,216.902989 C36.5581,216.942841 36.6695024,216.961107 36.7775793,216.961107" id="Fill-76" fill="#1B1C1C"></path>
                    <path d="M152.69274,40.7435978 C152.69274,40.2238561 153.115071,39.8020849 153.637166,39.8020849 C154.23242,39.8020849 154.944065,39.6924908 155.30155,39.56131 C155.170195,38.8854797 154.475178,37.2565129 153.67042,35.7836347 C153.421012,35.3236716 153.590609,34.7507934 154.047858,34.5017159 C154.505107,34.2559594 155.078746,34.4220111 155.331479,34.8803137 C157.946941,39.6808672 157.192065,40.4347417 156.831254,40.7950738 C156.001556,41.6220111 154.17755,41.6867712 153.637166,41.6867712 C153.115071,41.6867712 152.69274,41.2666605 152.69274,40.7435978 L152.69274,40.7435978 Z" id="Fill-78" fill="#1B1C1C"></path>
                    <path d="M153.526927,46.0235424 C153.974199,46.0235424 154.231921,45.9886716 154.256862,45.9870111 C154.773969,45.9172694 155.134779,45.4390406 155.064945,44.9242804 C154.995111,44.4061993 154.511259,44.0475277 154.005791,44.1172694 C153.979188,44.1205904 152.768726,44.2584133 150.921442,43.7702214 C149.285324,43.3384871 148.738288,42.5065683 148.716673,42.4700369 C148.438998,42.0366421 147.860371,41.9004797 147.423075,42.1611808 C146.984117,42.428524 146.834472,42.9864576 147.092193,43.4298155 C147.180318,43.5842435 148.033294,44.9591513 150.439253,45.5934686 C151.782732,45.9488192 152.863501,46.0235424 153.526927,46.0235424" id="Fill-80" fill="#1B1C1C"></path>
                    <path d="M155.65571,28.5866236 C155.65571,29.1943727 156.147876,29.6858856 156.756432,29.6858856 C157.363325,29.6858856 157.857154,29.1943727 157.857154,28.5866236 C157.857154,27.9788745 157.363325,27.4873616 156.756432,27.4873616 C156.147876,27.4873616 155.65571,27.9788745 155.65571,28.5866236" id="Fill-82" fill="#1B1C1C"></path>
                    <path d="M146.807868,30.002214 C146.807868,30.6083026 147.300034,31.101476 147.90859,31.101476 C148.515483,31.101476 149.009312,30.6083026 149.009312,30.002214 C149.009312,29.3944649 148.515483,28.9012915 147.90859,28.9012915 C147.300034,28.9012915 146.807868,29.3944649 146.807868,30.002214" id="Fill-84" fill="#1B1C1C"></path>
                    <path d="M124.745876,37.2588376 C124.918799,37.2588376 125.091722,37.2123432 125.248018,37.1143727 C125.68864,36.8387269 125.82332,36.2558856 125.545646,35.8141882 C125.534007,35.7876199 124.968681,34.7481365 125.931397,33.0992435 C126.924042,31.4021956 128.817882,31.4603137 128.826196,31.4735978 C129.35993,31.5433395 129.792237,31.0966605 129.815515,30.5785793 C129.840456,30.0588376 129.441403,29.6154797 128.919308,29.590572 C128.802918,29.5656642 125.864888,29.4726753 124.298604,32.149428 C122.737308,34.8261808 123.894563,36.7357749 123.946107,36.8154797 C124.124018,37.1010886 124.433285,37.2588376 124.745876,37.2588376" id="Fill-86" fill="#1B1C1C"></path>
                    <path d="M128.873417,37.2540221 C128.888382,37.2540221 128.905009,37.2523616 128.919973,37.2523616 C129.440405,37.2257934 129.837796,36.7923985 129.817843,36.2743173 C129.812855,36.1962731 129.71808,34.3530996 128.224956,33.1757934 C126.921382,32.1462731 125.426595,31.7311439 125.363411,31.7145387 C124.859607,31.5783764 124.340837,31.8756089 124.204494,32.3754244 C124.066488,32.8769004 124.362453,33.3949815 124.864595,33.5361255 C124.877896,33.537786 126.061754,33.8715498 127.056062,34.6569742 C127.857494,35.2879705 127.928991,36.3523616 127.930654,36.3623247 C127.95892,36.8654613 128.376263,37.2540221 128.873417,37.2540221" id="Fill-88" fill="#1B1C1C"></path>
                    <path d="M126.327457,14.8078229 C127.915357,11.4751661 135.28454,9.97738007 141.785783,8.65394834 C144.625712,8.07774908 147.307682,7.53309963 148.682753,6.95856089 C151.828623,5.65173432 152.06473,3.17092251 152.016511,2.16630996 C151.986582,1.44066421 152.664972,0.610405904 153.429824,0.929225092 C154.67354,1.44564576 154.104889,6.74767528 149.411025,8.70210332 C147.864694,9.34638376 145.222629,9.88107011 142.161558,10.5037638 C136.699517,11.6146494 129.215605,13.1356827 128.031747,15.618155 C126.192777,19.4854982 129.413469,26.0395572 129.446724,26.1059779 C129.679505,26.572583 129.488292,27.1388192 129.02273,27.369631 C128.888049,27.4377122 128.743392,27.469262 128.602061,27.469262 C128.254552,27.469262 127.92367,27.2783026 127.755736,26.9495203 C127.606091,26.6456458 124.089434,19.5070849 126.327457,14.8078229" id="Fill-90" fill="#1B1C1C"></path>
                </g>
            </g>
        </g>
    </g>
</svg>