<?xml version="1.0" encoding="UTF-8"?>
<svg width="532px" height="543px" viewBox="0 0 532 543" version="1.1" xmlns="http://www.w3.org/2000/svg" xmlns:xlink="http://www.w3.org/1999/xlink">
    <title>Group 101</title>
    <defs>
        <polygon id="path-1" points="0.756586725 0.421153846 5.01263872 0.421153846 5.01263872 14.1829173 0.756586725 14.1829173"></polygon>
        <polygon id="path-3" points="0.379049075 0.274539114 21.0059928 0.274539114 21.0059928 41.1644192 0.379049075 41.1644192"></polygon>
        <polygon id="path-5" points="0 0.316146154 44.0402815 0.316146154 44.0402815 36.1254538 0 36.1254538"></polygon>
    </defs>
    <g id="PAGINE-DRAFT" stroke="none" stroke-width="1" fill="none" fill-rule="evenodd">
        <g id="3.0_SIW_about" transform="translate(-909.000000, -144.000000)">
            <g id="Group-101" transform="translate(1175.000000, 415.500000) rotate(-33.000000) translate(-1175.000000, -415.500000) translate(990.000000, 213.000000)">
                <polygon id="Fill-1" fill="#473FF4" points="196.013806 323.315966 206.761456 403.246789 288.013806 340.748805 283.270732 259.246789"></polygon>
                <polygon id="Fill-2" fill="#1B1C1C" points="188.777995 401.254166 207.725812 404.241682 196.990421 323.428813 177.725812 318.241682"></polygon>
                <polygon id="Fill-3" fill="#473FF4" points="265.038521 254.871589 176.85989 318.779354 196.046691 323.871589 282.85989 260.28044"></polygon>
                <polygon id="Fill-4" fill="#1B1C1C" points="268.67946 355.17595 233.030318 296.08771 282.369916 259.17595 287.030318 340.793743"></polygon>
                <g id="Group-100" transform="translate(0.749053, 0.072655)">
                    <path d="M211.517955,295.083688 C211.517955,295.083688 215.583268,298.047208 217.614518,297.4239 C219.647174,296.800592 222.461946,293.679842 222.461946,293.679842 L219.022607,275.891708 L233.563486,265.90615 L235.594736,279.324112 C235.594736,279.324112 239.816191,280.10465 240.911997,279.479938 C242.006396,278.855227 245.60047,275.891708 245.60047,275.891708 L243.099388,254.826996 L232.779964,255.763362 L207.451235,272.926785 L211.517955,295.083688 Z" id="Fill-5" fill="#1B1C1C"></path>
                    <path d="M264.661443,44.6713673 C264.661443,44.6713673 274.188905,27.7157135 275.231257,22.3052904 C276.273609,16.897675 276.795488,7.43154038 277.733745,5.55880962 C278.670596,3.68607885 291.28432,2.54194423 292.118483,4.93409808 C292.951239,7.32625192 287.427196,17.5209827 288.051763,18.2495788 C288.677737,18.9767712 294.826347,15.0249442 297.850715,15.6482519 C300.872269,16.2715596 301.498243,18.1442904 299.934012,18.8728865 C298.371187,19.6014827 290.770881,23.4606558 286.801222,27.0924058 C282.825937,30.7283673 277.571977,46.3966942 277.571977,46.3966942 L264.661443,44.6713673 Z" id="Fill-7" fill="#FFFFFF"></path>
                    <path d="M277.572961,47.1925346 C277.499814,47.1925346 277.426666,47.1841115 277.354926,47.1630538 C276.930107,47.0437269 276.682531,46.6015154 276.803506,46.1775538 C276.990595,45.5219577 281.434305,30.0389385 286.720619,26.0225346 C288.892537,24.3716115 291.662295,22.9579385 294.104297,21.7127269 C296.611005,20.4310154 300.041904,18.6776115 299.96735,17.7398423 C299.930776,17.3144769 299.749314,17.0070346 299.389204,16.7782077 C298.374985,16.1324385 296.281841,16.2840538 294.845618,16.8076885 C294.388447,16.9747462 293.872194,17.1867269 293.334841,17.4057269 C290.89284,18.4080731 289.210447,19.0313808 288.145589,18.5793423 C287.777038,18.4235154 287.505548,18.1497654 287.36066,17.7889769 C286.833154,16.4679577 289.594472,9.16936154 292.004119,3.27882308 C292.168701,2.87030385 292.634313,2.67376538 293.046471,2.84222692 C293.453003,3.00788077 293.651345,3.47395769 293.48395,3.88247692 C291.20231,9.45715 288.915044,15.7786692 288.862997,17.1375923 C289.521324,17.2428808 291.669329,16.3654769 292.727154,15.9302846 C293.285607,15.7014577 293.821553,15.4824577 294.297012,15.3097846 C296.065212,14.6682269 298.680235,14.4309769 300.250093,15.4361308 C301.030802,15.9330923 301.483754,16.6869577 301.558308,17.6134962 C301.721483,19.6125731 298.832157,21.0880154 294.832958,23.1306115 C292.448631,24.34915 289.7478,25.7277269 287.68701,27.2902077 C282.821295,30.9893423 278.386024,46.4583231 278.342417,46.61415 C278.242542,46.9637077 277.920412,47.1925346 277.572961,47.1925346" id="Fill-9" fill="#1B1C1C"></path>
                    <path d="M284.843964,15.5525096 C284.403672,15.5525096 284.049188,15.1538173 284.049188,14.7130096 C284.049188,14.5670096 284.049188,14.1233942 287.835978,1.91695192 C287.966799,1.49439423 288.408498,1.25433654 288.834723,1.39050962 C289.258134,1.52106731 289.494457,1.96608654 289.362229,2.38724038 C287.979459,6.84725962 285.745647,14.1584904 285.640146,14.7972404 C285.640146,15.2352404 285.285662,15.5525096 284.843964,15.5525096" id="Fill-11" fill="#1B1C1C"></path>
                    <g id="Group-15" transform="translate(279.929858, 0.000000)">
                        <mask id="mask-2" fill="white">
                            <use xlink:href="#path-1"></use>
                        </mask>
                        <g id="Clip-14"></g>
                        <path d="M1.55536907,14.1829173 C1.4709681,14.1829173 1.38656714,14.1702827 1.30216618,14.1436096 C0.885788099,14.0046288 0.660718867,13.5582058 0.795760406,13.1412635 C0.93783536,12.6499173 2.45001927,5.64612885 3.4318838,1.04993654 C3.52472485,0.620359615 3.95516976,0.353628846 4.38139462,0.435051923 C4.81043285,0.527705769 5.08754934,0.950263462 4.99470828,1.38264808 C4.40530823,4.13839808 2.47111951,13.163725 2.31357105,13.638225 C2.20244311,13.9723404 1.88875287,14.1829173 1.55536907,14.1829173" id="Fill-13" fill="#1B1C1C" mask="url(#mask-2)"></path>
                    </g>
                    <path d="M279.133535,13.7934904 C278.691837,13.7934904 278.334539,13.4369135 278.334539,12.9975096 L278.334539,1.60529808 C278.334539,1.16449038 278.691837,0.807913462 279.133535,0.807913462 C279.573827,0.807913462 279.932531,1.16449038 279.932531,1.60529808 L279.932531,12.9975096 C279.932531,13.4369135 279.573827,13.7934904 279.133535,13.7934904" id="Fill-16" fill="#1B1C1C"></path>
                    <path d="M264.661443,45.4691731 C264.536248,45.4691731 264.411053,45.4396923 264.292892,45.3793269 C263.901834,45.1757692 263.749913,44.69425 263.952475,44.3039808 C264.027029,44.1607885 271.324899,30.1223269 272.942584,26.5242692 C274.419601,23.2448846 274.838792,19.8840769 275.21297,16.9205577 L275.304404,16.1919615 C275.688429,13.1919423 273.274561,7.67763462 273.247834,7.62148077 C273.071999,7.21998077 273.254868,6.74828846 273.658585,6.57 C274.05949,6.39311538 274.534949,6.57421154 274.713598,6.97851923 C274.819099,7.22138462 277.331434,12.9575 276.889736,16.3941154 L276.798301,17.1199038 C276.411464,20.1943269 275.973985,23.6786731 274.399907,27.1784615 C272.763935,30.8172308 265.671441,44.4584038 265.370411,45.0381923 C265.228336,45.3119423 264.949813,45.4691731 264.661443,45.4691731" id="Fill-18" fill="#1B1C1C"></path>
                    <path d="M335.894026,75.7862135 C335.894026,75.7862135 343.423999,59.4159635 343.580141,53.0186365 C343.734876,46.6227135 341.861174,38.6755404 341.861174,38.6755404 C341.861174,38.6755404 343.85163,37.9904635 345.25972,38.9268288 C346.666403,39.8631942 347.096847,47.0115788 347.956331,48.415425 C348.81722,49.820675 350.614961,43.6044442 351.318302,39.0265019 C352.02305,34.4513673 350.381452,32.6558481 351.944276,31.7194827 C353.507101,30.7831173 363.279325,36.479925 365.546898,42.1753288 C367.813064,47.8693288 356.321873,56.3738288 353.819384,62.5367135 C351.318302,68.7010019 347.223449,82.4839635 347.223449,82.4839635 L335.894026,75.7862135 Z" id="Fill-20" fill="#FFFFFF"></path>
                    <path d="M335.894026,76.5841596 C335.777272,76.5841596 335.65911,76.5588904 335.547982,76.5041404 C335.149891,76.3132173 334.983903,75.8359096 335.175212,75.4414288 C335.252579,75.2771788 343.039975,59.0936404 342.781145,53.0528904 C342.646103,49.9026596 342.025756,46.4758712 341.529197,43.7201212 C340.838516,39.8932365 340.645801,38.6536404 341.202847,38.0120827 C341.674086,37.4673904 342.551856,37.2020635 343.573107,37.3045442 C344.893982,37.4393135 346.033395,38.1398327 346.619982,39.1828904 C347.084187,40.0041404 347.406318,41.6101404 347.779089,43.4702365 C348.014005,44.6382365 348.375522,46.4463904 348.710313,47.2929096 C349.579642,45.7795635 350.962412,40.6681596 350.809083,38.1286019 C350.627621,35.1763135 349.859572,32.5988519 349.851132,32.5735827 C349.723124,32.1524288 349.963667,31.7060058 350.385672,31.5796596 C350.81049,31.4533135 351.253595,31.6905635 351.380196,32.1131212 C351.415363,32.2254288 352.211546,34.8843135 352.402855,38.0317365 C352.567437,40.7060635 350.986325,47.6593135 349.422094,48.9157558 C348.980396,49.2723327 348.569644,49.2260058 348.357235,49.1684481 C347.279716,48.8610058 346.880218,47.1104096 346.213451,43.7832942 C345.909607,42.2755635 345.566377,40.5656788 345.228773,39.9648327 C344.735027,39.0902365 343.715182,38.921775 343.412745,38.8922942 C342.934473,38.8445635 342.61375,38.9358135 342.478708,39.0088135 C342.411187,39.6138712 342.776925,41.6382173 343.101869,43.4379481 C343.606868,46.240025 344.238468,49.725775 344.379136,52.9841019 C344.654846,59.4235442 336.943412,75.4526596 336.614248,76.1321212 C336.476393,76.4171019 336.190836,76.5841596 335.894026,76.5841596" id="Fill-22" fill="#1B1C1C"></path>
                    <path d="M353.664368,47.1925346 C353.449145,47.1925346 353.232516,47.1054962 353.074968,46.9342269 C352.776751,46.6099385 352.797851,46.1059577 353.124202,45.8083423 C353.729075,45.2524192 355.048543,41.5322269 354.899435,38.2317846 C354.751733,35.0057462 353.956958,33.0628231 353.949924,33.0417654 C353.779716,32.6360538 353.972431,32.1699769 354.378963,32.0001115 C354.791121,31.8288423 355.252512,32.0211692 355.422721,32.4254769 C355.460702,32.5139192 356.334251,34.6267077 356.494613,38.1601885 C356.653568,41.6375154 355.366454,45.9178423 354.204534,46.9833615 C354.051205,47.1223423 353.85849,47.1925346 353.664368,47.1925346" id="Fill-24" fill="#1B1C1C"></path>
                    <path d="M358.510812,47.1925346 C358.389837,47.1925346 358.266049,47.1644577 358.149294,47.1054962 C357.758236,46.9075538 357.600688,46.4274385 357.796217,46.0357654 C357.808877,46.0119 358.987677,43.6141308 358.884989,39.5850923 C358.779488,35.5476308 358.353263,34.2631115 358.347636,34.2504769 C358.205561,33.8377462 358.422191,33.3829 358.832942,33.2369 C359.235253,33.0866885 359.698052,33.2944577 359.848567,33.7057846 C359.902021,33.8461692 360.370446,35.2233423 360.482981,39.5457846 C360.596922,44.0100154 359.27886,46.6478423 359.222593,46.7559385 C359.080518,47.0339 358.801995,47.1925346 358.510812,47.1925346" id="Fill-26" fill="#1B1C1C"></path>
                    <path d="M361.010909,48.9019981 C360.628291,48.9019981 360.289281,48.6240365 360.223166,48.2337673 C360.164086,47.8757865 360.355395,47.5318442 360.667678,47.3844404 C361.165644,46.886075 362.644067,44.1204981 362.794582,41.8883827 C362.970418,39.2884596 362.797396,36.793825 362.794582,36.7685558 C362.763635,36.3305558 363.095613,35.9473058 363.535904,35.917825 C363.925555,35.8897481 364.358814,36.2168442 364.389761,36.6562481 C364.396794,36.7629404 364.571223,39.2814404 364.389761,41.9936712 C364.229399,44.3788058 362.357104,48.6900173 361.143137,48.8907673 C361.098123,48.8977865 361.054516,48.9019981 361.010909,48.9019981" id="Fill-28" fill="#1B1C1C"></path>
                    <g id="Group-32" transform="translate(346.043945, 42.115385)">
                        <mask id="mask-4" fill="white">
                            <use xlink:href="#path-3"></use>
                        </mask>
                        <g id="Clip-31"></g>
                        <path d="M1.17908144,41.1644192 C1.10734063,41.1644192 1.03278644,41.1545923 0.962452307,41.1349385 C0.53763413,41.0156115 0.288651291,40.5748038 0.409626004,40.1508423 C0.633288554,39.3576692 5.93929572,20.7075731 8.78079478,17.0463423 C9.91739441,15.5835346 11.1369883,14.3088423 12.3157884,13.0776692 C14.064295,11.2512654 15.7157405,9.52593846 16.9311144,7.37384231 C18.9356372,3.83334231 19.4125027,0.976515385 19.4167227,0.947034615 C19.4870569,0.513246154 19.8837414,0.211419231 20.3324732,0.285823077 C20.7685448,0.354611538 21.0653548,0.763130769 20.9964274,1.19691923 C20.9753272,1.32326538 20.4787682,4.34855385 18.3237303,8.15859231 C17.0098886,10.4847654 15.2909223,12.2788808 13.4706749,14.1782846 C12.3214152,15.3827846 11.1299549,16.6265923 10.0454025,18.0248231 C7.92131165,20.7581115 3.81942488,33.9767269 1.94853688,40.5846308 C1.84866241,40.9355923 1.52793875,41.1644192 1.17908144,41.1644192" id="Fill-30" fill="#1B1C1C" mask="url(#mask-4)"></path>
                    </g>
                    <path d="M114.838763,320.287219 L131.932771,317.374238 C131.932771,317.374238 137.354126,304.267931 136.519963,287.8317 C135.6858,271.396873 137.562315,262.034623 144.440994,258.496931 C151.321079,254.960642 189.470314,244.558142 202.812699,237.276392 C216.153678,229.994642 225.222561,222.816777 225.222561,222.816777 L240.33596,208.358565 L223.65833,172.366758 L179.463173,169.244604 L165.652362,176.318585 C165.652362,176.318585 96.4942135,189.424892 93.5753469,190.674315 C90.657887,191.922335 57.093031,233.947873 51.6744892,238.732181 C46.253134,243.517892 42.9178893,247.054181 42.9178893,247.054181 L52.7168411,260.577431 C52.7168411,260.577431 68.9752798,256.207258 79.1906096,247.886662 C89.4059394,239.564662 95.0354836,225.208931 99.4130801,223.753142 C103.790677,222.297354 152.363431,219.592142 152.363431,219.592142 C152.363431,219.592142 124.637714,238.941354 114.214196,253.711219 C103.790677,268.483892 114.838763,320.287219 114.838763,320.287219" id="Fill-33" fill="#FFCE00"></path>
                    <path d="M118.889868,328.984467 C118.889868,328.984467 111.790341,345.538621 109.445401,348.347717 C107.099054,351.15541 102.018116,356.304717 102.018116,356.304717 L140.246125,340.233487 L129.849333,325.591371 L125.079272,324.239467 C125.079272,324.239467 118.251234,328.970429 118.889868,328.984467" id="Fill-35" fill="#1B1C1C"></path>
                    <g id="Group-39" transform="translate(0.000000, 245.673077)">
                        <mask id="mask-6" fill="white">
                            <use xlink:href="#path-5"></use>
                        </mask>
                        <g id="Clip-38"></g>
                        <path d="M44.0402815,17.0893 C43.3875807,17.6353962 33.1202036,36.1254538 33.1202036,36.1254538 L-0.000140668271,0.316146154 C-0.000140668271,0.316146154 14.2284549,5.69849231 20.0915084,6.55624231 C25.9545619,7.41399231 35.9110621,8.43739615 35.9110621,8.43739615 C35.9110621,8.43739615 42.9177487,12.7205308 43.2314389,12.8763577 C43.5423158,13.0321846 44.0402815,17.0893 44.0402815,17.0893" id="Fill-37" fill="#1B1C1C" mask="url(#mask-6)"></path>
                    </g>
                    <path d="M350.302818,83.6335731 C350.302818,83.6335731 340.295677,114.216362 318.719978,128.260438 C297.142872,142.303112 284.010082,154.1614 279.944769,159.467938 C275.879456,164.771669 249.61247,207.212746 243.046075,213.767304 C236.47968,220.320458 225.221999,222.8179 225.221999,222.8179 C225.221999,222.8179 230.06802,218.447727 228.975028,204.716708 C227.880629,190.985688 224.127599,185.055842 219.906145,182.561208 C215.68469,180.063765 201.457501,179.752112 201.457501,179.752112 L203.958583,175.694996 C203.958583,175.694996 195.829363,178.971573 193.484423,178.348265 C191.138077,177.72215 191.918786,175.539169 186.290648,174.758631 C180.662511,173.978092 165.651799,176.318304 165.651799,176.318304 C165.651799,176.318304 169.404829,174.135323 170.65537,170.545688 C171.907317,166.957458 174.408399,163.367823 181.444626,158.999054 C188.479446,154.628881 231.163826,133.461688 236.16599,127.220188 C241.16956,120.978688 239.71083,94.1399577 247.84005,74.3752077 C255.970676,54.6118615 263.267139,43.7699577 263.267139,43.7699577 L280.570743,46.0820923 C280.570743,46.0820923 271.397765,70.8389192 268.270709,84.5699385 C265.143654,98.3009577 260.140083,119.313727 260.140083,119.313727 L260.140083,130.548708 L282.65404,119.521496 L284.530555,122.642246 C284.530555,122.642246 306.419944,111.616438 313.090434,106.416592 C319.76233,101.213938 333.937471,73.9596692 333.937471,73.9596692 L350.302818,83.6335731 Z" id="Fill-40" fill="#34E0A1"></path>
                    <path d="M273.690799,56.6918 C273.690799,56.6918 273.360228,59.4615885 274.567162,63.2253 C275.774096,66.9904154 277.860206,70.21505 277.860206,70.21505 C277.860206,70.21505 258.681494,82.9058192 258.473305,95.4927038 C258.263709,108.079588 265.351983,109.223723 265.351983,109.223723 L260.140224,119.313165 L260.140224,130.548146 L282.654181,119.522338 L290.784807,108.808185 C290.784807,108.808185 305.787078,112.896185 307.150153,100.797838 C308.416168,89.5530308 301.000137,89.6667423 301.000137,89.6667423 C301.000137,89.6667423 305.377733,83.0097038 302.042488,78.2253962 C298.705837,73.4410885 293.598172,71.1514154 291.931253,68.9670308 C290.262927,66.7812423 290.056145,61.0605692 288.596008,59.1878385 C287.137279,57.3165115 273.630311,53.97255 273.690799,56.6918" id="Fill-42" fill="#FFFFFF"></path>
                    <path d="M116.917136,319.93345 L119.738942,332.874104 C119.738942,332.874104 121.718144,333.497412 123.280969,332.145508 C124.8452,330.7922 126.095741,326.838969 127.1395,326.475373 C128.181851,326.111777 129.84877,325.59095 129.84877,325.59095 L129.84877,317.729412 L116.917136,319.93345 Z" id="Fill-44" fill="#FFFFFF"></path>
                    <path d="M44.0402815,248.603325 L33.1202036,256.001594 C33.1202036,256.001594 34.1625555,258.913171 36.1431648,259.12094 C38.123774,259.330113 40.9371394,259.849537 42.0835858,260.576729 C43.2314389,261.306729 44.0402815,262.762517 44.0402815,262.762517 L51.3100177,258.636613 L44.0402815,248.603325 Z" id="Fill-46" fill="#FFFFFF"></path>
                    <path d="M263.058247,143.100917 C262.982286,143.100917 262.904918,143.089687 262.827551,143.067225 C262.558874,142.985802 262.349279,142.76961 262.283164,142.494456 L259.538727,131.443379 L253.641913,132.324994 C253.322596,132.369917 253.041259,132.243571 252.868237,131.99509 C252.693808,131.748013 252.674115,131.423725 252.82041,131.158398 L259.437445,118.936513 C259.647041,118.54484 260.13516,118.404456 260.519184,118.613629 C260.908835,118.822802 261.052317,119.307129 260.842721,119.693187 L254.986701,130.512629 L260.021219,129.760167 C260.44041,129.696994 260.817401,129.95811 260.915869,130.356802 L263.511198,140.808437 L283.991092,122.05586 C284.314629,121.762456 284.821035,121.779302 285.119251,122.104994 C285.417468,122.427879 285.396368,122.933263 285.070018,123.230879 L263.598413,142.891744 C263.447898,143.027917 263.256589,143.100917 263.058247,143.100917" id="Fill-48" fill="#1B1C1C"></path>
                    <path d="M347.995014,90.3991288 C347.859973,90.3991288 347.727745,90.3668404 347.60255,90.2966481 L330.366467,80.5651865 C329.981036,80.3475904 329.847401,79.8604558 330.06403,79.4786096 C330.282066,79.0911481 330.767371,78.9619942 331.152802,79.1753788 L348.387479,88.9068404 C348.77291,89.1244365 348.907951,89.6101673 348.691322,89.9934173 C348.543621,90.2531288 348.272131,90.3991288 347.995014,90.3991288" id="Fill-50" fill="#1B1C1C"></path>
                    <path d="M278.042793,53.9060077 C277.986526,53.9060077 277.928852,53.9003923 277.872585,53.8877577 L259.803746,49.9906808 C259.373301,49.8994308 259.098997,49.4740654 259.193245,49.0430846 C259.28468,48.6121038 259.723565,48.3425654 260.141349,48.4338154 L278.208782,52.3294885 C278.64204,52.4207385 278.914937,52.8475077 278.822096,53.2770846 C278.741915,53.6505077 278.409938,53.9060077 278.042793,53.9060077" id="Fill-52" fill="#1B1C1C"></path>
                    <path d="M203.958442,176.493083 C203.754473,176.493083 203.551911,176.415871 203.397176,176.261448 C203.082079,175.954006 203.079265,175.447217 203.390142,175.13416 C204.409987,174.103737 228.499429,149.812987 237.483911,145.43439 C246.255984,141.161083 259.492869,130.04964 259.625097,129.94014 C259.962701,129.657967 260.466293,129.697275 260.750443,130.034198 C261.036,130.371121 260.992392,130.873698 260.656195,131.157275 C260.107589,131.617737 247.135161,142.505967 238.185846,146.867717 C229.443313,151.12839 204.774318,176.004544 204.525335,176.255833 C204.3706,176.413063 204.163818,176.493083 203.958442,176.493083" id="Fill-54" fill="#1B1C1C"></path>
                    <path d="M273.067216,112.519252 C273.012355,112.519252 272.957495,112.513637 272.902634,112.501002 C272.587537,112.435021 265.178539,110.875348 262.32438,108.59831 C259.540555,106.373213 255.413348,100.91506 259.066503,89.3614058 C262.175272,79.5260596 273.835265,71.7684058 276.789299,69.9293673 C276.285706,69.0000212 275.351669,67.2269635 274.497812,65.3556365 C273.209291,62.5367135 272.906854,56.9704635 272.892787,56.7360212 C272.868874,56.2938096 273.209291,55.9189827 273.648176,55.8965212 C274.116601,55.8530019 274.465459,56.2137904 274.489372,56.6503865 C274.492186,56.7051365 274.790402,62.1492519 275.952322,64.6972327 C277.163476,67.3490981 278.542025,69.7988096 278.554685,69.8240788 C278.769908,70.2017135 278.640493,70.6832327 278.262095,70.9022327 C278.118614,70.9878673 263.897052,79.3800596 260.58994,89.8415212 C257.223749,100.489694 260.85721,105.383502 263.323125,107.351694 C265.881881,109.395694 273.15443,110.924483 273.227578,110.941329 C273.65943,111.028367 273.937953,111.452329 273.847925,111.88331 C273.769151,112.25954 273.437174,112.519252 273.067216,112.519252" id="Fill-56" fill="#1B1C1C"></path>
                    <path d="M262.062315,116.388112 C261.939934,116.388112 261.813332,116.358631 261.695171,116.299669 C261.304113,116.098919 261.150785,115.615996 261.351941,115.224323 L264.640765,108.859285 C264.844734,108.466208 265.328633,108.313188 265.718284,108.516746 C266.110748,108.716092 266.264077,109.197612 266.061514,109.590688 L262.77269,115.955727 C262.630615,116.230881 262.352092,116.388112 262.062315,116.388112" id="Fill-58" fill="#1B1C1C"></path>
                    <path d="M285.572063,73.9766558 C285.399041,73.9766558 285.223205,73.9205019 285.078317,73.8053865 C285.01361,73.7534442 283.467665,72.5152519 281.001751,68.8652519 C278.459875,65.1043481 278.666657,59.1997712 278.676504,58.9498865 C278.691978,58.5104827 278.990194,58.1258288 279.506447,58.1847904 C279.948145,58.2030404 280.291376,58.5722519 280.273089,59.0130596 C280.270276,59.0692135 280.083187,64.6480981 282.328252,67.9752135 C284.626772,71.3781365 286.057368,72.5433288 286.070028,72.5559635 C286.414666,72.8311173 286.470933,73.3308865 286.19663,73.6748288 C286.037675,73.8727712 285.805572,73.9766558 285.572063,73.9766558" id="Fill-60" fill="#1B1C1C"></path>
                    <path d="M288.932206,71.7926923 C288.757777,71.7926923 288.580535,71.7351346 288.432833,71.6158077 C288.359686,71.5554423 286.629466,70.1333462 284.852826,66.4257885 C283.080406,62.7266538 282.90457,57.8075769 282.897537,57.6012115 C282.88347,57.1618077 283.229514,56.7925962 283.672619,56.7785577 C284.084777,56.7378462 284.480055,57.1112692 284.496935,57.5506731 C284.498342,57.5984038 284.669957,62.3462115 286.294676,65.7379038 C287.898294,69.0804615 289.425951,70.3649808 289.440018,70.3776154 C289.780435,70.6569808 289.831076,71.1595577 289.551146,71.4978846 C289.393598,71.6916154 289.164308,71.7926923 288.932206,71.7926923" id="Fill-62" fill="#1B1C1C"></path>
                    <path d="M301.000277,90.4663731 C300.814595,90.4663731 300.6261,90.4003923 300.475585,90.2684308 C300.143607,89.9806423 300.10844,89.4766615 300.39681,89.1453538 C300.430571,89.1060462 303.709548,85.2693346 302.997767,80.7938731 C302.446347,77.3263731 298.330393,74.5846615 295.019062,72.3848346 C294.010471,71.7137962 293.058147,71.0792577 292.270404,70.4727962 C288.610216,67.6440462 288.154451,59.6716038 288.137571,59.3346808 C288.115064,58.8938731 288.452668,58.52045 288.892959,58.4979885 C289.364198,58.4699115 289.710242,58.8110462 289.732749,59.25045 C289.736969,59.3262577 290.16882,66.8298154 293.246642,69.2093346 C293.990777,69.7835077 294.920595,70.4040077 295.905272,71.0582 C299.475433,73.4307 303.91633,76.3872 304.577471,80.5453923 C305.407414,85.7677 301.758479,90.0143346 301.602337,90.1940269 C301.444789,90.3751231 301.222533,90.4663731 301.000277,90.4663731" id="Fill-64" fill="#1B1C1C"></path>
                    <path d="M282.654321,120.320004 C282.485519,120.320004 282.316718,120.266658 282.171829,120.157158 C281.818752,119.890427 281.749824,119.390658 282.018501,119.0411 L290.14772,108.326946 C290.358723,108.053196 290.72024,107.942292 291.045184,108.0546 C291.489695,108.207619 301.938535,111.691965 305.413041,103.872542 C308.232033,97.5299654 307.475238,92.99835 303.281917,91.1157923 C300.904623,90.0488692 295.72803,91.9609077 293.933103,92.7849654 C293.852922,92.8228692 293.767115,92.8467346 293.6799,92.8537538 C293.267742,92.8986769 292.035488,93.0194077 291.436242,92.1251577 C290.685073,90.9992731 291.617704,89.2739462 292.700849,87.2762731 C293.222729,86.3062154 293.762895,85.3052731 294.038605,84.4854269 C294.426849,83.3244462 293.222729,82.6379654 290.381229,81.3464269 C288.929533,80.6880231 287.280901,79.9369654 285.847491,78.8953115 C282.116969,76.1886962 280.151833,73.7347731 279.856429,73.1451577 C279.659494,72.7520808 279.818449,72.2733692 280.213727,72.0768308 C280.613225,71.8802923 281.084463,72.0375231 281.279992,72.4249846 C281.474115,72.7633115 283.179014,74.9870038 286.787155,77.6051769 C288.089743,78.5527731 289.658195,79.2659269 291.045184,79.89485 C293.698187,81.1021577 296.441219,82.3487731 295.556415,84.9908115 C295.235692,85.9426192 294.661765,87.0053308 294.106125,88.0329462 C293.543452,89.0703885 292.606602,90.8041385 292.771183,91.24635 C292.761337,91.2168692 292.871058,91.2856577 293.167868,91.2856577 C293.232575,91.2856577 293.30713,91.28285 293.392937,91.2786385 C294.55767,90.7550038 300.62188,88.1775423 303.937431,89.6614077 C306.328791,90.73535 311.399882,94.3320038 306.873178,104.519715 C303.307237,112.546908 293.543452,110.414465 291.085978,109.732196 L283.291549,120.002735 C283.134,120.210504 282.894864,120.320004 282.654321,120.320004" id="Fill-66" fill="#1B1C1C"></path>
                    <path d="M300.660985,104.715833 C300.421849,104.715833 300.186933,104.610544 300.029385,104.405583 C299.757895,104.057429 299.822602,103.55766 300.172866,103.288121 C300.260081,103.217929 302.389798,101.509448 301.783518,98.7859865 C301.185678,96.1046404 298.73805,95.6750635 298.633956,95.6568135 C298.199291,95.5852173 297.903887,95.1766981 297.972815,94.7443135 C298.041742,94.310525 298.44968,94.0157173 298.878718,94.0816981 C299.027827,94.1027558 302.505146,94.6727173 303.343529,98.4406404 C304.173472,102.169256 301.274299,104.454717 301.150511,104.550179 C301.004216,104.662487 300.832601,104.715833 300.660985,104.715833" id="Fill-68" fill="#1B1C1C"></path>
                    <path d="M295.684001,102.948812 C295.516606,102.948812 295.350617,102.896869 295.205729,102.790177 C294.913139,102.571177 294.813265,102.190735 294.938459,101.865042 C295.01864,101.118196 295.204322,99.5992346 296.987996,98.6853308 C299.061446,97.6156 302.572526,98.8622154 302.967804,99.0068115 C303.382776,99.1612346 303.592371,99.6188885 303.44045,100.031619 C303.287121,100.445754 302.824323,100.657735 302.413571,100.503312 C301.527361,100.179023 298.953132,99.4686769 297.716658,100.103215 C296.674306,100.638081 296.592718,101.408792 296.540671,101.919792 C296.513944,102.169677 296.488624,102.405523 296.324042,102.627331 C296.1679,102.837908 295.927357,102.948812 295.684001,102.948812" id="Fill-70" fill="#1B1C1C"></path>
                    <path d="M266.915652,92.7010154 C266.76795,92.7010154 266.617435,92.6603038 266.482394,92.5746692 C265.463955,91.9204769 263.822357,90.6373615 264.292189,89.3879385 C264.572119,88.6354769 266.480987,87.4183423 269.962527,85.7730346 C270.356398,85.5891308 270.83467,85.7547846 271.027385,86.1548808 C271.215881,86.5507654 271.045672,87.0280731 270.644768,87.2161885 C268.693699,88.1385154 266.42472,89.3823231 265.8522,89.9129769 C266.039289,90.2274385 266.703243,90.8184577 267.34891,91.2325923 C267.718868,91.4698423 267.825776,91.9654 267.589453,92.3346115 C267.434718,92.5718615 267.178702,92.7010154 266.915652,92.7010154" id="Fill-72" fill="#1B1C1C"></path>
                    <path d="M269.170002,98.8414385 C268.634056,98.8414385 267.207679,98.8063423 265.82913,98.4511692 C264.049677,97.9935154 262.242089,96.4169962 262.166128,96.3510154 C261.835558,96.0618231 261.803204,95.5578423 262.092981,95.2265346 C262.386978,94.8952269 262.89057,94.8643423 263.22114,95.1521308 C263.236614,95.1675731 264.820539,96.5433423 266.228628,96.9041308 C267.712678,97.2873808 269.320517,97.2424577 269.34021,97.2438615 C269.781909,97.2733423 270.149053,97.5793808 270.16312,98.0187846 C270.17578,98.4595923 269.829736,98.8245923 269.388037,98.8400346 C269.373971,98.8400346 269.29801,98.8414385 269.170002,98.8414385" id="Fill-74" fill="#1B1C1C"></path>
                    <path d="M272.388492,80.7476865 C272.388492,81.4790904 271.792058,82.0729173 271.059177,82.0729173 C270.324888,82.0729173 269.729861,81.4790904 269.729861,80.7476865 C269.729861,80.0162827 270.324888,79.4210519 271.059177,79.4210519 C271.792058,79.4210519 272.388492,80.0162827 272.388492,80.7476865" id="Fill-76" fill="#1B1C1C"></path>
                    <path d="M281.247639,87.0402865 C281.247639,87.7730942 280.652612,88.3669212 279.91973,88.3669212 C279.184035,88.3669212 278.589008,87.7730942 278.589008,87.0402865 C278.589008,86.3088827 279.184035,85.7150558 279.91973,85.7150558 C280.652612,85.7150558 281.247639,86.3088827 281.247639,87.0402865" id="Fill-78" fill="#1B1C1C"></path>
                    <path d="M152.363149,220.389246 C152.122606,220.389246 151.884877,220.282554 151.728735,220.076188 C151.460059,219.725227 151.526173,219.226862 151.877844,218.957323 L189.391258,190.330092 L190.990656,184.228977 C191.101784,183.802208 191.530822,183.542496 191.965487,183.660419 C192.393119,183.771323 192.649135,184.207919 192.536601,184.633285 L190.868275,190.999727 C190.823261,191.1724 190.723387,191.322612 190.581312,191.432112 L152.848455,220.2264 C152.703566,220.337304 152.533358,220.389246 152.363149,220.389246" id="Fill-80" fill="#1B1C1C"></path>
                    <path d="M60.3105363,258.852385 C60.0531134,258.852385 59.7999105,258.727442 59.6437687,258.495808 L48.3832736,241.537346 C48.1413242,241.169538 48.239792,240.675385 48.6083429,240.432519 C48.9698603,240.192462 49.4706394,240.285115 49.7168089,240.655731 L60.9787106,257.614192 C61.22066,257.982 61.1207855,258.476154 60.7522347,258.720423 C60.6171931,258.808865 60.4638647,258.852385 60.3105363,258.852385" id="Fill-82" fill="#1B1C1C"></path>
                    <path d="M113.470482,313.884838 C113.069578,313.884838 112.722127,313.583012 112.677113,313.174492 C112.627879,312.737896 112.94579,312.343415 113.383268,312.294281 L133.936309,310.036896 C134.365347,309.997588 134.770472,310.302223 134.818299,310.743031 C134.867533,311.179627 134.549623,311.574108 134.112144,311.623242 L113.557697,313.880627 C113.529563,313.883435 113.500023,313.884838 113.470482,313.884838" id="Fill-84" fill="#1B1C1C"></path>
                    <path d="M119.737395,333.670365 C119.368844,333.670365 119.038273,333.414865 118.956686,333.042846 L116.13488,320.102192 C116.042039,319.671212 116.314936,319.24725 116.74538,319.153192 C117.178639,319.061942 117.60205,319.334288 117.696298,319.762462 L120.51951,332.704519 C120.612351,333.132692 120.339455,333.558058 119.907603,333.652115 C119.849929,333.66475 119.793662,333.670365 119.737395,333.670365" id="Fill-86" fill="#1B1C1C"></path>
                    <path d="M129.849333,326.389177 C129.407635,326.389177 129.050337,326.031196 129.050337,325.591792 L129.050337,317.730254 C129.050337,317.289446 129.407635,316.932869 129.849333,316.932869 C130.289625,316.932869 130.646922,317.289446 130.646922,317.730254 L130.646922,325.591792 C130.646922,326.031196 130.289625,326.389177 129.849333,326.389177" id="Fill-88" fill="#1B1C1C"></path>
                    <path d="M33.1206256,256.798838 C32.8646094,256.798838 32.6142199,256.6753 32.4580781,256.449281 C32.2119086,256.084281 32.3061563,255.588723 32.6718938,255.340242 L43.5891583,247.941973 C43.9591159,247.699108 44.4542682,247.791762 44.7004377,248.155358 C44.9480138,248.520358 44.8551728,249.015915 44.4894353,249.264396 L33.5693574,256.661262 C33.4315025,256.753915 33.273954,256.798838 33.1206256,256.798838" id="Fill-90" fill="#1B1C1C"></path>
                    <path d="M44.0402815,263.560323 C43.7617583,263.560323 43.4916752,263.414323 43.3453802,263.156015 C43.1273444,262.772765 43.2609792,262.287035 43.6450036,262.069438 L50.9161465,257.944938 C51.2973575,257.721727 51.7868831,257.8579 52.0049189,258.243958 C52.2229548,258.625804 52.0893199,259.112938 51.7052955,259.330535 L44.4341526,263.456438 C44.3089579,263.528035 44.1739163,263.560323 44.0402815,263.560323" id="Fill-92" fill="#1B1C1C"></path>
                    <path d="M182.121803,59.5995865 L212.350008,56.4788365 C212.350008,56.4788365 212.141819,52.9425481 213.600549,47.1165865 C215.060685,41.2920288 219.041597,37.0917212 219.041597,37.0917212 L205.887707,23.9208365 L195.464189,22.6714135 C195.464189,22.6714135 187.647253,22.8805865 184.206507,32.658375 C180.767168,42.4361635 182.121803,59.5995865 182.121803,59.5995865" id="Fill-94" fill="#1B1C1C"></path>
                    <path d="M208.388649,38.3786269 L235.906176,35.0501077 C235.906176,35.0501077 236.219866,28.9138962 233.61469,25.5853769 C231.008107,22.2568577 224.128021,20.2788385 224.128021,20.2788385 L195.464048,22.6723962 C195.464048,22.6723962 203.906958,24.3359538 205.783472,28.3930692 C207.65858,32.4501846 208.388649,38.3786269 208.388649,38.3786269" id="Fill-96" fill="#34E0A1"></path>
                    <path d="M56.4271074,364.245152 C56.1345174,364.245152 55.8517741,364.08371 55.7111059,363.805748 C55.515577,363.409863 55.6745321,362.931152 56.0684033,362.734613 C56.1528042,362.692498 64.6955883,358.148248 73.0400301,337.403613 C81.4618395,316.472267 79.2631944,294.937267 79.2406875,294.722479 C79.1942669,294.284479 79.5107706,293.889998 79.9496556,293.843671 C80.3815071,293.793133 80.7824117,294.11321 80.8302389,294.549806 C80.8527459,294.77021 83.0978115,316.684248 74.5226737,338.000248 C65.9095555,359.410306 57.1529556,363.978421 56.7844048,364.160921 C56.6690568,364.218479 56.5466754,364.245152 56.4271074,364.245152" id="Fill-98" fill="#1B1C1C"></path>
                </g>
            </g>
        </g>
    </g>
</svg>