
<svg width="406px" height="416px" viewBox="0 0 406 416" version="1.1" xmlns="http://www.w3.org/2000/svg" xmlns:xlink="http://www.w3.org/1999/xlink">
    <g id="0.0-Home" stroke="none" stroke-width="1" fill="none" fill-rule="evenodd">
        <g id="Group-71" transform="translate(2.000000, 0.000000)">
            <path d="M383.907538,119.342079 L34.9693187,112.004621 C23.7121019,111.768167 14.3675765,120.635186 14.0229074,131.878565 L8.00968974,328.812092 C7.65762435,340.374684 16.9444584,349.94072 28.5241553,349.94072 L270.162311,349.94072 C270.162311,349.94072 285.12509,374.930934 297.515425,388.011264 C309.90576,401.088638 328.139197,413 328.139197,413 C328.139197,413 323.229512,407.861563 317.853858,390.813242 C312.476725,373.763443 312.944173,349.94072 312.944173,349.94072 L369.60895,349.94072 C380.363216,349.94072 389.295026,341.647102 390.077558,330.93131 L403.9442,141.336719 C404.802175,129.624865 395.65883,119.588878 383.907538,119.342079" id="Fill-1" fill="#FFFFFF"></path>
            <path d="M375.907538,113.342079 L26.9693187,106.004621 C15.7121019,105.768167 6.36757645,114.635186 6.0229074,125.878565 L0.0096897362,322.812092 C-0.342375652,334.374684 8.94445841,343.94072 20.5241553,343.94072 L262.162311,343.94072 C262.162311,343.94072 277.12509,368.930934 289.515425,382.011264 C301.90576,395.088638 320.139197,407 320.139197,407 C320.139197,407 315.229512,401.861563 309.853858,384.813242 C304.476725,367.763443 304.944173,343.94072 304.944173,343.94072 L361.60895,343.94072 C372.363216,343.94072 381.295026,335.647102 382.077558,324.93131 L395.9442,135.336719 C396.802175,123.624865 387.65883,113.588878 375.907538,113.342079" id="Fill-1" stroke="#242424" stroke-width="3"></path>
            <path d="M128,69.202997 C128,69.202997 117.027616,54.7261883 111.8229,42.6590092 C106.324082,29.9023188 105.943829,11.7437249 107.209359,11.7071267 C107.209359,11.7071267 102.147239,10.7453244 100.235575,15.2161681 C98.4754186,20.5375554 99.1854227,33.9149523 94.4233455,35.0055805 C91.9591265,35.1212311 83.087047,29.0590949 79.5667342,21.4246973 C76.044936,13.7888359 75.673595,0.898927829 72.1517968,0.032280975 C68.631484,-0.83582981 57.011481,15.9949791 58.0675748,27.6215151 C59.1236687,39.2465872 61.960714,46.2192881 73.0519274,55.5694122 C84.1446262,64.9195363 97.8560218,70.4795443 102.785945,74.4702189 C107.715868,78.4608934 115.340242,87 115.340242,87 L128,69.202997 Z" id="Fill-3" fill="#FFFFFF"></path>
            <path d="M88,98.5721796 C88,98.5721796 66.9653061,74.1764266 62.9954362,66.9152211 C59.0240884,59.6510506 59.0728619,31.5357459 59.0728619,31.5357459 C59.0728619,31.5357459 52.9510447,30.3645837 50.6158271,36.2218771 C48.2791316,42.080653 50.6158271,54.2622221 46.878001,54.2622221 C43.140175,54.2622221 35.6482649,46.646703 33.3115694,42.1948042 C30.9748738,37.7429055 29.7289318,18.4528266 24.1229316,17.047432 C18.5184095,15.6420374 5.76782598,45.828372 8.33804329,59.6510506 C10.9067826,73.4737293 21.6517394,76.9872159 32.8637397,83.5472066 C44.074262,90.1086797 68.2629776,120 68.2629776,120 L88,98.5721796 Z" id="Fill-5" fill="#FFFFFF"></path>
            <path d="M128.102265,70 C127.835521,70 127.573223,69.8834086 127.395394,69.6590807 C126.838196,68.9477253 113.67883,52.1024755 109.28941,37.7646795 C105.513502,25.4236966 105.949184,14.9496526 106.181844,11.9359851 C105.698741,11.9418885 104.938521,12.0053497 104.119024,12.4451503 C102.36296,13.3867369 100.934398,15.6108294 99.9874576,18.8842449 C98.9130724,22.6018885 98.870097,25.6922997 98.837495,28.1731885 C98.7900739,31.7314413 98.7530261,34.5414427 95.0008285,35.0594629 C89.2702802,35.8608446 83.7768377,29.6505054 80.5492364,23.5803711 C77.3675744,17.5943598 75.1165522,7.51141364 75.0217099,7.08489558 C74.9135304,6.60377139 75.2202859,6.12707473 75.7048707,6.01933833 C76.1983469,5.91898114 76.6681126,6.21857687 76.7748101,6.7011769 C76.7970388,6.80300993 79.0673258,16.9715548 82.1363627,22.7420934 C84.9445832,28.0285561 89.9578867,33.962913 94.7548313,33.2899295 C96.8843368,32.9947612 96.9925163,31.901163 97.0429013,28.1510509 C97.0755033,25.6952514 97.1184787,22.3391888 98.2625137,18.3883623 C99.3724647,14.5541272 101.076662,12.0127289 103.330648,10.8379594 C105.498683,9.70746514 107.364409,10.3110841 107.439986,10.3361734 C107.841584,10.470475 108.09499,10.8674762 108.046087,11.2866151 C108.03275,11.4032065 106.728669,23.2615894 111.008427,37.2451835 C115.30004,51.2671494 128.674283,68.3824782 128.809137,68.5551516 C129.11441,68.9432978 129.046242,69.5055932 128.6565,69.8096165 C128.492008,69.9380147 128.296396,70 128.102265,70" id="Fill-7" fill="#1D1D1B"></path>
            <path d="M82.1221688,36 C82.0768356,36 82.03004,35.9970204 81.9817821,35.9895714 C81.787288,35.9567959 77.1165061,35.0927138 72.9853355,25.2108916 C69.0047881,15.6881105 67.033525,4.17198122 67.013052,4.05875666 C66.9296974,3.56563392 67.2543416,3.09932752 67.7369208,3.01291931 C68.2268118,2.92949069 68.6772191,3.25873578 68.7605737,3.75185852 C68.7795844,3.86359328 70.7172131,15.1786 74.6158683,24.5017483 C78.3054058,33.3287943 82.236233,34.2003255 82.2757167,34.2092642 C82.7495218,34.3031214 83.0712412,34.767938 82.9864243,35.2551016 C82.9118439,35.6901223 82.5447912,36 82.1221688,36" id="Fill-9" fill="#1D1D1B"></path>
            <path d="M80.1180326,44 C80.0118536,44 79.9013111,43.9810163 79.7965866,43.9401285 C79.5158667,43.829147 72.8745873,41.1422288 67.6310892,32.8595112 C62.4777705,24.7213616 59.1338587,19.3533662 59.1338587,19.3533662 C58.8764109,18.9401065 59.0014986,18.3939611 59.4131241,18.134031 C59.8291131,17.8770214 60.3716442,17.9996851 60.6276375,18.4158654 C60.6276375,18.4158654 63.9700948,23.7794799 69.1175954,31.9088679 C74.0571016,39.7096925 80.3754804,42.2666457 80.4394787,42.2914705 C80.8932849,42.4710851 81.117279,42.9851042 80.9383747,43.4392518 C80.801651,43.7867989 80.4685689,44 80.1180326,44" id="Fill-11" fill="#1D1D1B"></path>
            <path d="M73.0918685,49 C72.9867701,49 72.8801704,48.9821207 72.775072,48.9433822 C72.5678781,48.8673951 67.6372634,46.9990067 63.4288246,40.4611373 C59.3374955,34.105041 54,25.9878321 54,25.9878321 L55.5239263,25 C55.5239263,25 60.865926,33.1291284 64.960258,39.4867147 C68.8188693,45.4822448 73.3651243,47.2344177 73.408665,47.2508071 C73.8786048,47.4266203 74.1188297,47.9481003 73.9416639,48.4129625 C73.8065374,48.7765086 73.4597128,49 73.0918685,49" id="Fill-13" fill="#1D1D1B"></path>
            <path d="M117.090545,89 C116.844369,89 116.598192,88.9023751 116.419565,88.7086043 C116.380537,88.6657085 112.42821,84.4012734 108.553939,80.4519005 C104.480025,76.2954445 96.6594321,71.8002594 88.8118194,67.5594909 C79.9885089,62.7877019 67.8148022,52.0178953 67.2999339,51.5593539 C66.9276677,51.230979 66.8976462,50.6629794 67.2338867,50.2961462 C67.5716282,49.9293131 68.1450383,49.8982506 68.5188057,50.2310629 C68.6433948,50.3405212 81.0482669,61.3159318 89.6854442,65.9871376 C97.6591471,70.2959478 105.620841,74.8798827 109.862875,79.2049637 C113.755159,83.1750449 117.722497,87.45723 117.761525,87.5001258 C118.100767,87.8654798 118.075249,88.4334795 117.702983,88.7662918 C117.528858,88.9230834 117.309701,89 117.090545,89" id="Fill-15" fill="#1D1D1B"></path>
            <path d="M87.1119079,99 C86.8772865,99 86.6455979,98.9078442 86.4710983,98.7220461 C85.4915541,97.6860362 62.4927948,73.2632547 60.7258027,64.9008563 C59.1509068,57.4466387 57.8370271,36.2478249 57.5701453,31.7500258 C56.0407073,31.7886718 52.4319375,32.4382218 50.3848661,37.3997728 C49.1926963,40.2937631 49.1941626,43.9071635 49.1985618,47.0939716 C49.2014946,50.4145543 49.2029609,53.0380227 47.7761698,54.114165 C47.1206963,54.6076446 46.274593,54.7012868 45.2642548,54.3906325 C39.7961106,52.7318275 31.8893706,43.7778481 30.1590381,37.288294 C28.4287055,30.8002262 27.0253765,22.133119 27.012179,22.0483951 C26.9315279,21.5534291 27.2599978,21.0926499 27.7439044,21.0123852 C28.220479,20.930634 28.6838562,21.2620977 28.7645073,21.7555774 C28.7777048,21.8417876 30.1693028,30.4197118 31.8732404,36.8171101 C33.5786445,43.213022 41.2756916,51.298953 45.7745563,52.667913 C46.224736,52.8002012 46.5385421,52.8061467 46.7174409,52.6693994 C47.4271705,52.134301 47.4227713,49.4573228 47.421305,47.0969444 C47.4183722,43.9056772 47.413973,39.9340581 48.7469157,36.7071177 C51.8791109,29.105748 58.4763704,29.9812284 58.5394249,29.9946059 C58.9573442,30.0585204 59.274083,30.4093071 59.2975451,30.8358994 C59.312209,31.0900712 60.7624623,56.4804889 62.4634672,64.5248011 C64.1263461,72.3907471 87.5180961,97.2282298 87.7541839,97.4779424 C88.0914521,97.836161 88.0811874,98.4054463 87.7263226,98.7502874 C87.5547557,98.9167625 87.3318654,99 87.1119079,99" id="Fill-17" fill="#1D1D1B"></path>
            <path d="M32.0565158,55 C31.8073915,55 31.5598243,54.9052609 31.3729811,54.7172864 C31.2188355,54.5593879 27.5426955,50.7923799 23.6501288,43.4508498 C19.746663,36.0912742 18.0775304,24.5225747 18.0090212,24.0338411 C17.937398,23.5360848 18.3001852,23.0759233 18.815561,23.0097563 C19.3200377,22.9360703 19.807387,23.2879585 19.8774532,23.7887225 C19.8930235,23.9030109 21.5746123,35.5393812 25.3301606,42.6237623 C29.0841519,49.7051357 32.7042389,53.4240222 32.7400505,53.4616171 C33.0997237,53.8255356 33.0841534,54.4029931 32.7057959,54.7488661 C32.5251808,54.9157874 32.2900698,55 32.0565158,55" id="Fill-19" fill="#1D1D1B"></path>
            <path d="M24.0618713,61 C23.8433572,61 23.6263929,60.9310595 23.4497219,60.790306 C23.254454,60.6351898 18.6811557,56.9526179 16.2372074,52.2488647 C13.8273535,47.6169245 11.1369957,36.527557 11.0223146,36.0593361 C10.9107329,35.5896789 11.2284307,35.1228942 11.7336476,35.0180472 C12.2528123,34.923254 12.7409821,35.2105061 12.8556632,35.6772908 C12.8835586,35.7907554 15.6142098,47.0395477 17.9279795,51.4948279 C20.2061051,55.8754225 24.6306279,59.4359123 24.6740207,59.4718188 C25.0661063,59.7849236 25.1110489,60.3350114 24.7732044,60.6983853 C24.587235,60.8994618 24.325328,61 24.0618713,61" id="Fill-21" fill="#1D1D1B"></path>
            <path d="M23.1002511,70 C22.9549431,70 22.8051869,69.9661034 22.6687753,69.8894677 C22.5205019,69.8069369 19.0197658,67.8792533 15.2951368,64.5293872 C11.4934056,61.111728 7.24388864,50.6686348 7.0659605,50.2250318 C6.87913596,49.7666911 7.10302886,49.2464524 7.56267655,49.0637056 C8.02677244,48.8824326 8.54721224,49.1005497 8.73255405,49.5588904 C8.77407061,49.6635276 13.0028293,60.0638817 16.4976345,63.2044732 C20.0621281,66.4069628 23.5005894,68.3066449 23.5346923,68.3258039 C23.9706162,68.5616061 24.1277861,69.1054251 23.8875831,69.5387118 C23.7244823,69.8319909 23.4175563,70 23.1002511,70" id="Fill-23" fill="#1D1D1B"></path>
            <path d="M68.1058972,120 C67.8550048,120 67.6026366,119.892652 67.4270119,119.683921 C67.3059932,119.54079 55.2956266,105.347039 47.2523116,96.5415451 C39.4333238,87.9805658 32.8496122,83.5211633 22.7017527,77.8198075 C12.9405626,72.3376199 10.1955047,66.5289165 10.0818652,66.2829113 C9.87672372,65.8311564 10.0700585,65.2973998 10.5172373,65.0871772 C10.9658919,64.8709908 11.4971934,65.0722678 11.7052865,65.5210408 C11.7303758,65.5776965 14.3706493,71.0747935 23.5724969,76.2423926 C33.6568954,81.9064749 40.6272765,86.6238101 48.565807,95.3159921 C56.6312597,104.146832 68.6652396,118.36742 68.7847825,118.50906 C69.1065151,118.889249 69.06224,119.46028 68.6873772,119.782323 C68.5176559,119.928435 68.3125144,120 68.1058972,120" id="Fill-25" fill="#1D1D1B"></path>
            <path d="M132.360819,64 C132.360819,64 168.267017,103.767667 170.368367,104.823209 C172.471195,105.878752 170.72007,106.583931 171.594894,109.046863 C172.471195,111.509795 177.726049,107.991321 178.250648,110.981282 C178.776725,113.972727 177.900423,117.844533 183.505502,124.531119 C189.110581,131.217705 214.974037,148.235541 214.974037,148.235541 L243.222571,173.809059 C243.222571,173.809059 270.615492,173.918919 279.022371,189.814406 C287.42925,205.708408 267.345246,247.002232 250.53001,269.055791 C233.716251,291.110835 219.469331,307.065706 219.469331,307.065706 L219.937776,350 L77.3621834,350 C77.3621834,350 67.9046288,340.26407 77.3621834,315.979174 C86.8212159,291.697248 126.405515,262.83982 135.16262,251.224401 C143.921202,239.611951 150.226731,207 150.226731,207 C150.226731,207 125.004615,192.100672 108.539604,177.32011 C92.0760697,162.539549 63,124.531119 63,124.531119 L92.7765198,92.1537328 C92.7765198,92.1537328 115.545583,118.0212 125.004615,127.874412 C134.46217,137.729109 135.864548,141.422765 139.016574,140.895736 C142.168599,140.367223 145.497954,140.367223 146.548629,143.358668 C147.599304,146.351598 145.846701,148.462683 148.825831,147.230475 C151.802005,145.998266 161.436889,154.093726 161.436889,154.093726 L109.76613,96.3773865 L132.360819,64 Z" id="Fill-27" fill="#473FF4"></path>
            <path d="M256.533556,58.9614779 C256.533556,58.9614779 247.657704,52.2981527 238.953673,58.9614779 C230.251109,65.6248031 232.164616,77.5474802 232.164616,77.5474802 C232.164616,77.5474802 208.841276,100.694546 206.578257,115.774314 C203.213833,133.456388 215.628864,139.97473 215.628864,139.97473 C215.628864,139.97473 214.063401,156.807615 212.148426,163.996136 C210.233451,171.186136 211.208561,167.292292 211.208561,167.292292 L242.773343,174 C242.773343,174 241.389979,166.451979 243.304954,157.683434 C245.219929,148.917847 260.884837,131.556808 260.884837,131.556808 C260.884837,131.556808 278.814233,137.694938 285.776577,121.912444 C292.738922,106.131429 286.995465,92.2781038 281.946627,87.0172725 C276.899257,81.7564411 268.195226,83.158935 266.977806,79.6527004 C265.758919,76.1449863 267.32585,64.5729327 256.533556,58.9614779" id="Fill-29" fill="#FFFFFF"></path>
            <path d="M222.875621,136 C222.41264,136 222.027786,135.641367 222.001744,135.179033 C221.97136,134.697975 222.341746,134.28461 222.823536,134.255805 C222.859706,134.254364 226.453601,134.039761 231.62308,133.30233 C236.767963,132.569221 244.778991,130.064551 244.860013,130.038625 C245.322995,129.898917 245.814913,130.149528 245.959594,130.607541 C246.104276,131.066995 245.848189,131.556695 245.386655,131.702164 C245.053887,131.807306 237.158604,134.277409 231.873379,135.029242 C226.624325,135.778195 222.96243,135.995679 222.92626,135.99856 C222.908898,136 222.892983,136 222.875621,136" id="Fill-31" fill="#1D1D1B"></path>
            <path d="M222.447838,137.572485 L217.846617,137.993036 C216.911639,138.079532 216.087159,137.350279 216.006411,136.364519 C215.925663,135.380251 216.61698,134.512305 217.553374,134.428792 L222.153179,134.006749 C223.088156,133.921744 223.912636,134.649506 223.993384,135.635266 C224.075549,136.619534 223.382816,137.48748 222.447838,137.572485" id="Fill-33" fill="#FF4D00"></path>
            <path d="M171.06604,220 C171.06604,220 145.426305,269.937351 135.122444,294.202851 C124.817084,318.466867 117,350 117,350 L166.035525,350 C166.035525,350 165.791195,313.074369 171.06604,284.999258 C176.340885,256.925631 187,225.62689 187,225.62689 C187,225.62689 177.162316,223.400167 171.06604,220" id="Fill-35" fill="#FECD2F"></path>
            <path d="M233.149914,144 C233.130868,144 233.111822,144 233.092775,143.99851 C232.54337,143.961263 219.619894,143.08223 215.019541,141.103661 C210.662391,139.227893 203.060087,131.52071 205.456959,115.76367 C207.622349,101.541213 228.118827,79.9780844 230.943502,77.0638662 C230.829226,75.2625934 230.716415,68.3465399 234.916801,61.1816754 C239.877564,52.71614 251.208498,55.3964459 251.322774,55.4247537 C251.79746,55.5424548 252.090476,56.0296477 251.974735,56.5138608 C251.860458,56.9995638 251.378447,57.2900917 250.903761,57.18133 C250.804135,57.154512 240.728776,54.7900621 236.44195,62.1054051 C231.960268,69.7485232 232.735296,77.2292436 232.744086,77.3007582 C232.773388,77.5748973 232.679623,77.8490365 232.489162,78.0412318 C232.259145,78.2766339 209.399491,101.667853 207.210661,116.037809 C204.982273,130.696803 211.794898,137.755885 215.711059,139.437967 C220.035977,141.300326 233.07666,142.186808 233.207052,142.195747 C233.697854,142.230015 234.067054,142.659102 234.034822,143.155234 C234.004056,143.633488 233.614344,144 233.149914,144" id="Fill-37" fill="#1D1D1B"></path>
            <path d="M242.953238,175 C242.504957,175 242.129521,174.61776 242.107107,174.125873 C242.079089,173.57764 241.471108,160.621066 243.492576,154.240243 C245.519649,147.835054 249.379071,143.461373 249.544375,143.278629 C249.869379,142.916186 250.407317,142.905526 250.742127,143.257309 C251.078338,143.61366 251.086743,144.196919 250.761739,144.563931 C250.723915,144.606571 246.996176,148.838625 245.096583,154.8433 C243.184383,160.886046 243.793766,173.897443 243.80077,174.028409 C243.825986,174.537048 243.467361,174.971065 242.998066,174.998477 C242.982656,175 242.968648,175 242.953238,175" id="Fill-39" fill="#1D1D1B"></path>
            <path d="M242.902344,79 L242.881469,79 C242.383461,78.9883742 241.988335,78.5858295 242.000263,78.0989975 C242.004736,77.8868259 242.156823,72.8426652 245.039007,67.2215721 C247.548431,62.3314537 253.543912,62.649711 256.363473,63.4998505 C256.840606,63.642267 257.106012,64.1349119 256.95989,64.5984923 C256.813768,65.0620726 256.311286,65.3280136 255.831171,65.1812374 C255.559801,65.1013098 249.103588,63.2397224 246.655297,68.0077695 C243.950546,73.2800873 243.807406,78.0917313 243.805915,78.1396879 C243.793987,78.6178006 243.392897,79 242.902344,79" id="Fill-41" fill="#1D1D1B"></path>
            <path d="M257.952742,107 C257.9401,107 257.924298,107 257.910076,106.99851 C257.380704,106.977644 256.973008,106.554376 256.998291,106.056588 C257.143671,102.971495 256.849751,94.4077563 253.760427,91.8904999 C249.222044,88.1928603 247.755603,82.3073389 250.113287,77.2445088 C252.518377,72.0743711 259.605649,71.0489878 259.90431,71.0072571 C260.425782,70.9461514 260.915649,71.2770164 260.989919,71.770333 C261.065769,72.2621593 260.70548,72.7211972 260.182428,72.7957164 C260.1208,72.8046587 253.841018,73.7257152 251.867327,77.9703252 C249.84939,82.3043582 251.113564,87.3478133 255.013539,90.5253093 C259.434986,94.1290547 258.932477,105.649713 258.908773,106.138559 C258.88665,106.622933 258.461572,107 257.952742,107" id="Fill-43" fill="#1D1D1B"></path>
            <path d="M267.103873,80 C266.867102,80 266.630331,79.9074331 266.454232,79.7237687 C264.858987,78.057565 264.175311,70.29811 264.002172,67.9589598 C263.968136,67.4682084 264.338091,67.0435762 264.83235,67.005374 C265.285175,66.9495401 265.755758,67.33597 265.792753,67.82966 C266.121273,72.3184188 266.96477,77.6726043 267.753513,78.4968903 C268.093872,78.8524646 268.080553,79.4166818 267.720957,79.7546243 C267.547818,79.9177183 267.325846,80 267.103873,80" id="Fill-45" fill="#1D1D1B"></path>
            <path d="M280.935962,131 C280.656341,131 280.379809,130.881742 280.19597,130.656905 C279.879272,130.27147 279.95497,129.715218 280.361271,129.415922 C280.447784,129.351683 289.043437,122.863531 289.12686,107.952755 C289.210283,93.1441776 282.215114,88.6722587 282.14405,88.6299193 C281.713032,88.362743 281.586352,87.8167104 281.865974,87.407916 C282.142505,87.0005816 282.717197,86.8750233 283.151305,87.1378197 C283.477273,87.331997 291.087299,92.0827721 290.999242,107.962975 C290.909639,123.789159 281.890692,130.537186 281.504474,130.817502 C281.336084,130.940141 281.135251,131 280.935962,131" id="Fill-47" fill="#1D1D1B"></path>
            <path d="M221.491326,108 C220.3271,108 218.750574,107.613972 218.115811,106.15821 C217.998646,105.890436 217.911144,105.46363 218.15882,104.944395 C219.007148,103.16513 223.822745,101.392662 224.777856,101.055567 C225.246513,100.891097 225.761145,101.1045 225.940599,101.527228 C226.117087,101.952675 225.887208,102.428414 225.424484,102.591525 C222.619958,103.581062 219.937047,105.030028 219.79467,105.62946 C220.211418,106.526568 221.8532,106.330835 221.873964,106.329476 C222.34262,106.269669 222.817209,106.579579 222.886915,107.028133 C222.95662,107.476687 222.621441,107.89126 222.132021,107.957863 C221.942186,107.98233 221.725654,108 221.491326,108" id="Fill-49" fill="#1D1D1B"></path>
            <path d="M214.079129,114.921676 C213.652212,116.67293 213.705576,122.843731 214.507528,125.108232 C215.918725,124.222252 219.255496,118.401997 219.208061,117.190615 C218.984226,116.698075 216.609501,115.63904 214.079129,114.921676 M214.320752,127 C213.717435,127 213.19713,126.637621 212.92586,126.000129 C211.947509,123.674985 211.49391,114.909844 212.841366,113.399683 C213.143766,113.06097 213.584024,112.923414 213.987223,113.041741 C216.459783,113.68515 220.647423,115.041483 220.980952,116.903669 C221.32041,118.80727 217.039382,126.264888 214.792139,126.927524 C214.632045,126.974855 214.473434,127 214.320752,127" id="Fill-51" fill="#1D1D1B"></path>
            <path d="M237.108967,105 C236.973871,105 236.832902,104.971046 236.702211,104.907623 C236.619979,104.867638 234.658153,103.909395 232.91806,102.376206 C231.017908,100.701005 230.995881,99.0064999 231.000287,98.8203664 C231.009097,98.3653733 231.407043,98 231.890157,98 L231.907778,98 C232.393829,98.0096514 232.782964,98.3832972 232.780027,98.8396691 C232.781496,98.911365 232.825549,100.00197 234.136859,101.158755 C235.687524,102.527871 237.49957,103.415797 237.51866,103.422691 C237.954784,103.635021 238.125122,104.139649 237.901921,104.549143 C237.74333,104.835927 237.432022,105 237.108967,105" id="Fill-53" fill="#1D1D1B"></path>
            <path d="M223.207825,97 C222.800343,97 222.310581,96.9409134 221.742457,96.7698084 C220.064205,96.270034 219.204835,95.2495588 219.168266,95.2064748 C218.897917,94.8827293 218.960607,94.4137292 219.304094,94.1601492 C219.642356,93.9041071 220.138648,93.9619628 220.410303,94.2844773 C220.432506,94.3090967 221.046341,94.9984406 222.220465,95.3492675 C223.279657,95.6643961 223.812518,95.4194328 223.833415,95.4095851 C224.214776,95.2249394 224.692784,95.3541913 224.896526,95.7050182 C225.104185,96.057076 224.991866,96.4928398 224.626177,96.699643 C224.553039,96.741496 224.060665,97 223.207825,97" id="Fill-55" fill="#1D1D1B"></path>
            <path d="M68.9051649,134 C68.6782128,134 68.4527537,133.913763 68.2780603,133.745751 C67.9167286,133.402291 67.9062768,132.831346 68.2541706,132.474505 L99.4451602,100.275554 C99.7915608,99.9157396 100.364914,99.9083054 100.723259,100.253252 C101.083098,100.598198 101.093549,101.167657 100.745656,101.524498 L69.5546661,133.721961 C69.3784796,133.907816 69.1410757,134 68.9051649,134" id="Fill-57" fill="#1D1D1B"></path>
            <path d="M119.872925,109 C119.697091,109 119.521257,108.9452 119.368483,108.834119 C118.973577,108.54679 118.882777,107.985461 119.160941,107.584088 L141.416933,75.378018 C141.693656,74.9722023 142.241336,74.8803753 142.631918,75.1647426 C143.025383,75.452072 143.117624,76.0119199 142.83946,76.4147735 L120.583468,108.620844 C120.41484,108.868184 120.145324,109 119.872925,109" id="Fill-59" fill="#1D1D1B"></path>
            <path d="M211.682493,169 C211.608949,169 211.533934,168.990853 211.46039,168.971035 L161.668134,155.639291 C161.190098,155.509708 160.906218,155.006624 161.028301,154.512686 C161.151855,154.021797 161.637246,153.722996 162.113811,153.849529 L211.048543,166.952598 C211.633954,164.629261 213.203384,158.028181 213.968242,151.329532 C214.924314,142.899053 215.222903,139.840908 215.224374,139.833285 C215.272913,139.325627 215.749478,138.942978 216.198097,139.007007 C216.689371,139.057315 217.045324,139.511616 216.995314,140.01775 C216.995314,140.01775 216.698196,143.083517 215.73624,151.546011 C214.777226,159.973441 212.56355,168.242324 212.540016,168.326171 C212.431171,168.733213 212.073747,169 211.682493,169" id="Fill-61" fill="#1D1D1B"></path>
            <path d="M245.160944,235 C231.896993,235 189.091612,227.325618 187.203726,226.986871 L171.360549,221.410679 C171.299983,221.390238 171.239417,221.359575 171.18476,221.327453 C165.934723,218.068469 151.825802,209.455231 149.611451,208.725172 C149.143172,208.568939 148.890568,208.068119 149.045676,207.605261 C149.203738,207.140944 149.714856,206.892724 150.178703,207.044576 C152.980988,207.971751 170.511148,218.82043 172.054842,219.778267 L187.664618,225.282913 C188.004378,225.331097 235.643221,233.874249 246.545099,233.193834 C257.114602,232.538241 265.28067,220.629516 265.36044,220.509786 C265.63668,220.102413 266.195069,219.998745 266.601304,220.264487 C267.011971,220.537529 267.12424,221.086533 266.849477,221.492446 C266.497899,222.010788 258.117634,234.248039 246.657368,234.959117 C246.212725,234.985399 245.711947,235 245.160944,235" id="Fill-63" fill="#1D1D1B"></path>
            <path d="M186.905938,328 C186.504594,328 186.139191,327.73398 186.031367,327.331234 C185.90108,326.852695 186.18861,326.359295 186.672319,326.23 C186.723236,326.215138 192.056019,324.757229 202.799456,318.91073 C213.496469,313.090981 218.303611,306.446421 218.35303,306.379544 C218.645052,305.973826 219.211127,305.878713 219.616964,306.165539 C220.024298,306.452366 220.123136,307.014129 219.834109,307.419847 C219.631939,307.706673 214.733447,314.470125 203.671031,320.489017 C192.698468,326.463325 187.361193,327.909345 187.139556,327.968791 C187.061683,327.988111 186.982313,328 186.905938,328" id="Fill-65" fill="#1D1D1B"></path>
            <path d="M99.9126389,338 L99.8855409,338 C99.3827213,337.98541 98.9867886,337.578359 99.0003376,337.089605 C99.0033485,337.002067 99.2833618,328.243894 101.412065,316.669915 C103.570877,304.932533 112.985947,293.78895 113.383385,293.32208 C113.708562,292.944208 114.282137,292.891685 114.669037,293.202445 C115.057443,293.513205 115.111639,294.071989 114.790979,294.446943 C114.69463,294.559284 105.281065,305.707244 103.208064,316.980675 C101.104954,328.41751 100.826446,337.056049 100.823435,337.140669 C100.809886,337.61921 100.403415,338 99.9126389,338" id="Fill-67" fill="#1D1D1B"></path>
            <path d="M205.468174,295 C204.052973,295 202.657866,294.816716 201.693348,294.254943 C201.257018,294.001623 201.004407,293.584391 201,293.109045 C200.984312,291.753041 202.822925,290.508795 208.519611,287.007027 C212.838413,284.351643 218.210722,281.04955 221.025335,278.005246 C221.7559,277.213995 222.113288,276.541954 222.001335,276.164955 C221.681265,275.078661 218.166227,274.291881 215.064555,273.595998 C210.886412,272.658716 206.152809,271.599244 202.79996,269.155457 C201.298642,268.060223 201.149371,266.868131 201.288595,266.060489 C202.281819,260.310138 223.639007,254.199179 227.910444,253.03242 C228.365433,252.898309 228.851998,253.193352 228.971127,253.676149 C229.093127,254.157456 228.817551,254.650684 228.35108,254.777344 C218.879569,257.365672 203.618079,262.80608 203.000902,266.379374 C202.973631,266.537326 202.890384,267.015653 203.79749,267.678754 C206.861845,269.909455 211.416036,270.931673 215.431991,271.830212 C219.851264,272.821138 223.044795,273.537883 223.663407,275.637454 C223.982042,276.719277 223.528489,277.902428 222.278347,279.255452 C219.301546,282.478569 213.814413,285.850698 209.406623,288.561216 C206.926433,290.085603 203.915185,291.934835 202.983678,292.879567 C204.961515,293.588862 208.988952,292.928741 210.483094,292.586015 C210.962482,292.478727 211.417471,292.78569 211.520812,293.271467 C211.624153,293.758735 211.328483,294.241532 210.859141,294.34882 C210.440035,294.445677 207.925398,295 205.468174,295" id="Fill-69" fill="#1D1D1B"></path>
        </g>
    </g>
</svg>