
<svg width="570px" height="467px" viewBox="0 0 570 467" version="1.1" xmlns="http://www.w3.org/2000/svg" xmlns:xlink="http://www.w3.org/1999/xlink">
    <defs>
        <polygon id="path-cn37h17kfq-1" points="0.5596 0.197 1.9916 0.197 1.9916 11.7115 0.5596 11.7115"></polygon>
    </defs>
    <g id="0.0-Home" stroke="none" stroke-width="1" fill="none" fill-rule="evenodd">
        <g id="0.0_SIW_hp" transform="translate(-702.000000, -1520.000000)">
            <g id="Trad.-illu" transform="translate(702.000200, 1520.803000)">
                <path d="M193.6709,64.2096 C193.6709,64.2096 195.3519,61.2226 195.7249,58.0476 C196.0989,54.8746 194.6979,49.1796 194.6979,49.1796 C194.6979,49.1796 191.5239,47.2186 191.2439,44.6976 C190.9639,42.1776 190.0299,37.3226 190.0299,37.3226 C190.0299,37.3226 185.5489,42.9246 182.5619,39.0026 C179.5739,35.0826 179.1079,29.7606 181.5339,27.5206 C183.9619,25.2796 186.0159,26.6796 186.0159,26.6796 C186.0159,26.6796 182.7479,17.3436 184.2419,14.0766 C185.7349,10.8096 189.7499,9.8756 193.2039,9.3146 C196.6579,8.7546 198.8059,9.0356 200.3929,5.5806 C201.9799,2.1266 211.1289,2.9666 213.5569,5.5806 C215.9829,8.1946 215.7969,13.0496 215.7969,13.0496 C215.7969,13.0496 219.0649,15.2906 219.1579,17.2506 C219.2509,19.2106 218.4109,23.8786 218.4109,23.8786 C218.4109,23.8786 224.1059,22.5716 225.5999,26.8666 C227.0929,31.1616 224.0129,35.6426 220.8379,37.0426 C217.6639,38.4426 215.6099,37.0426 215.6099,37.0426 C215.6099,37.0426 214.9569,43.6706 213.5569,45.9116 C212.1559,48.1516 209.9149,49.9256 209.9149,49.9256 C209.9149,49.9256 209.8219,56.5546 210.3819,59.0756 C210.9419,61.5956 213.2759,64.6766 213.2759,64.6766 L208.3289,78.0416 L193.6709,64.2096 Z" id="Fill-1" fill="#FFFFFF"></path>
                <polygon id="Fill-3" fill="#473FF4" points="167.1592 192.5577 54.1942 352.7467 73.9862 371.3577 180.0962 248.9217 175.3862 191.4177"></polygon>
                <path d="M172.2803,150.8541 L162.8623,96.3251 C162.8623,96.3251 154.8343,110.2271 155.2073,121.4801 C155.5813,132.7341 158.9413,149.1661 158.9413,149.1661 L130.0013,162.9821 C130.0013,162.9821 122.1593,144.6841 125.3333,113.8761 C128.5073,83.0681 145.1253,51.7001 155.2073,48.5251 C165.2903,45.3511 187.3693,57.6281 194.7913,63.6491 C202.2143,69.6711 208.3293,78.0411 208.3293,78.0411 C208.3293,78.0411 212.0153,58.3981 223.2893,52.0261 C234.5613,45.6551 238.5523,46.8451 241.4943,51.3261 C244.4343,55.8081 251.3633,74.7471 251.3633,74.7471 L172.2803,150.8541 Z" id="Fill-5" fill="#34E0A1"></path>
                <path d="M175.6875,195.361 C175.6875,195.361 160.1555,192.017 151.0995,181.748 C142.0435,171.478 136.5935,159.835 136.5935,159.835 L156.6095,150.279 C156.6095,150.279 161.4625,157.755 165.8505,160.929 C170.2385,164.103 173.3945,165.411 173.3945,165.411 L175.6875,195.361 Z" id="Fill-7" fill="#FFFFFF"></path>
                <path d="M0,378.1725 L35.009,382.0945 C35.009,382.0945 49.804,381.6735 52.699,383.3545 C55.595,385.0345 56.509,385.8555 56.509,385.8555 L54.754,388.1155 L41.871,408.2805 L0,378.1725 Z" id="Fill-9" fill="#1B1C1C"></path>
                <path d="M35.0088,382.0943 L57.4108,355.7713 L70.3888,367.9753 L54.7548,388.1153 C54.7548,388.1153 51.1128,384.6153 47.4718,385.1743 C43.8318,385.7353 43.1308,386.2943 40.3308,386.2943 C37.5298,386.2943 35.0088,382.0943 35.0088,382.0943" id="Fill-11" fill="#FFFFFF"></path>
                <path d="M35.0088,382.8102 C34.8438,382.8102 34.6808,382.7542 34.5448,382.6392 C34.2438,382.3832 34.2078,381.9322 34.4638,381.6302 L56.8658,355.3072 C57.1218,355.0052 57.5728,354.9702 57.8748,355.2262 C58.1758,355.4822 58.2118,355.9332 57.9558,356.2352 L35.5538,382.5582 C35.4128,382.7242 35.2118,382.8102 35.0088,382.8102" id="Fill-13" fill="#1B1C1C"></path>
                <path d="M54.7549,388.8307 C54.6009,388.8307 54.4459,388.7817 54.3159,388.6807 C54.0049,388.4377 53.9469,387.9877 54.1899,387.6767 L69.8249,367.5357 C70.0649,367.2237 70.5169,367.1657 70.8289,367.4107 C71.1399,367.6517 71.1969,368.1017 70.9539,368.4137 L55.3199,388.5547 C55.1799,388.7357 54.9669,388.8307 54.7549,388.8307" id="Fill-15" fill="#1B1C1C"></path>
                <path d="M127.0323,153.464 C126.7443,153.464 126.4733,153.289 126.3643,153.004 C126.2233,152.634 126.4073,152.22 126.7763,152.08 L157.2193,140.464 C157.5933,140.325 158.0033,140.508 158.1433,140.877 C158.2853,141.247 158.1003,141.661 157.7313,141.801 L127.2883,153.417 C127.2033,153.449 127.1183,153.464 127.0323,153.464" id="Fill-17" fill="#1B1C1C"></path>
                <path d="M175.6875,196.0758 C175.5965,196.0758 175.5045,196.0588 175.4155,196.0218 C174.7555,195.7498 159.1565,189.2908 150.6455,182.3008 C142.0775,175.2638 136.1765,160.7178 135.9285,160.1028 C135.7825,159.7348 135.9595,159.3188 136.3265,159.1718 C136.6935,159.0248 137.1085,159.1998 137.2565,159.5688 C137.3175,159.7168 143.2725,174.3928 151.5535,181.1938 C159.8985,188.0468 175.8005,194.6338 175.9605,194.6998 C176.3255,194.8488 176.4995,195.2668 176.3485,195.6328 C176.2365,195.9098 175.9685,196.0758 175.6875,196.0758" id="Fill-19" fill="#1B1C1C"></path>
                <path d="M173.3955,166.1266 C173.2775,166.1266 173.1595,166.0986 173.0495,166.0376 C172.9985,166.0086 167.8825,163.1826 164.0835,160.4146 C160.2065,157.5866 156.1665,150.9306 155.9965,150.6486 C155.7915,150.3106 155.9005,149.8716 156.2395,149.6676 C156.5725,149.4646 157.0165,149.5696 157.2205,149.9106 C157.2615,149.9766 161.2835,156.6016 164.9275,159.2566 C168.6525,161.9716 173.6905,164.7566 173.7405,164.7846 C174.0865,164.9746 174.2125,165.4106 174.0215,165.7556 C173.8915,165.9926 173.6465,166.1266 173.3955,166.1266" id="Fill-21" fill="#1B1C1C"></path>
                <path d="M162.8633,97.0392 C162.8083,97.0392 162.7533,97.0332 162.6973,97.0192 C162.3133,96.9292 162.0763,96.5442 162.1673,96.1612 C162.1823,96.0922 162.5793,94.4542 164.5483,90.2352 C166.5113,86.0272 171.4913,78.7682 171.7023,78.4622 C171.9263,78.1372 172.3723,78.0552 172.6973,78.2772 C173.0233,78.5012 173.1053,78.9472 172.8823,79.2722 C172.8303,79.3472 167.7593,86.7402 165.8443,90.8402 C163.9583,94.8852 163.5633,96.4762 163.5593,96.4912 C163.4793,96.8182 163.1863,97.0392 162.8633,97.0392" id="Fill-23" fill="#1B1C1C"></path>
                <path d="M203.3438,51.8829 C201.9738,51.8829 201.1058,51.5629 200.1398,51.2079 C199.4568,50.9559 198.7508,50.6959 197.7278,50.4869 C194.3978,49.8049 192.6728,48.4869 190.6288,45.0639 C188.5728,41.6209 187.3088,23.8439 187.2558,23.0899 C187.2418,22.8789 187.3218,22.6719 187.4728,22.5249 C187.6248,22.3769 187.8298,22.3049 188.0438,22.3269 C188.0978,22.3319 193.2628,22.8339 197.8438,20.6429 C202.2378,18.5419 203.3738,15.3369 204.0538,13.4209 L204.1308,13.2059 C204.6518,11.7449 204.1328,7.7669 203.8898,6.3559 C203.8218,5.9669 204.0828,5.5969 204.4728,5.5299 C204.8488,5.4469 205.2318,5.7229 205.2988,6.1129 C205.3958,6.6689 206.2208,11.6099 205.4778,13.6869 L205.4028,13.8999 C204.6988,15.8829 203.3898,19.5779 198.4618,21.9349 C194.6008,23.7799 190.4788,23.8669 188.7428,23.8039 C189.1618,29.3719 190.3728,41.8439 191.8598,44.3299 C193.7018,47.4179 195.0808,48.4849 198.0158,49.0839 C199.1438,49.3159 199.9358,49.6069 200.6328,49.8639 C201.8448,50.3099 202.7238,50.6329 204.7738,50.3379 C208.6058,49.7899 211.2008,48.3359 212.7098,45.8909 C214.1468,43.5639 215.0108,33.1269 215.2228,29.3019 C215.2448,28.9089 215.6078,28.5909 215.9768,28.6269 C216.3718,28.6479 216.6738,28.9859 216.6518,29.3799 C216.5728,30.8259 215.8178,43.5829 213.9288,46.6429 C212.1828,49.4709 209.2538,51.1429 204.9748,51.7559 C204.3538,51.8429 203.8188,51.8829 203.3438,51.8829" id="Fill-25" fill="#1B1C1C"></path>
                <path d="M217.2197,37.9171 C216.1947,37.9171 215.4127,37.8391 215.1927,37.8141 C214.7997,37.7691 214.5187,37.4141 214.5617,37.0221 C214.6067,36.6281 214.9537,36.3451 215.3527,36.3911 C216.9787,36.5771 221.4837,36.6461 222.7797,34.8141 C225.4277,31.0551 225.5237,28.0581 223.0687,25.6501 C220.0197,22.6601 216.5727,25.8081 216.4247,25.9441 C216.2417,26.1131 215.9827,26.1761 215.7457,26.1091 C215.6277,26.0771 212.8577,25.2771 211.8327,22.4421 C210.8907,19.8341 210.8797,18.3401 210.8797,18.2771 L210.8797,16.7581 C210.8797,16.3621 211.1987,16.0421 211.5957,16.0421 C211.9907,16.0421 212.3117,16.3621 212.3117,16.7581 L212.3117,18.2771 C212.3117,18.2881 212.3327,19.6131 213.1787,21.9561 C213.7697,23.5871 215.1387,24.3341 215.7847,24.6041 C217.5247,23.1951 221.0697,21.6851 224.0697,24.6271 C227.0677,27.5671 227.0277,31.2711 223.9477,35.6391 C222.5867,37.5691 219.3677,37.9171 217.2197,37.9171" id="Fill-27" fill="#1B1C1C"></path>
                <path d="M185.2334,41.0948 C183.5614,41.0948 181.6084,38.7948 180.4814,36.6228 C178.7344,33.2508 178.6864,29.9618 180.3544,27.8218 C183.3494,23.9798 187.1434,25.2508 188.7294,26.4598 C189.0444,26.6988 189.1034,27.1448 188.8664,27.4598 C188.6274,27.7738 188.1794,27.8398 187.8644,27.5988 C187.5084,27.3318 184.2984,25.0888 181.4834,28.7018 C179.5354,31.1998 181.1974,34.8918 181.7524,35.9648 C182.9504,38.2768 184.5704,39.6628 185.2274,39.6628 L185.2504,39.6628 C187.3254,39.5628 189.1194,37.8778 189.1374,37.8618 C189.4224,37.5898 189.8764,37.5988 190.1494,37.8868 C190.4214,38.1728 190.4114,38.6258 190.1244,38.8988 C190.0354,38.9828 187.9204,40.9668 185.3184,41.0918 C185.2894,41.0938 185.2604,41.0948 185.2334,41.0948" id="Fill-29" fill="#1B1C1C"></path>
                <path d="M205.4356,19.5538 C205.2336,19.5538 205.0336,19.4688 204.8906,19.3038 C204.6346,19.0028 204.6696,18.5518 204.9686,18.2948 C204.9876,18.2788 206.7366,16.7538 207.7026,14.1108 C208.6936,11.4058 208.5706,6.7918 208.5686,6.7458 C208.5576,6.3508 208.8686,6.0218 209.2636,6.0098 C209.6436,6.0228 209.9876,6.3088 209.9996,6.7038 C210.0056,6.9038 210.1326,11.6368 209.0466,14.6028 C207.9456,17.6168 205.9816,19.3118 205.8986,19.3838 C205.7646,19.4978 205.5996,19.5538 205.4356,19.5538" id="Fill-31" fill="#1B1C1C"></path>
                <path d="M209.291,21.3741 C209.125,21.3741 208.959,21.3171 208.823,21.1981 C208.524,20.9391 208.493,20.4881 208.75,20.1881 C208.765,20.1731 210.157,18.5441 211.35,15.4961 C212.525,12.4891 212.012,8.3271 212.006,8.2851 C211.956,7.8941 212.232,7.5341 212.626,7.4841 C213,7.4301 213.376,7.7091 213.427,8.1031 C213.45,8.2881 213.994,12.6651 212.683,16.0171 C211.392,19.3161 209.895,21.0551 209.831,21.1281 C209.69,21.2901 209.491,21.3741 209.291,21.3741" id="Fill-33" fill="#1B1C1C"></path>
                <path d="M198.4326,18.5026 C198.2486,18.5026 198.0666,18.4326 197.9266,18.2936 C197.6466,18.0136 197.6466,17.5606 197.9266,17.2806 C198.7076,16.4996 200.8306,14.1316 201.2646,12.5876 C201.7936,10.7006 201.2546,7.5796 201.2486,7.5486 C201.1806,7.1586 201.4406,6.7886 201.8286,6.7196 C202.2076,6.6446 202.5896,6.9096 202.6586,7.2996 C202.6836,7.4406 203.2596,10.7776 202.6426,12.9736 C202.0196,15.1956 199.0646,18.1676 198.9386,18.2936 C198.7986,18.4326 198.6156,18.5026 198.4326,18.5026" id="Fill-35" fill="#1B1C1C"></path>
                <path d="M185.7793,26.6847 C185.5123,26.6847 185.2573,26.5357 185.1333,26.2777 C184.9583,25.9107 180.8463,17.2237 183.1053,13.2337 C184.8093,10.2247 186.2653,10.0717 188.2853,9.8607 C189.0153,9.7837 189.8453,9.6967 190.8453,9.4597 C194.5753,8.5707 198.1963,7.5177 198.2323,7.5067 C198.6143,7.4027 199.0083,7.6147 199.1203,7.9947 C199.2303,8.3727 199.0123,8.7697 198.6323,8.8817 C198.5953,8.8917 194.9413,9.9557 191.1763,10.8517 C190.0873,11.1107 189.2093,11.2027 188.4343,11.2837 C186.5513,11.4807 185.6913,11.5717 184.3523,13.9387 C182.7793,16.7177 185.3153,23.3427 186.4253,25.6607 C186.5953,26.0167 186.4453,26.4447 186.0893,26.6147 C185.9893,26.6627 185.8833,26.6847 185.7793,26.6847" id="Fill-37" fill="#1B1C1C"></path>
                <path d="M219.1807,24.4747 C219.0837,24.4747 218.9867,24.4547 218.8927,24.4127 C218.5327,24.2557 218.3677,23.8327 218.5247,23.4707 C218.5367,23.4427 219.7437,20.6337 219.2877,17.1757 C218.8737,14.0367 215.0677,13.3397 214.9057,13.3117 C214.5167,13.2437 214.2557,12.8747 214.3227,12.4857 C214.3897,12.0947 214.7707,11.8347 215.1477,11.9007 C215.3517,11.9347 220.1557,12.7967 220.7077,16.9887 C221.2177,20.8597 219.8917,23.9197 219.8347,24.0487 C219.7177,24.3157 219.4557,24.4747 219.1807,24.4747" id="Fill-39" fill="#1B1C1C"></path>
                <path d="M182.3223,33.4493 C182.2313,33.4493 182.1393,33.4313 182.0513,33.3953 C181.6863,33.2453 181.5103,32.8283 181.6603,32.4623 C181.7743,32.1803 182.8363,29.6953 184.5673,29.3593 C186.2613,29.0293 187.5483,30.0313 187.6013,30.0733 C187.9103,30.3213 187.9593,30.7713 187.7133,31.0803 C187.4673,31.3903 187.0153,31.4363 186.7063,31.1923 C186.7023,31.1893 185.8723,30.5653 184.8393,30.7653 C184.0723,30.9133 183.2593,32.3383 182.9853,33.0053 C182.8703,33.2823 182.6033,33.4493 182.3223,33.4493" id="Fill-41" fill="#1B1C1C"></path>
                <path d="M185.6192,35.2023 C185.4902,35.2023 185.3602,35.1693 185.2442,35.0963 C184.9082,34.8893 184.8032,34.4523 185.0072,34.1153 C185.0372,34.0633 185.5812,33.1193 185.0342,32.3443 C184.3952,31.4393 183.6662,31.2893 183.6352,31.2833 C183.2522,31.2083 182.9932,30.8393 183.0602,30.4553 C183.1282,30.0713 183.4742,29.8123 183.8712,29.8703 C184.0072,29.8933 185.2182,30.1213 186.2032,31.5193 C187.3042,33.0763 186.2732,34.7903 186.2282,34.8613 C186.0932,35.0803 185.8572,35.2023 185.6192,35.2023" id="Fill-43" fill="#1B1C1C"></path>
                <path d="M221.7725,32.0865 C221.6745,32.0865 221.5755,32.0665 221.4805,32.0235 C221.1195,31.8625 220.9575,31.4395 221.1195,31.0785 C221.1375,31.0335 221.6215,29.8835 220.8815,28.9425 C220.1495,28.0095 218.7365,28.2705 218.7195,28.2685 C218.3355,28.3515 217.9565,28.0925 217.8805,27.7055 C217.8045,27.3195 218.0525,26.9435 218.4385,26.8655 C218.5305,26.8485 220.7225,26.4245 222.0085,28.0595 C223.2885,29.6875 222.4615,31.5835 222.4245,31.6635 C222.3065,31.9285 222.0445,32.0865 221.7725,32.0865" id="Fill-45" fill="#1B1C1C"></path>
                <path d="M218.2705,33.4479 C217.8855,33.4479 217.5685,33.1449 217.5545,32.7589 C217.5485,32.5969 217.5195,31.1559 218.1955,30.1729 C218.8105,29.2729 220.7045,28.1109 221.0775,27.8869 C221.4165,27.6799 221.8565,27.7969 222.0585,28.1339 C222.2615,28.4709 222.1525,28.9119 221.8125,29.1149 C221.0525,29.5719 219.7175,30.4819 219.3755,30.9819 C219.0285,31.4889 218.9765,32.4009 218.9865,32.7119 C218.9975,33.1059 218.6885,33.4359 218.2925,33.4479 L218.2705,33.4479 Z" id="Fill-47" fill="#1B1C1C"></path>
                <path d="M201.9541,38.3102 C201.5761,38.3102 201.2611,38.0152 201.2391,37.6352 C201.2171,37.2412 201.5181,36.9022 201.9131,36.8802 C202.7411,36.8322 203.6791,36.5962 203.8431,36.3952 C203.8211,35.9942 202.8711,33.6042 201.9831,31.6782 C201.8181,31.3192 201.9751,30.8942 202.3341,30.7292 C202.6871,30.5642 203.1181,30.7192 203.2831,31.0802 C203.8961,32.4092 205.3141,35.6102 205.2391,36.5992 C205.1301,37.9842 202.9331,38.2572 201.9941,38.3092 C201.9801,38.3102 201.9661,38.3102 201.9541,38.3102" id="Fill-49" fill="#1B1C1C"></path>
                <path d="M203.6592,43.8951 C203.4302,43.8951 203.1892,43.8881 202.9392,43.8731 C200.5922,43.7231 199.0922,42.9361 199.0292,42.9021 C198.6812,42.7161 198.5502,42.2841 198.7342,41.9371 C198.9202,41.5871 199.3492,41.4581 199.7022,41.6371 C199.7142,41.6441 201.0122,42.3151 203.0302,42.4441 C205.0082,42.5651 206.2082,42.0631 206.2212,42.0581 C206.5782,41.9081 207.0032,42.0651 207.1612,42.4261 C207.3202,42.7861 207.1602,43.2061 206.8012,43.3661 C206.7472,43.3921 205.5942,43.8951 203.6592,43.8951" id="Fill-51" fill="#1B1C1C"></path>
                <path d="M195.5098,24.9293 C193.0978,24.9293 191.1368,27.2163 191.1368,30.0293 C191.1368,32.8413 193.0978,35.1303 195.5098,35.1303 C197.9208,35.1303 199.8818,32.8413 199.8818,30.0293 C199.8818,27.2163 197.9208,24.9293 195.5098,24.9293 M195.5098,36.5613 C192.3098,36.5613 189.7048,33.6313 189.7048,30.0293 C189.7048,26.4283 192.3098,23.4973 195.5098,23.4973 C198.7088,23.4973 201.3138,26.4283 201.3138,30.0293 C201.3138,33.6313 198.7088,36.5613 195.5098,36.5613" id="Fill-53" fill="#1B1C1C"></path>
                <path d="M209.6133,23.899 C207.2033,23.899 205.2413,26.186 205.2413,28.999 C205.2413,31.811 207.2033,34.1 209.6133,34.1 C212.0243,34.1 213.9853,31.811 213.9853,28.999 C213.9853,26.186 212.0243,23.899 209.6133,23.899 M209.6133,35.531 C206.4133,35.531 203.8103,32.601 203.8103,28.999 C203.8103,25.398 206.4133,22.467 209.6133,22.467 C212.8123,22.467 215.4173,25.398 215.4173,28.999 C215.4173,32.601 212.8123,35.531 209.6133,35.531" id="Fill-55" fill="#1B1C1C"></path>
                <path d="M200.4619,29.4166 C200.0819,29.4166 199.7659,29.1186 199.7479,28.7356 C199.7289,28.3416 200.0329,28.0046 200.4269,27.9866 L204.5109,27.7866 C204.9089,27.7486 205.2409,28.0716 205.2599,28.4656 C205.2789,28.8596 204.9749,29.1966 204.5799,29.2146 L200.4969,29.4156 C200.4859,29.4166 200.4739,29.4166 200.4619,29.4166" id="Fill-57" fill="#1B1C1C"></path>
                <path d="M197.6192,29.9572 C197.6192,30.4872 197.1892,30.9162 196.6602,30.9162 C196.1312,30.9162 195.7022,30.4872 195.7022,29.9572 C195.7022,29.4282 196.1312,28.9992 196.6602,28.9992 C197.1892,28.9992 197.6192,29.4282 197.6192,29.9572" id="Fill-59" fill="#1B1C1C"></path>
                <path d="M208.8565,29.4445 C208.8565,29.9735 208.4275,30.4025 207.8985,30.4025 C207.3695,30.4025 206.9395,29.9735 206.9395,29.4445 C206.9395,28.9145 207.3695,28.4855 207.8985,28.4855 C208.4275,28.4855 208.8565,28.9145 208.8565,29.4445" id="Fill-61" fill="#1B1C1C"></path>
                <path d="M84.939,359.4352 C84.783,359.4352 84.625,359.3832 84.493,359.2792 L62.126,341.4252 C61.817,341.1792 61.766,340.7292 62.013,340.4202 C62.26,340.1112 62.71,340.0642 63.018,340.3072 L85.385,358.1602 C85.694,358.4062 85.746,358.8562 85.499,359.1652 C85.357,359.3422 85.149,359.4352 84.939,359.4352" id="Fill-63" fill="#1B1C1C"></path>
                <path d="M71.0928,348.3834 C70.9588,348.3834 70.8228,348.3454 70.7008,348.2674 C70.3708,348.0514 70.2778,347.6074 70.4928,347.2764 L171.2188,192.6874 C171.4358,192.3544 171.8788,192.2634 172.2098,192.4774 C172.5398,192.6934 172.6338,193.1374 172.4178,193.4684 L71.6928,348.0574 C71.5548,348.2684 71.3258,348.3834 71.0928,348.3834" id="Fill-65" fill="#1B1C1C"></path>
                <g id="Group-69" transform="translate(256.999800, 0.000000)">
                    <mask id="mask-cn37h17kfq-2" fill="white">
                        <use xlink:href="#path-cn37h17kfq-1"></use>
                    </mask>
                    <g id="Clip-68"></g>
                    <path d="M1.2756,11.7115 C0.8796,11.7115 0.5596,11.3915 0.5596,10.9955 L0.5596,0.9125 C0.5596,0.5165 0.8796,0.1965 1.2756,0.1965 C1.6716,0.1965 1.9916,0.5165 1.9916,0.9125 L1.9916,10.9955 C1.9916,11.3915 1.6716,11.7115 1.2756,11.7115" id="Fill-67" fill="#FFD141" mask="url(#mask-cn37h17kfq-2)"></path>
                </g>
                <path d="M263.4102,6.6705 L253.0472,6.6705 C252.6512,6.6705 252.3312,6.3505 252.3312,5.9545 C252.3312,5.5595 252.6512,5.2385 253.0472,5.2385 L263.4102,5.2385 C263.8062,5.2385 264.1262,5.5595 264.1262,5.9545 C264.1262,6.3505 263.8062,6.6705 263.4102,6.6705" id="Fill-70" fill="#FFD141"></path>
                <path d="M269.3789,31.09 C268.9829,31.09 268.6629,30.77 268.6629,30.374 L268.6629,23.183 C268.6629,22.787 268.9829,22.467 269.3789,22.467 C269.7749,22.467 270.0949,22.787 270.0949,23.183 L270.0949,30.374 C270.0949,30.77 269.7749,31.09 269.3789,31.09" id="Fill-72" fill="#FFD141"></path>
                <path d="M273.042,27.4943 L265.649,27.4943 C265.254,27.4943 264.934,27.1743 264.934,26.7783 C264.934,26.3833 265.254,26.0623 265.649,26.0623 L273.042,26.0623 C273.438,26.0623 273.758,26.3833 273.758,26.7783 C273.758,27.1743 273.438,27.4943 273.042,27.4943" id="Fill-74" fill="#FFD141"></path>
                <path d="M247.9121,38.4904 C247.5161,38.4904 247.1961,38.1704 247.1961,37.7744 L247.1961,27.6914 C247.1961,27.2964 247.5161,26.9754 247.9121,26.9754 C248.3081,26.9754 248.6281,27.2964 248.6281,27.6914 L248.6281,37.7744 C248.6281,38.1704 248.3081,38.4904 247.9121,38.4904" id="Fill-76" fill="#FFD141"></path>
                <path d="M253.0469,33.4493 L242.6839,33.4493 C242.2879,33.4493 241.9689,33.1293 241.9689,32.7343 C241.9689,32.3383 242.2879,32.0183 242.6839,32.0183 L253.0469,32.0183 C253.4429,32.0183 253.7629,32.3383 253.7629,32.7343 C253.7629,33.1293 253.4429,33.4493 253.0469,33.4493" id="Fill-78" fill="#FFD141"></path>
                <path d="M257.5274,53.0695 C257.1314,53.0695 256.8114,52.7495 256.8114,52.3545 L256.8114,42.2705 C256.8114,41.8755 257.1314,41.5545 257.5274,41.5545 C257.9234,41.5545 258.2434,41.8755 258.2434,42.2705 L258.2434,52.3545 C258.2434,52.7495 257.9234,53.0695 257.5274,53.0695" id="Fill-80" fill="#FFD141"></path>
                <path d="M262.6621,48.027 L252.3011,48.027 C251.9051,48.027 251.5851,47.707 251.5851,47.312 C251.5851,46.916 251.9051,46.596 252.3011,46.596 L262.6621,46.596 C263.0581,46.596 263.3781,46.916 263.3781,47.312 C263.3781,47.707 263.0581,48.027 262.6621,48.027" id="Fill-82" fill="#FFD141"></path>
                <path d="M208.3301,78.7565 C208.2681,78.7565 208.2051,78.7485 208.1431,78.7315 C207.6211,78.5915 195.2971,75.2395 190.1881,70.7685 C186.2761,67.3455 184.6991,62.1475 185.6811,59.4435 C186.0791,58.3485 186.9061,57.7065 187.9551,57.6825 C187.9811,57.6825 188.0081,57.6815 188.0361,57.6815 C191.4871,57.6815 194.6561,62.5765 194.7911,62.7865 C195.0051,63.1195 194.9071,63.5625 194.5741,63.7755 C194.2441,63.9855 193.8001,63.8935 193.5861,63.5585 C192.7891,62.3155 190.2501,59.1125 188.0371,59.1125 C188.0201,59.1125 188.0041,59.1145 187.9851,59.1145 C187.6991,59.1195 187.2861,59.2125 187.0261,59.9305 C186.3161,61.8865 187.5351,66.5455 191.1311,69.6925 C195.5261,73.5365 206.0921,76.6645 208.1621,77.2515 C209.9571,75.7565 219.6571,67.5355 220.9241,63.3715 C221.5221,61.4055 221.4231,59.8915 220.6431,59.1085 C219.9221,58.3855 218.5711,58.2515 216.9271,58.7435 C213.7271,59.7055 213.7031,64.2265 213.7031,64.2725 C213.7051,64.5685 213.5211,64.8365 213.2461,64.9425 C212.9671,65.0475 212.6551,64.9755 212.4561,64.7555 C212.3681,64.6585 210.2921,62.3255 209.5461,58.4455 C208.8201,54.6645 209.1851,50.0615 209.2021,49.8665 C209.2341,49.4745 209.5921,49.1945 209.9741,49.2125 C210.3681,49.2445 210.6601,49.5895 210.6281,49.9845 C210.6251,50.0285 210.2631,54.5895 210.9521,58.1745 C211.2911,59.9335 211.9391,61.3465 212.5011,62.3175 C212.8791,60.5675 213.8781,58.1655 216.5161,57.3745 C218.7111,56.7155 220.5361,56.9745 221.6561,58.0975 C222.4831,58.9295 223.2671,60.5905 222.2941,63.7875 C220.7771,68.7705 209.2701,78.1965 208.7821,78.5955 C208.6521,78.7005 208.4931,78.7565 208.3301,78.7565" id="Fill-84" fill="#1B1C1C"></path>
                <path d="M193.1201,62.4513 C192.9741,62.4513 192.8251,62.4063 192.6981,62.3123 C192.3791,62.0793 192.3091,61.6323 192.5431,61.3133 C192.5581,61.2923 194.0541,59.2243 194.4741,57.0053 C194.8991,54.7413 194.0021,49.3523 193.9921,49.2983 C193.9271,48.9083 194.1891,48.5383 194.5791,48.4733 C194.9671,48.4063 195.3391,48.6703 195.4041,49.0603 C195.4431,49.2923 196.3531,54.7583 195.8801,57.2703 C195.4001,59.8163 193.7661,62.0643 193.6971,62.1593 C193.5571,62.3503 193.3401,62.4513 193.1201,62.4513" id="Fill-86" fill="#1B1C1C"></path>
                <path d="M551.1182,439.5289 L215.4432,465.2259 C204.9582,466.0289 195.8072,458.1789 195.0042,447.6949 L169.8452,108.0809 L542.0922,80.6139 L568.6502,419.0909 C569.4532,429.5759 561.6032,438.7259 551.1182,439.5289" id="Fill-88" fill="#FFFFFF"></path>
                <polygon id="Fill-90" fill="#57B9A2" points="357.8613 187.066 214.4243 199.296 214.7093 202.645 358.1463 190.415"></polygon>
                <polygon id="Fill-92" fill="#57B9A2" points="439.3379 200.8883 216.1819 219.9163 215.9429 217.1253 439.0999 198.0973"></polygon>
                <polygon id="Fill-94" fill="#57B9A2" points="440.0674 209.4459 216.9114 228.4739 216.6734 225.6829 439.8294 206.6549"></polygon>
                <polygon id="Fill-96" fill="#57B9A2" points="440.7969 218.004 217.6409 237.032 217.4029 234.241 440.5599 215.213"></polygon>
                <polygon id="Fill-98" fill="#57B9A2" points="441.5274 226.5621 218.3714 245.5891 218.1324 242.7991 441.2894 223.7711"></polygon>
                <polygon id="Fill-100" fill="#57B9A2" points="442.2568 235.1198 219.1008 254.1468 218.8618 251.3568 442.0188 232.3288"></polygon>
                <polygon id="Fill-102" fill="#57B9A2" points="373.6299 305.1324 230.1929 317.3624 230.4779 320.7114 373.9159 308.4814"></polygon>
                <polygon id="Fill-104" fill="#57B9A2" points="455.1065 318.9547 231.9505 337.9817 231.7125 335.1917 454.8695 316.1637"></polygon>
                <polygon id="Fill-106" fill="#57B9A2" points="455.8369 327.5123 232.6809 346.5393 232.4419 343.7493 455.5989 324.7223"></polygon>
                <polygon id="Fill-108" fill="#57B9A2" points="456.5664 336.0699 233.4104 355.0979 233.1714 352.3069 456.3284 333.2799"></polygon>
                <polygon id="Fill-110" fill="#57B9A2" points="457.2959 344.6285 234.1399 363.6555 233.9009 360.8645 457.0579 341.8375"></polygon>
                <polygon id="Fill-112" fill="#57B9A2" points="458.0254 353.1861 234.8694 372.2131 234.6314 369.4231 457.7884 350.3951"></polygon>
                <path d="M353.6973,137.3712 C353.5973,137.3712 353.5023,137.3652 353.4083,137.3542 C352.7963,137.2832 352.3003,136.9852 351.9703,136.4932 C350.0463,133.6052 351.7793,127.6382 353.6133,121.3212 C355.3723,115.2672 357.3643,108.4042 354.6043,107.2552 C349.8453,105.2602 338.9693,116.1492 335.1813,120.5072 C335.0613,120.6462 334.8933,120.7322 334.7123,120.7512 L204.3843,133.4472 C203.9933,133.4762 203.6393,133.1972 203.6003,132.8042 C203.5623,132.4102 203.8503,132.0602 204.2433,132.0212 L334.2903,119.3532 C336.4423,116.9082 348.8203,103.3082 355.1553,105.9332 C359.0953,107.5752 357.1013,114.4462 354.9873,121.7202 C353.4023,127.1792 351.6063,133.3662 353.1623,135.6992 C353.2573,135.8412 353.3763,135.9102 353.5733,135.9332 C356.3713,136.1922 365.4423,127.7912 372.7063,120.9872 C381.8003,112.4682 387.4993,107.2732 389.8863,107.9172 C390.4083,108.0552 390.7923,108.4372 390.9673,108.9942 C391.9683,112.2042 390.1753,117.0402 388.5933,121.3102 C387.5293,124.1772 386.3243,127.4272 386.8333,128.4492 C386.8953,128.5752 386.9803,128.6432 387.1283,128.6882 C388.3973,129.0612 392.4483,124.4342 395.4133,121.0532 C400.4043,115.3592 405.1223,109.9822 407.8823,111.9902 C410.6753,114.0212 409.1893,116.7862 408.2073,118.6182 C407.8303,119.3212 407.3123,120.2842 407.4333,120.6122 C407.4683,120.7032 407.6283,120.7772 407.7213,120.8132 C410.4803,121.8972 415.4703,120.7942 415.5193,120.7812 C415.9113,120.7022 416.2893,120.9392 416.3753,121.3242 C416.4613,121.7092 416.2183,122.0932 415.8333,122.1792 C415.6103,122.2272 410.3513,123.3822 407.1993,122.1472 C406.6353,121.9262 406.2623,121.5762 406.0913,121.1062 C405.7473,120.1732 406.3023,119.1392 406.9463,117.9412 C408.0803,115.8292 408.6993,114.3542 407.0403,113.1472 C405.3163,111.8892 400.2193,117.7402 396.4893,121.9962 C391.7593,127.3932 388.7563,130.6842 386.7173,130.0582 C386.1923,129.9022 385.7903,129.5662 385.5513,129.0882 C384.7663,127.5112 385.8623,124.5552 387.2513,120.8122 C388.7533,116.7582 390.4563,112.1632 389.5993,109.4222 C387.7603,108.8292 379.9593,116.1542 373.6853,122.0312 C363.8353,131.2582 357.0523,137.3702 353.6973,137.3712" id="Fill-114" fill="#1B1C1C"></path>
                <path d="M539.2608,318.2994 C538.2088,318.2994 512.3248,317.9884 497.2198,292.9324 C481.8278,267.4084 500.8128,243.0354 501.0048,242.7924 C501.2528,242.4824 501.7008,242.4344 502.0118,242.6774 C502.3208,242.9244 502.3718,243.3744 502.1258,243.6844 C501.9398,243.9194 483.5748,267.5324 498.4448,292.1944 C513.1498,316.5814 538.3118,316.8674 539.2468,316.8674 L539.2818,316.8674 C539.6718,316.8674 539.9918,317.1824 539.997884,317.5734 C540.0038,317.9694 539.6878,318.2934 539.2918,318.2994 L539.2608,318.2994 Z" id="Fill-116" fill="#1B1C1C"></path>
                <path d="M170.6104,110.0524 L195.7184,447.6414 C196.0914,452.5204 198.3424,456.9634 202.0584,460.1514 C205.7744,463.3354 210.4994,464.8974 215.3874,464.5124 L551.0644,438.8164 C555.9444,438.4414 560.3864,436.1904 563.5744,432.4744 C566.7594,428.7584 568.3104,424.0254 567.9354,419.1454 L541.2884,81.1064 L170.6104,110.0524 Z M213.9584,465.9994 C209.2474,465.9994 204.7404,464.3364 201.1264,461.2374 C197.1214,457.8014 194.6944,453.0104 194.2904,447.7484 L169.1283,109.4474 C169.1004,109.0544 169.3954,108.7104 169.7894,108.6804 L541.8894,79.6254 C542.2704,79.5674 542.6284,79.8874 542.6584,80.2814 L569.3634,419.0344 C569.7664,424.2984 568.0964,429.4004 564.6604,433.4064 C561.2254,437.4114 556.4344,439.8394 551.1734,440.2424 L215.4974,465.9414 C214.9824,465.9804 214.4694,465.9994 213.9584,465.9994 L213.9584,465.9994 Z" id="Fill-118" fill="#1B1C1C"></path>
                <path d="M177.1133,215.0612 C177.1133,215.0612 165.9433,212.3922 163.0733,214.5632 C160.2023,216.7332 177.6053,221.4922 177.6053,221.4922 L177.1133,215.0612 Z" id="Fill-120" fill="#FFFFFF"></path>
                <path d="M174.1992,185.9991 C174.1992,185.9991 168.7442,186.2521 169.3752,189.3331 C170.0052,192.4141 174.3412,195.0241 174.3412,195.0241 C174.3412,195.0241 169.9342,195.9151 170.9852,198.7851 C172.0352,201.6561 175.6872,204.6671 175.6872,204.6671 C175.6872,204.6671 170.7052,204.2471 171.7552,208.0281 C173.6622,213.7141 178.7572,215.5761 183.7992,216.5281 C188.8402,217.4801 191.5002,216.1501 190.7302,213.9091 C189.9602,211.6681 183.8642,207.1061 183.8642,207.1061 C183.8642,207.1061 188.4202,208.2381 188.6302,206.1371 C188.8402,204.0371 181.8482,198.3101 181.8482,198.3101 C181.8482,198.3101 190.0302,200.3951 190.3102,197.1751 C190.5902,193.9541 174.3482,187.9761 174.3482,187.9761 L174.1992,185.9991 Z" id="Fill-122" fill="#FFFFFF"></path>
                <path d="M166.6289,214.4269 C164.9069,214.4269 163.7519,214.5809 163.4919,214.9019 C164.0949,216.4479 171.3389,218.8499 176.8169,220.2069 L176.4419,215.3229 C172.6539,214.7369 169.0709,214.4269 166.6289,214.4269 M177.6059,221.8499 C177.5519,221.8499 177.4969,221.8439 177.4419,221.8299 C175.0839,221.2779 163.2629,218.3659 162.1759,215.3189 C162.0019,214.8349 162.0789,214.3629 162.3909,213.9869 C164.0099,212.0419 174.1549,213.5029 177.2269,213.9979 C177.5539,214.0499 177.8019,214.3189 177.8279,214.6489 L178.3199,221.0799 C178.3369,221.3069 178.2449,221.5299 178.0709,221.6779 C177.9409,221.7899 177.7749,221.8499 177.6059,221.8499" id="Fill-124" fill="#1B1C1C"></path>
                <path d="M186.9961,199.4547 L186.9651,199.4547 C186.7341,199.4447 181.2721,199.1937 177.3081,197.3827 C173.2221,195.5157 168.9961,193.0777 168.6341,189.1537 C168.5441,188.1837 168.8321,187.3347 169.4691,186.6957 C171.1351,185.0237 174.6421,185.2767 175.0351,185.3127 C175.4281,185.3487 175.7191,185.6947 175.6851,186.0877 C175.6511,186.4817 175.2971,186.7647 174.9101,186.7397 C174.0181,186.6627 171.4941,186.6857 170.4811,187.7077 C170.1421,188.0487 170.0081,188.4657 170.0591,189.0217 C170.3541,192.2187 174.1901,194.3847 177.9031,196.0797 C181.6151,197.7777 186.9721,198.0217 187.0261,198.0237 C187.4211,198.0397 187.7281,198.3737 187.7121,198.7697 C187.6941,199.1547 187.3771,199.4547 186.9961,199.4547" id="Fill-126" fill="#1B1C1C"></path>
                <path d="M185.5029,207.8566 L185.4739,207.8566 C185.2319,207.8456 179.5139,207.5766 175.0039,204.3626 C170.8259,201.3856 170.2569,198.7576 170.1829,198.0226 C170.1129,197.3306 170.2579,196.7686 170.6069,196.3936 C171.3919,195.5506 173.7819,194.4866 174.0529,194.3676 C174.4159,194.2126 174.8369,194.3736 174.9959,194.7356 C175.1539,195.0976 174.9899,195.5196 174.6279,195.6786 C173.7129,196.0816 172.0949,196.8956 171.6539,197.3696 C171.6279,197.4036 171.5619,197.5996 171.6209,197.9936 C171.8059,199.1896 173.0099,201.1846 175.8349,203.1966 C179.9889,206.1576 185.4779,206.4236 185.5319,206.4246 C185.9279,206.4416 186.2329,206.7756 186.2169,207.1696 C186.2019,207.5556 185.8849,207.8566 185.5029,207.8566" id="Fill-128" fill="#1B1C1C"></path>
                <path d="M187.9453,217.3776 C185.4783,217.3776 177.7163,217.1056 174.5733,213.7966 C170.7113,209.7266 170.6873,206.4026 171.6143,205.1616 C172.5103,203.9606 175.6703,203.8636 176.6553,203.8636 C177.0953,203.8546 177.3913,204.1786 177.3913,204.5816 C177.3913,204.9756 177.0703,205.2956 176.6753,205.2956 C176.6753,205.2946 176.6683,205.2956 176.6623,205.2956 C174.8703,205.2956 173.0493,205.6326 172.7603,206.0166 C172.2653,206.6826 172.2953,209.3156 175.6113,212.8106 C178.8483,216.2206 188.5543,215.9466 188.6493,215.9366 C189.0593,215.9336 189.3753,216.2316 189.3883,216.6286 C189.4013,217.0236 189.0923,217.3546 188.6973,217.3686 C188.6353,217.3696 188.3683,217.3776 187.9453,217.3776" id="Fill-130" fill="#1B1C1C"></path>
                <path d="M542.8106,81.5494 L169.1646,110.1534 L167.6356,90.1834 C167.2566,85.2274 170.9666,80.9024 175.9226,80.5224 L531.6216,53.2924 C536.5776,52.9134 540.9026,56.6234 541.2826,61.5794 L542.8106,81.5494 Z" id="Fill-132" fill="#FF4D00"></path>
                <path d="M285.7207,72.5582 C285.7207,72.5582 282.9447,59.0282 284.6247,58.0482 C286.3057,57.0682 289.8067,59.3082 291.6267,63.5792 C293.4477,67.8502 293.3027,71.9292 293.3027,71.9292 L285.7207,72.5582 Z" id="Fill-134" fill="#FFFFFF"></path>
                <path d="M314.916204,77.2848 C314.916204,77.2848 314.986,69.3728 312.535,67.2018 C310.085,65.0318 307.085,70.4288 307.085,70.4288 C307.085,70.4288 306.374,65.6618 303.643,66.0818 C300.912,66.5018 299.996,70.9718 299.996,70.9718 C299.996,70.9718 300.282,65.1188 296.642,66.0558 C293,66.9918 292.853,71.5178 292.853,71.5178 C292.853,71.5178 292.58,78.3348 295.311,79.1048 C300.438,79.8988 299.932,72.5298 299.932,72.5298 C299.932,72.5298 302.312,80.1558 305.323,78.7548 C308.334,77.3548 307.494,73.2238 307.494,73.2238 C307.494,73.2238 308.475,77.3548 311.415,78.4748 C314.355,79.5958 314.636,78.6158 314.916204,77.2848" id="Fill-136" fill="#FFFFFF"></path>
                <path d="M285.7813,72.6451 C285.4613,72.6451 285.1703,72.4301 285.0883,72.1051 C284.5903,70.1451 282.1893,60.2471 283.8283,57.8671 C284.3853,57.0621 285.1693,56.6511 286.1083,56.7281 C288.0233,56.8771 290.2843,59.1081 291.8693,62.4121 C293.9273,66.7011 294.0133,71.3321 294.016384,71.5261 C294.0223,71.9221 293.7063,72.2471 293.3103,72.2521 C292.9613,72.2921 292.5913,71.9401 292.5853,71.5461 C292.5853,71.5011 292.4973,67.0281 290.5773,63.0311 C289.0993,59.9501 287.1543,58.2461 285.9963,58.1551 C285.5863,58.1231 285.2753,58.2901 285.0083,58.6791 C284.0743,60.0341 285.3043,67.1401 286.4743,71.7531 C286.5723,72.1361 286.3413,72.5261 285.9573,72.6231 C285.8983,72.6381 285.8393,72.6451 285.7813,72.6451" id="Fill-138" fill="#1B1C1C"></path>
                <path d="M296.1006,79.861 C295.8316,79.861 295.6626,79.835 295.6406,79.83 C295.2506,79.766 294.9886,79.397 295.0526,79.007 C295.1186,78.618 295.4906,78.362 295.8706,78.417 C295.9316,78.427 296.9586,78.563 297.8806,77.791 C298.8286,76.997 299.3626,75.461 299.4246,73.348 C299.5286,69.871 299.5626,67.371 299.0436,66.852 C298.9576,66.767 298.7726,66.67 298.2056,66.688 C296.8236,66.728 295.2186,68.293 294.7166,68.893 C294.4636,69.2 294.0106,69.237 293.7086,68.984 C293.4056,68.729 293.3656,68.279 293.6186,67.976 C293.7086,67.867 295.8616,65.322 298.1636,65.257 C298.7476,65.237 299.5056,65.289 300.0566,65.84 C300.9696,66.754 301.0006,68.535 300.8566,73.39 C300.7796,75.979 300.0786,77.837 298.7706,78.912 C297.7786,79.728 296.6976,79.861 296.1006,79.861" id="Fill-140" fill="#1B1C1C"></path>
                <path d="M305.7705,79.4894 C305.5305,79.4894 305.2935,79.3674 305.1595,79.1464 C304.9545,78.8094 305.0585,78.3724 305.3945,78.1654 C305.4995,78.0984 307.8445,76.5664 307.2345,72.6884 C306.5935,68.6264 305.6675,67.3114 305.0035,66.9264 C304.7955,66.8044 304.4495,66.6684 303.8685,66.8884 C301.9195,67.6224 301.1385,70.4294 301.1305,70.4574 C301.0315,70.8404 300.6485,71.0764 300.2575,70.9684 C299.8745,70.8694 299.6455,70.4784 299.7465,70.0964 C299.7835,69.9524 300.6975,66.5524 303.3645,65.5494 C304.2065,65.2314 305.0235,65.2804 305.7245,65.6884 C307.1195,66.5014 308.0475,68.6544 308.6485,72.4644 C309.4155,77.3284 306.2765,79.3034 306.1435,79.3844 C306.0265,79.4554 305.8975,79.4894 305.7705,79.4894" id="Fill-142" fill="#1B1C1C"></path>
                <path d="M314.6182,79.5284 C314.5632,79.5284 314.5092,79.5224 314.4532,79.5084 C314.0682,79.4184 313.8312,79.0324 313.9222,78.6474 C314.3502,76.8334 315.1212,71.6344 313.5392,69.3964 C311.9722,67.1784 311.6702,67.3414 310.6762,67.8814 L310.3032,68.0794 C309.3192,68.5854 308.4402,70.1724 308.1842,70.7404 C308.0222,71.1004 307.5972,71.2594 307.2382,71.1004 C306.8792,70.9384 306.7172,70.5154 306.8792,70.1554 C306.9932,69.8994 308.0432,67.6324 309.6482,66.8074 L309.9952,66.6224 C311.6972,65.7014 312.7272,65.7704 314.7072,68.5684 C316.9872,71.7954 315.3842,78.6864 315.3142,78.9774 C315.2352,79.3074 314.9422,79.5284 314.6182,79.5284" id="Fill-144" fill="#1B1C1C"></path>
            </g>
        </g>
    </g>
</svg>