
<svg width="454px" height="305px" viewBox="0 0 454 305" version="1.1" xmlns="http://www.w3.org/2000/svg" xmlns:xlink="http://www.w3.org/1999/xlink">
    <defs>
        <polygon id="path-53hsimzya8-1" points="0 305 454 305 454 0 0 0"></polygon>
    </defs>
    <g id="0.0-Home" stroke="none" stroke-width="1" fill="none" fill-rule="evenodd">
        <g id="quot.-immediate-copy">
            <path d="M406.076162,302 L81.9238376,302 C71.4722774,302 63,293.535048 63,283.092524 L63,33 L425,33 L425,283.092524 C425,293.535048 416.527723,302 406.076162,302" id="Fill-1" fill="#34E0A1"></path>
            <mask id="mask-53hsimzya8-2" fill="white">
                <use xlink:href="#path-53hsimzya8-1"></use>
            </mask>
            <g id="Clip-4"></g>
            <path d="M121.481603,258.743399 L181.476173,258.743399 L181.476173,215.198371 L121.481603,215.198371 L121.481603,258.743399 Z M121.481603,213.416043 L181.476173,213.416043 L181.476173,169.871015 L121.481603,169.871015 L121.481603,213.416043 Z M121.481603,168.090165 L181.476173,168.090165 L181.476173,124.545138 L121.481603,124.545138 L121.481603,168.090165 Z M121.481603,122.764288 L181.476173,122.764288 L181.476173,79.2177812 L121.481603,79.2177812 L121.481603,122.764288 Z M121.481603,77.4369316 L181.476173,77.4369316 L181.476173,33.8904248 L121.481603,33.8904248 L121.481603,77.4369316 Z M183.258571,258.743399 L243.251659,258.743399 L243.251659,215.198371 L183.258571,215.198371 L183.258571,258.743399 Z M183.258571,213.416043 L243.251659,213.416043 L243.251659,169.871015 L183.258571,169.871015 L183.258571,213.416043 Z M183.258571,168.090165 L243.251659,168.090165 L243.251659,124.545138 L183.258571,124.545138 L183.258571,168.090165 Z M183.258571,122.764288 L243.251659,122.764288 L243.251659,79.2177812 L183.258571,79.2177812 L183.258571,122.764288 Z M183.258571,77.4369316 L243.251659,77.4369316 L243.251659,33.8904248 L183.258571,33.8904248 L183.258571,77.4369316 Z M245.034057,258.743399 L305.030107,258.743399 L305.030107,215.198371 L245.034057,215.198371 L245.034057,258.743399 Z M245.034057,213.416043 L305.030107,213.416043 L305.030107,169.871015 L245.034057,169.871015 L245.034057,213.416043 Z M245.034057,168.090165 L305.030107,168.090165 L305.030107,124.545138 L245.034057,124.545138 L245.034057,168.090165 Z M245.034057,122.764288 L305.030107,122.764288 L305.030107,79.2177812 L245.034057,79.2177812 L245.034057,122.764288 Z M245.034057,77.4369316 L305.030107,77.4369316 L305.030107,33.8904248 L245.034057,33.8904248 L245.034057,77.4369316 Z M306.812505,258.743399 L366.805594,258.743399 L366.805594,215.198371 L306.812505,215.198371 L306.812505,258.743399 Z M306.812505,213.416043 L366.805594,213.416043 L366.805594,169.871015 L306.812505,169.871015 L306.812505,213.416043 Z M306.812505,168.090165 L366.805594,168.090165 L366.805594,124.545138 L306.812505,124.545138 L306.812505,168.090165 Z M306.812505,122.764288 L366.805594,122.764288 L366.805594,79.2177812 L306.812505,79.2177812 L306.812505,122.764288 Z M306.812505,77.4369316 L366.805594,77.4369316 L366.805594,33.8904248 L306.812505,33.8904248 L306.812505,77.4369316 Z M119.699205,302 L121.481603,302 L121.481603,260.524249 L181.476173,260.524249 L181.476173,302 L183.258571,302 L183.258571,260.524249 L243.251659,260.524249 L243.251659,302 L245.034057,302 L245.034057,260.524249 L305.030107,260.524249 L305.030107,302 L306.812505,302 L306.812505,260.524249 L366.807074,260.524249 L366.807074,302 L368.589472,302 L368.589472,260.524249 L425,260.524249 L425,258.743399 L368.589472,258.743399 L368.589472,215.198371 L425,215.198371 L425,213.417522 L368.589472,213.417522 L368.589472,169.871015 L425,169.871015 L425,168.090165 L368.589472,168.090165 L368.589472,124.545138 L425,124.545138 L425,122.764288 L368.589472,122.764288 L368.589472,79.2177812 L425,79.2177812 L425,77.4369316 L368.589472,77.4369316 L368.589472,33.8904248 L425,33.8904248 L425,33 L63,33 L63,33.8904248 L119.699205,33.8904248 L119.699205,77.4369316 L63,77.4369316 L63,79.2177812 L119.699205,79.2177812 L119.699205,122.764288 L63,122.764288 L63,124.545138 L119.699205,124.545138 L119.699205,168.090165 L63,168.090165 L63,169.871015 L119.699205,169.871015 L119.699205,213.417522 L63,213.417522 L63,215.198371 L119.699205,215.198371 L119.699205,258.743399 L63,258.743399 L63,260.524249 L119.699205,260.524249 L119.699205,302 Z" id="Fill-3" fill="#FFFFFF" mask="url(#mask-53hsimzya8-2)"></path>
            <path d="M259.569198,62.1075028 C259.569198,62.1075028 242.43268,72.8478994 237.002052,71.4560362 C231.57291,70.064173 227.334878,65.4807764 206.491198,74.0092629 C185.647517,82.536272 187.924158,90.3673494 187.573219,96.6336889 C187.223767,102.898551 182.191662,124.327629 187.223767,130.976657 C191.661061,136.8411 190.376268,134.806497 193.879708,136.024008 C197.383147,137.242997 206.958125,132.369998 204.856953,137.938928 C202.754295,143.507859 197.090202,141.071359 194.462623,147.337699 C191.83653,153.602561 195.631427,158.939514 194.230646,163.465286 C192.828378,167.98958 191.952518,170.078852 191.952518,170.078852 L232.381854,302 L290.564824,302 C290.564824,302 282.521486,266.083428 277.266327,254.595386 C272.012654,243.10882 268.991012,231.694656 268.991012,231.694656 C268.991012,231.694656 272.781448,237.955085 296.170922,237.72163 C307.847071,237.60638 327,232.38911 327,232.38911 L309.131864,187.598302 C309.131864,187.598302 296.170922,196.765095 284.493286,193.863164 C272.81565,190.96271 257.402598,180.42474 253.549706,178.326602 C249.695328,176.228464 248.294547,176.111737 246.660303,172.283374 C245.024571,168.455012 241.289155,166.482467 237.201313,164.276467 C233.113472,162.073422 232.297093,161.492741 232.297093,161.492741 C232.297093,161.492741 233.15957,161.028786 234.560351,153.89364 C235.961132,146.757017 238.753771,146.480713 239.805101,146.480713 C240.85643,146.480713 260.119399,144.320518 263.76708,123.783886 C266.011007,111.146301 267.173863,96.494798 264.604278,89.5340045 C262.036179,82.5717334 267.43558,77.670661 267.43558,77.670661 C267.43558,77.670661 269.545674,55.9209517 259.569198,62.1075028" id="Fill-5" fill="#FFFFFF" mask="url(#mask-53hsimzya8-2)"></path>
            <path d="M172.313606,303.998518 C172.313606,303.998518 167.436089,244.472814 176.478359,209.210892 C185.52212,173.948971 194.683681,167.663685 201.586165,168.013444 C208.487159,168.361721 213.843331,172.37802 217.530919,193.849659 C221.219998,215.321299 228.835248,265.421297 229.549503,275.7214 C230.263759,286.020021 233,304 233,304 L172.313606,303.998518 Z" id="Fill-6" fill="#FFCE00" mask="url(#mask-53hsimzya8-2)"></path>
            <path d="M313,199.174437 C313,199.174437 335.540201,194.359278 351.988457,190.654289 C368.438194,186.9493 369.904115,186.275532 381.698182,178.557419 C393.490767,170.839306 422.354142,145.834684 426.544393,148.150855 C430.734645,150.465552 409.163819,172.537733 409.163819,172.537733 C409.163819,172.537733 450.132528,155.712689 453.700245,160.807971 C457.269443,165.900303 427.786498,175.779783 427.786498,175.779783 C427.786498,175.779783 434.14821,174.23616 432.59632,179.329967 C431.04443,184.423774 422.354142,187.35474 422.354142,187.35474 C422.354142,187.35474 425.148137,189.362777 423.130828,192.758157 C421.11352,196.153537 418.165373,199.858526 410.405923,200.939209 C402.646474,202.019892 398.611856,201.865087 391.163673,203.099101 C383.714009,204.334589 322.096417,222 322.096417,222 L313,199.174437 Z" id="Fill-7" fill="#FFCE00" mask="url(#mask-53hsimzya8-2)"></path>
            <path d="M413.704571,0 L74.2954292,0 C68.0570362,0 63,5.01950307 63,11.211595 L63,33 L425,33 L425,11.211595 C425,5.01950307 419.942964,0 413.704571,0" id="Fill-8" fill="#FF4D00" mask="url(#mask-53hsimzya8-2)"></path>
            <path d="M368,18 C368,21.8662704 364.866603,25 361.000743,25 C357.133397,25 354,21.8662704 354,18 C354,14.1337296 357.133397,11 361.000743,11 C364.866603,11 368,14.1337296 368,18" id="Fill-9" fill="#FFFFFF" mask="url(#mask-53hsimzya8-2)"></path>
            <path d="M388,18 C388,21.8662704 384.865117,25 380.999257,25 C377.133397,25 374,21.8662704 374,18 C374,14.1337296 377.133397,11 380.999257,11 C384.865117,11 388,14.1337296 388,18" id="Fill-10" fill="#FFFFFF" mask="url(#mask-53hsimzya8-2)"></path>
            <path d="M407,18 C407,21.8662704 403.866603,25 400.000743,25 C396.134883,25 393,21.8662704 393,18 C393,14.1337296 396.134883,11 400.000743,11 C403.866603,11 407,14.1337296 407,18" id="Fill-11" fill="#FFFFFF" mask="url(#mask-53hsimzya8-2)"></path>
            <path d="M163.724109,29 L20.2758907,29 C14.0480225,29 9,34.0316765 9,40.2393783 L9,81.603891 C9,87.8115928 14.0480225,92.8447449 20.2758907,92.8447449 L128.128889,92.8447449 L148.845026,121 L148.845026,92.8447449 L163.724109,92.8447449 C169.951978,92.8447449 175,87.8115928 175,81.603891 L175,40.2393783 C175,34.0316765 169.951978,29 163.724109,29" id="Fill-12" fill="#FFFFFF" mask="url(#mask-53hsimzya8-2)"></path>
            <path d="M12.1829572,26.7807848 C6.44945208,26.7807848 1.78467945,31.4338987 1.78467945,37.1548919 L1.78467945,78.6187809 C1.78467945,84.3397741 6.44945208,88.994367 12.1829572,88.994367 L120.176816,88.994367 C120.461416,88.994367 120.728229,89.1289612 120.89721,89.3582151 L140.026187,115.389621 L140.026187,89.8862385 C140.026187,89.3937124 140.424924,88.994367 140.918527,88.994367 L155.818525,88.994367 C161.55203,88.994367 166.215321,84.3397741 166.215321,78.6187809 L166.215321,37.1548919 C166.215321,31.4338987 161.55203,26.7807848 155.818525,26.7807848 L12.1829572,26.7807848 Z M140.918527,119 C140.639856,119 140.370079,118.868364 140.198133,118.636152 L119.7262,90.7766309 L12.1829572,90.7766309 C5.46521026,90.7766309 0,85.3233471 0,78.6187809 L0,37.1548919 C0,30.4532838 5.46521026,25 12.1829572,25 L155.818525,25 C162.536272,25 168,30.4532838 168,37.1548919 L168,78.6187809 C168,85.3233471 162.536272,90.7766309 155.818525,90.7766309 L141.810867,90.7766309 L141.810867,118.109608 C141.810867,118.494162 141.563324,118.834346 141.195715,118.954149 C141.105296,118.985209 141.011911,119 140.918527,119 L140.918527,119 Z" id="Fill-13" fill="#1D1D1B" mask="url(#mask-53hsimzya8-2)"></path>
            <path d="M56.983555,60.6428954 C52.5505261,64.4719619 47.2297038,67.1765015 41.843559,69.5211328 C43.7260374,67.0630035 46.5185783,64.6541562 48.2362657,63.5759245 C50.3651884,62.2408288 53.0834991,61.3836196 55.4841045,60.6294548 C56.2308605,60.3949917 56.9939472,60.2142908 57.7525801,60.0201494 C57.4972281,60.2292248 57.2507838,60.4457671 56.983555,60.6428954 M142.847137,56.4808016 C137.533738,56.2164705 132.849811,56.7764939 128.058992,58.286317 C128.207453,57.5276719 128.306921,56.7525996 128.259414,55.901364 C128.20003,54.8201456 127.591342,54.1092892 126.618926,53.7344469 C120.379134,51.3121591 113.549953,54.3228448 108.592859,58.7388159 C107.721396,56.7645467 105.806256,55.3682218 102.710856,55.3144595 C98.6148326,55.2442699 94.1135119,56.9945297 89.8215205,59.4183109 C89.943258,58.5237669 89.8630894,57.663571 89.4577924,56.8840184 C87.3496541,52.8399029 76.4675036,53.8001563 73.0454904,53.776262 C71.3560105,53.7658082 69.4393862,53.825544 67.3965705,53.9733902 C68.7431067,50.1308831 68.7297453,45.937428 65.0731645,43.4195628 C59.2832073,39.4321963 48.2436887,44.8801038 42.8070672,47.1097436 C31.8165406,51.6197986 22.1280121,58.3131981 13.668736,66.6433593 C11.6110742,68.6698972 14.7703125,71.8478433 16.8294588,69.8213053 C26.6248789,60.1769559 38.191432,52.8652906 51.3405735,48.8017609 C55.1099842,47.6369123 57.5343432,46.2390939 61.0380097,48.556844 C64.4392385,49.4842427 64.9751807,51.4585118 62.6933436,54.4587438 C50.3369809,56.1193998 35.8888106,61.1969452 35.4018603,73.7101077 C35.3498992,75.0407233 36.8938878,76.4251011 38.2300318,75.8770248 C47.3217493,72.1420422 57.5714583,68.0128031 63.9552574,60.1231937 C64.3041395,59.6916023 64.6515369,59.2107289 64.9915113,58.7044678 C66.7255293,58.5088329 68.4625165,58.3624801 70.1950499,58.3057311 C74.0164217,58.1817793 79.0165694,57.8024568 82.6969038,58.9628252 C86.1471245,60.0515107 84.6818199,60.154555 82.2693377,63.1383596 C80.4685125,65.3650125 78.7597328,67.0943648 76.5699413,68.9506556 C74.3653037,70.820387 77.539388,73.9714519 79.7306641,72.130095 C83.2046385,69.2105065 86.8018351,66.6179715 90.7998748,64.4794289 C93.1054655,63.2369237 95.486771,62.158692 97.9408221,61.2432404 C100.644287,59.4048703 102.661864,60.3218153 103.993554,63.9940753 C102.595057,66.5462885 106.272422,68.665417 107.852041,66.2625434 C110.058164,62.9083766 125.566341,52.4157785 122.432342,61.3418045 C121.905307,62.8441606 123.627448,64.7601873 125.181829,64.10608 C130.970302,61.6733384 136.602891,60.6652963 142.847137,60.9759226 C145.721331,61.1192886 145.713908,56.6241676 142.847137,56.4808016" id="Fill-14" fill="#1D1D1B" mask="url(#mask-53hsimzya8-2)"></path>
            <path d="M233.111856,305 C232.637982,305 232.246777,304.627768 232.224633,304.147278 C232.2143,303.936692 231.237027,282.801046 227.125689,261.45778 C225.853167,254.85252 224.685458,244.234275 223.448366,232.993172 C220.761603,208.560827 217.081328,175.098525 210.328991,170.630261 C206.982347,168.413183 202.766196,168.195183 198.462946,170.013335 C188.263581,174.327367 179.903614,188.690175 176.103764,208.433289 C167.910613,250.993766 173.852493,303.478447 173.914495,304.003427 C173.970592,304.492816 173.622199,304.936231 173.133562,304.992585 C172.656735,305.043007 172.205005,304.697469 172.148908,304.208081 C172.086905,303.681617 166.114025,250.922583 174.357368,208.095166 C179.998094,178.791183 192.612594,170.550179 197.775017,168.36721 C202.637763,166.308813 207.445888,166.581684 211.30774,169.138367 C218.756865,174.069326 222.189131,205.268578 225.21543,232.797416 C226.448093,244.002927 227.612849,254.585581 228.870608,261.118174 C233.008519,282.59491 233.99022,303.855128 233.999078,304.067196 C234.021222,304.561033 233.641827,304.977755 233.151714,304.998517 C233.138428,305 233.123666,305 233.111856,305" id="Fill-15" fill="#1D1D1B" mask="url(#mask-53hsimzya8-2)"></path>
            <path d="M204.160708,109 C202.788961,109 201.943788,108.940374 201.821363,108.93143 C201.33314,108.894164 200.96439,108.463365 201.00274,107.969959 C201.039615,107.476553 201.427539,107.10389 201.952638,107.141156 C202.069163,107.147119 213.439911,107.941637 223.871086,103.180492 C229.850722,100.451106 232.153192,97.4757636 234.381912,94.5973131 C236.120933,92.3494087 237.765554,90.2252286 240.922046,88.3723472 C244.169989,86.467293 248.266054,86.1468026 252.227895,85.8367468 C257.006883,85.462593 261.520373,85.110799 263.439343,81.9327273 C267.06341,75.9388126 266.103187,66.0870885 266.092862,65.9887054 C266.042712,65.4952994 266.396711,65.0555568 266.88346,65.0033839 C267.359884,64.9616457 267.808283,65.3104584 267.858433,65.8038645 C267.904158,66.2316818 268.886505,76.3636486 264.95564,82.8688572 C262.560245,86.8280309 257.608682,87.2156006 252.365069,87.6255301 C248.602353,87.9206794 244.709837,88.2247726 241.812944,89.9256073 C238.954401,91.6040824 237.411555,93.5955944 235.780208,95.7033774 C233.530839,98.6101503 230.979095,101.904493 224.60416,104.815738 C216.535929,108.49765 208.137299,109 204.160708,109" id="Fill-16" fill="#1D1D1B" mask="url(#mask-53hsimzya8-2)"></path>
            <path d="M249.872029,81 C249.427909,81 249.04765,80.649446 249.004108,80.1800347 C248.957664,79.6820374 249.310348,79.2397075 249.790752,79.1930672 C249.918473,79.1795265 253.049082,78.7943685 255.665905,75.1248356 C258.394484,71.2988322 259.249342,62.8975728 259.25805,62.811815 C259.307397,62.3138177 259.74426,61.9677773 260.215955,62.0023813 C260.696359,62.0535351 261.044689,62.4988741 260.995342,62.9968714 C260.960509,63.360966 260.086783,71.9743633 257.072284,76.2020744 C253.969251,80.5531565 250.118762,80.9789367 249.95766,80.9954864 C249.928632,81 249.901056,81 249.872029,81" id="Fill-17" fill="#1D1D1B" mask="url(#mask-53hsimzya8-2)"></path>
            <path d="M239.912,77 C239.456164,77 239.061106,76.6740947 239.006405,76.2308636 C238.947146,75.7528692 239.305738,75.3197773 239.805638,75.2618386 C239.848183,75.2560448 244.099617,74.7215601 246.854389,70.8715327 C249.75047,66.8216167 251.17116,59.7820631 251.184835,59.7110882 C251.277522,59.2374392 251.762228,58.9245701 252.254531,59.0158236 C252.749873,59.1056286 253.078076,59.561896 252.983869,60.035545 C252.923091,60.3382747 251.47809,67.4994996 248.366246,71.8535939 C245.125249,76.3829527 240.226527,76.9710306 240.018362,76.9942061 C239.983415,76.9985515 239.946948,77 239.912,77" id="Fill-18" fill="#1D1D1B" mask="url(#mask-53hsimzya8-2)"></path>
            <path d="M187.453124,112 C187.05958,112 186.701411,111.733866 186.595286,111.331676 C186.537802,111.111891 185.184718,105.877432 185.009318,99.8550374 C184.770539,91.5645269 189.118685,83.2201915 198.305804,74.3450841 C209.434112,63.5950803 236.119942,67.7635102 237.253409,67.9444212 C237.736864,68.0221681 238.065554,68.4841641 237.988909,68.9745676 C237.912263,69.4664662 237.442074,69.801376 236.973358,69.7221339 C236.703626,69.6802702 210.023691,65.5148306 199.529181,75.6503349 C190.728237,84.1516592 186.558438,92.0519401 186.783952,99.8027078 C186.951982,105.609803 188.297696,110.81735 188.310962,110.86968 C188.436247,111.349617 188.154723,111.843011 187.680112,111.970097 C187.603467,111.991029 187.526821,112 187.453124,112" id="Fill-19" fill="#1D1D1B" mask="url(#mask-53hsimzya8-2)"></path>
            <path d="M207.266794,141 C207.19484,141 207.119888,140.991019 207.046435,140.973058 C206.563744,140.851819 206.268433,140.360877 206.392853,139.878916 C206.625204,138.952413 206.869548,136.794065 207.028446,135.231433 C203.974901,136.970684 197.016357,140.224671 190.530011,138.256413 C186.663986,137.081446 183.65991,133.481704 182.495156,128.627666 C181.105545,122.844131 182.690031,116.901938 186.629508,113.11959 C194.667361,105.406714 205.061706,114.412803 205.16364,114.504106 C205.5384,114.834893 205.572878,115.403667 205.243089,115.774867 C204.911802,116.150558 204.340667,116.180493 203.968905,115.855693 C203.595644,115.524906 194.712333,107.853939 187.881207,114.41879 C183.72137,118.412183 183.279153,124.161292 184.250531,128.208569 C185.263883,132.433962 187.807754,135.545755 191.056174,136.53213 C198.671297,138.844645 207.496147,132.835098 207.58459,132.77373 C207.869408,132.576156 208.245667,132.561188 208.549972,132.736311 C208.851279,132.911433 209.026667,133.243717 208.996686,133.590969 C208.978697,133.797523 208.561964,138.653058 208.140734,140.318968 C208.038799,140.729084 207.671534,141 207.266794,141" id="Fill-20" fill="#1D1D1B" mask="url(#mask-53hsimzya8-2)"></path>
            <path d="M232.885871,162 C232.788844,162 232.688878,161.983722 232.591851,161.949685 C232.13024,161.785423 231.887674,161.277837 232.050855,160.814646 C232.159642,160.503879 234.745546,153.177176 238.647189,149.665509 C241.287487,147.285922 242.748766,146.964796 245.172959,146.435012 C246.394611,146.16716 247.916164,145.834196 250.040457,145.125351 C255.901742,143.167519 261.968841,139.507867 266.073357,118.605085 C270.107309,98.0619057 262.093799,84.4887862 262.012944,84.3541205 C261.758616,83.9338451 261.889455,83.3863033 262.308433,83.1302904 C262.721531,82.8757574 263.265468,83.0045038 263.522735,83.426259 C263.871149,83.9989582 271.984625,97.6889853 267.808074,118.952849 C263.521265,140.792371 256.954333,144.693237 250.596154,146.816811 C248.383655,147.555253 246.812119,147.900056 245.547834,148.176787 C243.26624,148.675494 242.119563,148.927067 239.826209,150.992928 C236.267099,154.198268 233.745879,161.332591 233.720887,161.405103 C233.592989,161.772104 233.250456,162 232.885871,162" id="Fill-21" fill="#1D1D1B" mask="url(#mask-53hsimzya8-2)"></path>
            <path d="M248.746516,187 C248.715218,187 248.683919,186.998519 248.652621,186.995556 C248.159301,186.943706 247.800116,186.505203 247.85228,186.016332 C247.864203,185.900781 249.031181,174.510083 247.047467,170.14876 C245.949047,167.729589 243.771583,167.036281 240.473342,165.985949 C238.27054,165.285233 235.531197,164.412672 232.562333,162.744585 C226.684222,159.442483 222.88968,155.589289 218.496,151.127229 C217.375224,149.989493 216.205265,148.799906 214.93396,147.552544 C208.924693,141.646092 205.112267,138.512872 196.658755,142.757163 C189.905783,146.146669 191.779207,163.286787 193.071378,169.605076 C193.168254,170.08654 192.855271,170.557634 192.369403,170.655409 C191.895458,170.754664 191.41108,170.442083 191.311224,169.960619 C191.111511,168.978432 186.501724,145.856309 195.849472,141.164628 C205.194239,136.472947 209.769747,139.969116 216.196323,146.284442 C217.47359,147.53773 218.651001,148.734723 219.777739,149.878385 C224.25339,154.424887 227.788603,158.014386 233.444646,161.19353 C236.252548,162.77125 238.784726,163.575666 241.018826,164.286751 C244.503366,165.39634 247.254632,166.271864 248.683919,169.413972 C250.867346,174.213798 249.686954,185.714121 249.636281,186.20151 C249.588588,186.660753 249.198105,187 248.746516,187" id="Fill-22" fill="#1D1D1B" mask="url(#mask-53hsimzya8-2)"></path>
            <path d="M288.108743,303 C287.70448,303 287.338719,302.724712 287.242466,302.316221 C287.107711,301.752326 273.740385,245.808273 269.531906,232.766156 C269.009178,231.146992 268.455353,229.336902 267.860065,227.383249 C263.580507,213.364305 257.113783,192.176044 243.210402,180.408242 C227.805473,167.369085 214.478129,174.943932 214.343375,175.022374 C213.921342,175.268061 213.371959,175.130417 213.123182,174.705646 C212.872924,174.280874 213.016563,173.736219 213.440077,173.486092 C213.583716,173.40321 228.000941,165.202305 244.362477,179.049565 C258.667159,191.154816 265.225693,212.643525 269.564484,226.863754 C270.158291,228.808528 270.709155,230.608257 271.22744,232.220021 C275.456651,245.32726 288.841747,301.337914 288.97502,301.90181 C289.090524,302.381343 288.794361,302.860876 288.316057,302.974839 C288.246459,302.9926 288.17686,303 288.108743,303" id="Fill-23" fill="#1D1D1B" mask="url(#mask-53hsimzya8-2)"></path>
            <path d="M302.521487,241 C301.750701,241 300.972475,240.977814 300.188297,240.933441 C285.467474,240.082969 270.667788,234.171081 270.518987,234.111917 C270.060682,233.925553 269.840457,233.407875 270.027946,232.952318 C270.21097,232.495281 270.728796,232.274898 271.194541,232.461262 C271.337389,232.518947 285.873699,238.322862 300.292457,239.155585 C312.968762,239.875898 324.332648,233.9788 327.028911,232.462742 L311.959896,186.285817 C307.914013,187.977886 291.815299,194.441473 284.796384,193.38245 C276.243338,192.076421 269.266088,188.829837 261.462995,182.524513 C253.764063,176.302017 249.277732,177.991128 249.236067,178.010356 C248.777762,178.190804 248.258449,177.977816 248.069472,177.526696 C247.881984,177.077056 248.08584,176.562335 248.538194,176.370055 C248.752466,176.278352 253.961968,174.167702 262.593878,181.141572 C270.130618,187.232429 276.85342,190.368082 285.068689,191.622343 C292.426868,192.747924 311.95692,184.355616 312.151848,184.26835 C312.383977,184.169252 312.647353,184.170731 312.876506,184.272787 C313.107147,184.376323 313.282731,184.571562 313.361595,184.811173 L328.955876,232.59438 C329.083844,232.983378 328.926116,233.407875 328.577923,233.6253 C328.06605,233.941823 316.502771,241 302.521487,241" id="Fill-24" fill="#1D1D1B" mask="url(#mask-53hsimzya8-2)"></path>
            <path d="M259.499252,229.80047 C258.561632,229.80047 257.80047,230.563128 257.80047,231.499252 C257.80047,232.436872 258.561632,233.19953 259.499252,233.19953 C260.435377,233.19953 261.19953,232.436872 261.19953,231.499252 C261.19953,230.563128 260.435377,229.80047 259.499252,229.80047 M259.499252,235 C257.570177,235 256,233.429823 256,231.499252 C256,229.570177 257.570177,228 259.499252,228 C261.429823,228 263,229.570177 263,231.499252 C263,233.429823 261.429823,235 259.499252,235" id="Fill-25" fill="#1D1D1B" mask="url(#mask-53hsimzya8-2)"></path>
            <path d="M269.498603,267.681564 C268.497207,267.681564 267.681564,268.497207 267.681564,269.5 C267.681564,270.502793 268.497207,271.318436 269.498603,271.318436 C270.502793,271.318436 271.318436,270.502793 271.318436,269.5 C271.318436,268.497207 270.502793,267.681564 269.498603,267.681564 M269.498603,273 C267.569832,273 266,271.430168 266,269.5 C266,267.569832 267.569832,266 269.498603,266 C271.430168,266 273,267.569832 273,269.5 C273,271.430168 271.430168,273 269.498603,273" id="Fill-26" fill="#1D1D1B" mask="url(#mask-53hsimzya8-2)"></path>
            <path d="M234,107.5 C234,108.880435 232.880435,110 231.5,110 C230.119565,110 229,108.880435 229,107.5 C229,106.119565 230.119565,105 231.5,105 C232.880435,105 234,106.119565 234,107.5" id="Fill-27" fill="#1D1D1B" mask="url(#mask-53hsimzya8-2)"></path>
            <path d="M257,102.999293 C257,104.104351 256.105766,105 255.000707,105 C253.895649,105 253,104.104351 253,102.999293 C253,101.895649 253.895649,101 255.000707,101 C256.105766,101 257,101.895649 257,102.999293" id="Fill-28" fill="#1D1D1B" mask="url(#mask-53hsimzya8-2)"></path>
            <path d="M243.864894,125 C243.410306,125 243.029086,124.625285 243.001753,124.139374 C242.971543,123.635184 243.335501,123.19954 243.811667,123.167552 C243.844754,123.164505 247.114623,122.914695 248.025237,120.404409 C248.974693,117.793589 246.848487,114.469897 246.828348,114.436386 C246.557896,114.020543 246.655719,113.449331 247.049887,113.162964 C247.43974,112.875073 247.983519,112.978653 248.252531,113.394495 C248.361863,113.56205 250.921078,117.542256 249.643628,121.063968 C248.327337,124.683168 244.095066,124.987814 243.915244,124.998477 C243.897982,125 243.882157,125 243.864894,125" id="Fill-29" fill="#1D1D1B" mask="url(#mask-53hsimzya8-2)"></path>
            <path d="M244.236771,133 C239.59799,133 236.469335,130.654549 236.338347,130.555445 C235.9499,130.256698 235.886665,129.715219 236.19682,129.341785 C236.508481,128.97266 237.079107,128.908028 237.470565,129.202466 C237.49616,129.22401 240.255941,131.270714 244.236771,131.270714 C248.103174,131.270714 250.337497,128.386657 250.358576,128.357931 C250.65217,127.971571 251.224301,127.883957 251.624793,128.164033 C252.029802,128.444108 252.121644,128.984151 251.82805,129.371947 C251.715129,129.519884 249.018584,133 244.236771,133" id="Fill-30" fill="#1D1D1B" mask="url(#mask-53hsimzya8-2)"></path>
            <path d="M202.083509,126 C201.790022,126 201.502618,125.853652 201.3247,125.582988 C201.260833,125.486997 199.642852,123.123405 196.233535,122.909391 C195.226859,122.84802 194.51367,123.013251 194.159357,123.392496 C193.762465,123.812655 193.818729,124.500331 193.847622,124.830793 C193.849143,124.857545 193.859787,125.02435 193.859787,125.052675 C193.859787,125.576694 193.45073,126 192.944351,126 C192.444054,126 192.038038,125.586135 192.028914,125.069985 C191.984815,124.525509 191.866204,123.110816 192.847028,122.069073 C193.595193,121.27439 194.763058,120.912455 196.344543,121.017888 C200.684503,121.290126 202.75564,124.390177 202.842318,124.522362 C203.126681,124.95511 203.015673,125.545221 202.595971,125.836343 C202.439343,125.946497 202.259906,126 202.083509,126" id="Fill-31" fill="#1D1D1B" mask="url(#mask-53hsimzya8-2)"></path>
            <path d="M197.716042,131 C197.496155,131 197.274752,130.922954 197.100358,130.767379 C197.004821,130.681443 194.742258,128.629341 195.02432,126.000873 C195.288185,123.520572 197.336927,121.370681 197.423365,121.280299 C197.769119,120.923219 198.343858,120.903957 198.712359,121.241776 C199.079343,121.579595 199.09754,122.142626 198.753303,122.50267 C198.738139,122.52045 197.0397,124.311779 196.83801,126.187563 C196.654518,127.901845 198.315045,129.433884 198.331727,129.450182 C198.70326,129.782074 198.730556,130.346587 198.389352,130.709594 C198.21041,130.90221 197.964742,131 197.716042,131" id="Fill-32" fill="#1D1D1B" mask="url(#mask-53hsimzya8-2)"></path>
            <path d="M242.08176,150 C242.03748,150 241.991674,149.996843 241.945867,149.988951 C234.370994,148.836728 232.160066,143.538079 232.06998,143.313948 C231.876065,142.829383 232.09899,142.272212 232.567744,142.071757 C233.031917,141.874458 233.572434,142.097011 233.767875,142.579998 C233.842692,142.766247 235.716179,147.119442 242.214599,148.109091 C242.715417,148.186432 243.063546,148.669419 242.990256,149.18713 C242.921546,149.660647 242.529137,150 242.08176,150" id="Fill-33" fill="#1D1D1B" mask="url(#mask-53hsimzya8-2)"></path>
            <path d="M420.886351,179 C420.535842,179 420.205951,178.794993 420.064569,178.456223 C419.879006,178.008407 420.096969,177.496618 420.549097,177.314874 C435.648967,171.217017 452.052201,163.236296 452.225982,160.973953 C448.623692,159.0024 427.020259,166.86535 414.235516,172.294392 C413.789279,172.484859 413.266461,172.281307 413.072061,171.836398 C412.879134,171.392944 413.086789,170.878247 413.537443,170.686326 C417.004243,169.21493 447.578056,156.386747 453.043346,159.479295 C453.9314,159.980907 454.022709,160.702065 453.9962,161.088815 C453.703128,165.4841 428.836132,175.859472 421.222133,178.934572 C421.111678,178.979645 420.998278,179 420.886351,179" id="Fill-34" fill="#1D1D1B" mask="url(#mask-53hsimzya8-2)"></path>
            <path d="M416.877549,189 C416.476858,189 416.116964,188.717812 416.022255,188.302742 C415.914433,187.817498 416.208759,187.336733 416.680846,187.224753 C422.826724,185.774993 432.739101,182.339465 433.182047,179.28616 C433.35398,178.102165 433.182047,177.213795 432.676447,176.643446 C431.866322,175.732681 430.390321,175.802854 430.362637,175.798375 C429.892006,175.826743 429.468002,175.446013 429.438861,174.953304 C429.412634,174.459102 429.776899,174.035073 430.257728,174.005212 C430.352437,173.997746 432.57591,173.873823 433.961574,175.420631 C434.848923,176.410529 435.169477,177.800567 434.915948,179.548939 C434.171391,184.695512 419.922804,188.305728 417.074252,188.976111 C417.007227,188.992535 416.94166,189 416.877549,189" id="Fill-35" fill="#1D1D1B" mask="url(#mask-53hsimzya8-2)"></path>
            <path d="M409.503295,199 C408.577337,199 407.970151,198.96728 407.857821,198.961331 C407.353857,198.931586 406.97133,198.506232 407.001689,198.013952 C407.03053,197.520184 407.413057,197.157294 407.968633,197.173654 C408.09007,197.184065 420.593546,197.848867 423.30615,192.607788 C425.989912,187.427688 424.983501,185.330662 424.974393,185.30984 C424.75277,184.87705 424.918228,184.340151 425.350848,184.109627 C425.784986,183.882078 426.320828,184.017418 426.568256,184.435336 C426.733714,184.713452 428.092293,187.329529 424.936444,193.418341 C422.324026,198.45864 413.270884,199 409.503295,199" id="Fill-36" fill="#1D1D1B" mask="url(#mask-53hsimzya8-2)"></path>
        </g>
    </g>
</svg>