<?xml version="1.0" encoding="UTF-8"?>
<svg width="409px" height="414px" viewBox="0 0 409 414" version="1.1" xmlns="http://www.w3.org/2000/svg" xmlns:xlink="http://www.w3.org/1999/xlink">
    <title>Group 100</title>
    <defs>
        <polygon id="path-1" points="0.238898113 0.302142857 113.355577 0.302142857 113.355577 69.5709286 0.238898113 69.5709286"></polygon>
    </defs>
    <g id="PAGINE-DRAFT" stroke="none" stroke-width="1" fill="none" fill-rule="evenodd">
        <g id="4.0_SIW_diventa" transform="translate(-863.000000, -195.000000)">
            <g id="Group-100" transform="translate(863.000000, 195.000000)">
                <g id="Group-3" transform="translate(245.000000, 0.000000)">
                    <mask id="mask-2" fill="white">
                        <use xlink:href="#path-1"></use>
                    </mask>
                    <g id="Clip-2"></g>
                    <path d="M0.238898113,0.5695 L2.3561434,69.5709286 L113.355577,65.3516429 L111.237615,5.69235714 C111.237615,5.69235714 89.1596151,1.17235714 56.7972377,0.5695 C24.4348604,-0.0333571429 0.238898113,0.5695 0.238898113,0.5695" id="Fill-1" fill="#FFCE00" mask="url(#mask-2)"></path>
                </g>
                <path d="M345,44.49964 C345,59.1351021 333.134941,71 318.5,71 C303.864339,71 292,59.1351021 292,44.49964 C292,29.8648979 303.864339,18 318.5,18 C333.134941,18 345,29.8648979 345,44.49964" id="Fill-4" fill="#FFFFFF"></path>
                <path d="M351.441153,16 C351.30761,16 351.175451,15.953879 351.068202,15.8602805 L343.187104,8.957732 C342.955999,8.7549353 342.936625,8.40970613 343.142129,8.18317069 C343.347633,7.95731349 343.701209,7.93764425 343.931623,8.13908445 L351.813412,15.0423112 C352.043825,15.2451079 352.063199,15.5903371 351.858387,15.8161943 C351.747678,15.937601 351.595453,16 351.441153,16" id="Fill-6" fill="#1B1C1C"></path>
                <path d="M343.572543,16 C343.39824,16 343.226062,15.9181847 343.114111,15.761859 C342.924928,15.5010727 342.975943,15.1314429 343.230313,14.936401 L352.085078,8.11870223 C352.336614,7.92219939 352.697266,7.97479495 352.886449,8.23850322 C353.074924,8.49928951 353.023908,8.86964987 352.769538,9.06469172 L343.914774,15.8823905 C343.812034,15.9612838 343.692289,16 343.572543,16" id="Fill-8" fill="#1B1C1C"></path>
                <path d="M307.446325,59 C307.446325,59 307.799076,54.3747812 308.26842,53.4036729 C308.738506,52.4325647 307.504993,52.4325647 307.212396,50.8910658 C306.91757,49.3488448 306.788352,46.2080858 307.793135,45.6369731 C308.797174,45.0658604 309.913352,45.6369731 309.913352,45.6369731 C309.913352,45.6369731 309.149925,37.8702733 312.733129,36.2139742 C316.315591,34.5576751 317.549104,35.5287833 317.549104,35.5287833 C317.549104,35.5287833 322.425233,33.8154451 324.246169,36.5569306 C326.066362,39.2976941 325.244268,40.9539932 326.007694,42.5532532 C326.771121,44.1525132 327.123872,46.2651249 327.123872,46.2651249 C327.123872,46.2651249 328.298717,45.522895 329.003476,46.5510423 C329.708977,47.5784676 329.23889,50.319953 329.003476,50.8910658 C328.768804,51.4621785 328.122713,52.2044084 328.122713,52.2044084 C328.122713,52.2044084 329.708977,52.5466428 330.236989,53.460712 C330.765744,54.3747812 332,58.6570436 332,58.6570436 L307.446325,59 Z" id="Fill-10" fill="#FF4D00"></path>
                <path d="M318.000359,19.1607577 C303.752203,19.1607577 292.160727,30.7511067 292.160727,44.9996411 C292.160727,59.2474576 303.752203,70.8392423 318.000359,70.8392423 C332.248514,70.8392423 343.839273,59.2474576 343.839273,44.9996411 C343.839273,30.7511067 332.248514,19.1607577 318.000359,19.1607577 M318.000359,72 C303.111901,72 291,59.8877767 291,44.9996411 C291,30.1122233 303.111901,18 318.000359,18 C332.888099,18 345,30.1122233 345,44.9996411 C345,59.8877767 332.888099,72 318.000359,72" id="Fill-12" fill="#1B1C1C"></path>
                <path d="M38,20.0751077 L45.5824255,110 C45.5824255,110 107.765361,99.2637921 135.357883,98.1914633 C162.950406,97.1191345 176,95.1639647 176,95.1639647 L173.573423,1 C173.573423,1 116.553525,4.02821641 93.5028369,7.35789072 C70.4528673,10.6890005 38,20.0751077 38,20.0751077" id="Fill-14" fill="#FF4D00"></path>
                <path d="M165,51.5003578 C165,66.1355566 153.135717,78 138.5,78 C123.864283,78 112,66.1355566 112,51.5003578 C112,36.8644434 123.864283,25 138.5,25 C153.135717,25 165,36.8644434 165,51.5003578" id="Fill-16" fill="#FFFFFF"></path>
                <polygon id="Fill-18" fill="#34E0A1" points="88.8526085 46 85.2637743 39.7501796 69.9795715 42.3636102 65 24.9014683 98 21 96.957679 37.9327031 89.4315944 39.2954513"></polygon>
                <path d="M75,33.000372 C75,34.1043333 74.1046663,35 73.0003718,35 C71.8953337,35 71,34.1043333 71,33.000372 C71,31.8956667 71.8953337,31 73.0003718,31 C74.1046663,31 75,31.8956667 75,33.000372" id="Fill-20" fill="#FFFFFF"></path>
                <path d="M84,31.999628 C84,33.1043333 83.1046663,34 82.0003718,34 C80.8953337,34 80,33.1043333 80,31.999628 C80,30.8949228 80.8953337,30 82.0003718,30 C83.1046663,30 84,30.8949228 84,31.999628" id="Fill-22" fill="#FFFFFF"></path>
                <path d="M94,29.999628 C94,31.1043333 93.1044998,32 92,32 C90.8955002,32 90,31.1043333 90,29.999628 C90,28.8956667 90.8955002,28 92,28 C93.1044998,28 94,28.8956667 94,29.999628" id="Fill-24" fill="#FFFFFF"></path>
                <path d="M164.440486,15 C164.307625,15 164.174764,14.953879 164.067507,14.8602805 L156.186496,7.957732 C155.956065,7.7549353 155.936689,7.40970613 156.142209,7.18317069 C156.347728,6.95731349 156.699948,6.93764425 156.931763,7.13908445 L164.812774,14.0423112 C165.043897,14.2451079 165.063272,14.5903371 164.858445,14.8161943 C164.747035,14.937601 164.594799,15 164.440486,15" id="Fill-26" fill="#1B1C1C"></path>
                <path d="M156.572891,14 C156.397866,14 156.225675,13.9181835 156.114424,13.7625861 C155.924518,13.5010655 155.976246,13.1314303 156.230635,12.9363856 L165.085365,6.11858796 C165.336211,5.92135177 165.695474,5.9761396 165.886089,6.23839068 C166.075286,6.49918075 166.023558,6.86954649 165.769878,7.06459116 L156.915148,13.8823888 C156.8124,13.9612833 156.692646,14 156.572891,14" id="Fill-28" fill="#1B1C1C"></path>
                <path d="M138.347607,78 C143.32995,78 147.993557,76.647326 152,74.2961804 C151.977389,74.2305874 149.736028,67.7456235 148.93226,66.0627979 C148.124115,64.3719555 141.778575,63.7182116 141.624677,63.256874 C141.47078,62.796994 141.125057,56.5707581 141.125057,56.5707581 C141.125057,56.5707581 142.240267,56.2631997 142.586719,55.5329307 C142.932442,54.8026617 143.240237,52.0747205 143.240237,52.0747205 C143.240237,52.0747205 145.586628,51.1906723 145.394074,48.7695608 C145.20152,46.3477205 143.778514,46.6166519 143.778514,46.6166519 C143.778514,46.6166519 145.394074,43.2356958 144.894454,41.3524471 C144.394104,39.4691984 142.125027,39.3154192 140.394226,39.16164 C138.663425,39.0078608 138.470871,36.6632745 137.586142,36.2412927 C136.702143,35.8185821 137.35639,37.3556453 136.779456,37.2018661 C136.202522,37.0488157 135.009998,35.088313 133.817475,34.319417 C132.624951,33.5512498 130.933536,34.2042648 130.163319,35.8951073 C129.395289,37.5866785 129.89491,42.1978683 130.395259,42.6592059 C130.894879,43.1205436 131.087434,47.5779541 130.432457,47.4241749 C129.779669,47.2703957 128.164109,48.3461214 129.087494,51.0099271 C130.01015,53.6737328 131.862756,52.7277356 131.862756,52.7277356 C131.862756,52.7277356 131.663638,55.0329661 132.433126,56.4169789 C133.201884,57.800263 135.317794,57.5313316 135.317794,57.5313316 C135.317794,57.5313316 135.971311,62.7190112 135.625589,63.295501 C135.279137,63.8719908 129.010181,66.9854732 128.625802,67.5998612 C128.242152,68.2135204 128.000729,75.9126841 128,75.9447518 C131.188087,77.2668157 134.681781,78 138.347607,78" id="Fill-30" fill="#473FF4"></path>
                <path d="M138.5,25.1751143 C123.983669,25.1751143 112.175114,36.9843952 112.175114,51.5007267 C112.175114,66.0163315 123.983669,77.8248857 138.5,77.8248857 C153.016331,77.8248857 164.825612,66.0163315 164.825612,51.5007267 C164.825612,36.9843952 153.016331,25.1751143 138.5,25.1751143 M138.5,79 C123.336883,79 111,66.6638435 111,51.5007267 C111,36.3368833 123.336883,24 138.5,24 C153.663117,24 166,36.3368833 166,51.5007267 C166,66.6638435 153.663117,79 138.5,79" id="Fill-32" fill="#1B1C1C"></path>
                <path d="M368.573954,226 L377.854112,226 L408.995651,166.140544 L408.995651,152.956275 C408.995651,152.956275 409.752907,147.954875 391.28303,146.13638 C372.813154,144.317885 366,145.227492 366,145.227492 L368.573954,226 Z" id="Fill-34" fill="#1B1C1C"></path>
                <path d="M376,167.475967 L378.573684,249 C378.573684,249 387.65622,247.171449 395.376555,243.513625 C403.09689,239.857246 407.94067,234.524033 407.94067,234.524033 L409,153 C409,153 406.427033,158.333213 395.22512,162.751789 C384.023206,167.171088 376,167.475967 376,167.475967" id="Fill-36" fill="#34E0A1"></path>
                <path d="M210.753536,181.002733 L248.752729,183.510978 C248.752729,183.510978 259.428306,183.441865 257.838571,193.041444 C256.573536,200.679208 248.456045,198.766347 246.632843,198.834741 C244.80964,198.901695 212.57171,196.077399 209.65947,195.971569 C206.746512,195.865739 200.161288,193.145114 201.088694,186.914819 C202.016099,180.684523 210.753536,181.002733 210.753536,181.002733" id="Fill-38" fill="#FF4D00"></path>
                <path d="M253.956105,191.279777 C254.353419,194.569541 252.009266,197.558068 248.720228,197.956105 C245.430467,198.353419 242.441943,196.009264 242.043907,192.7195 C241.646593,189.430459 243.990023,186.441932 247.279784,186.043896 C250.569544,185.646581 253.558068,187.990736 253.956105,191.279777" id="Fill-40" fill="#FFFFFF"></path>
                <path d="M308,289.10835 L320.008646,343 C320.008646,343 346.875348,335.540163 361.545793,326.968014 C376.216238,318.395144 381,312.703191 381,312.703191 L367.525676,263 C367.525676,263 360.814032,270.878395 344.447885,277.663929 C328.081739,284.450184 308,289.10835 308,289.10835" id="Fill-42" fill="#FF4D00"></path>
                <path d="M371.790509,295.601609 C373.115806,303.218035 368.014786,310.465924 360.399027,311.790489 C352.782545,313.115776 345.53388,308.015516 344.209305,300.39909 C342.884731,292.782665 347.985028,285.534053 355.60151,284.209488 C363.217992,282.884201 370.465935,287.985183 371.790509,295.601609" id="Fill-44" fill="#FFFFFF"></path>
                <path d="M355.214805,284.36105 C347.969505,285.621275 343.100267,292.541018 344.360506,299.785517 C345.620746,307.030734 352.539849,311.899917 359.785868,310.639691 C367.030449,309.379466 371.899687,302.459723 370.639448,295.213787 C369.379208,287.969289 362.459386,283.100825 355.214805,284.36105 M359.985609,311.78424 C352.109471,313.153675 344.586114,307.860586 343.215944,299.984537 C341.845775,292.107771 347.139644,284.585936 355.0165,283.215782 C362.892638,281.846347 370.41384,287.138718 371.78401,295.014767 C373.154179,302.891534 367.861747,310.414087 359.985609,311.78424" id="Fill-46" fill="#1B1C1C"></path>
                <path d="M367.521537,277.991414 C367.370863,278.017803 367.210193,277.983568 367.078086,277.885857 L359.232361,272.03956 C358.976716,271.848416 358.923874,271.487525 359.114536,271.232191 C359.305198,270.97543 359.667243,270.924791 359.922174,271.114509 L367.768612,276.960805 C368.023543,277.151949 368.075672,277.513554 367.885723,277.768175 C367.79432,277.891563 367.661499,277.967164 367.521537,277.991414" id="Fill-48" fill="#1B1C1C"></path>
                <path d="M359.707528,278.99127 C359.509582,279.02488 359.298937,278.961313 359.154772,278.802762 C358.931429,278.560184 358.952344,278.18609 359.201084,277.969816 L366.993454,271.151354 C367.241448,270.933619 367.623148,270.952616 367.846492,271.196654 C368.068341,271.439962 368.047426,271.814057 367.798686,272.031061 L360.006316,278.849523 C359.919667,278.925511 359.815839,278.973004 359.707528,278.99127" id="Fill-50" fill="#1B1C1C"></path>
                <path d="M360.768663,311.794723 C363.664053,311.25375 366.159024,309.701743 368,307.537121 C367.983684,307.502762 366.484662,304.365851 365.317396,303.645773 C364.144012,302.921308 361.391386,303.725456 360.960375,303.497371 C360.529363,303.270747 360.137782,301.95706 360.213923,301.538903 C360.289384,301.120015 361.028357,300.597318 361.129652,300.11556 C361.230946,299.634533 361.103818,298.40711 361.103818,298.40711 C361.103818,298.40711 361.661278,298.53358 362.131719,298.118347 C362.601481,297.703114 362.657907,295.727833 361.986236,295.450036 C361.314565,295.171508 360.935221,295.703708 360.935221,295.703708 C360.935221,295.703708 360.684364,293.71015 360.515087,293.106308 C360.345809,292.501734 359.955588,292.633322 359.837977,292.462989 C359.721047,292.291925 359.940632,290.440921 359.771354,290.27936 C359.602077,290.119261 359.39201,290.813022 359.101723,290.79036 C358.811436,290.766966 359.083368,290.235497 358.83591,290.030805 C358.587773,289.827575 358.47764,290.695324 358.213867,290.725297 C357.950093,290.75527 358.044589,290.122185 357.914062,290.088557 C357.782855,290.054929 357.120023,291.93152 356.665897,292.112088 C356.211092,292.293387 354.202878,292.938899 353.99417,293.420657 C353.786143,293.902415 354.476849,296.738867 354.476849,296.738867 C354.476849,296.738867 354.028842,296.515167 353.540045,296.625555 C353.050568,296.735943 352.818067,297.550326 353.167499,298.716341 C353.517611,299.883819 354.612815,299.608215 354.612815,299.608215 C354.612815,299.608215 354.803167,300.188664 355.054703,300.568807 C355.307599,300.947488 356.025498,301.552062 356.444953,301.78161 C356.864407,302.011158 357.176448,302.465867 357.105746,303.506143 C357.035724,304.546419 354.439458,305.031832 353.633181,305.653951 C352.828264,306.273146 353.276271,310.739826 353.277631,310.759564 C355.54282,311.872213 358.130928,312.288178 360.768663,311.794723" id="Fill-52" fill="#473FF4"></path>
                <path d="M88,265 L89.5140665,279.230675 C89.5140665,279.230675 103.748015,281.653177 114.953112,281.956079 C126.157491,282.258982 136,280.89592 136,280.89592 L136,267.573953 C136,267.573953 117.829766,268.784128 110.561673,267.876856 C103.293579,266.968148 88,265 88,265" id="Fill-54" fill="#473FF4"></path>
                <path d="M77.416608,271 L77.4101181,271 C77.2745517,270.998572 63.6645532,270.825025 48.7414357,268.735322 C33.8212026,266.645619 9.67380291,260.198678 9.43079298,260.133687 C9.11999986,260.050128 8.93611994,259.733744 9.02048837,259.425216 C9.1055779,259.118117 9.4250242,258.938143 9.73653842,259.01956 C9.97738506,259.083122 34.0570015,265.511494 48.905846,267.591913 C63.7503638,269.671617 77.2882526,269.843736 77.423819,269.845164 C77.7447075,269.848735 78.0028605,270.110126 78,270.429367 C77.9970917,270.746465 77.7353332,271 77.416608,271" id="Fill-56" fill="#1D1D1B"></path>
                <path d="M84.4191176,297 L84.4097839,297 C84.2137756,296.996227 64.6761327,296.660398 49.9783858,294.926165 C35.2655613,293.189668 6.71871861,285.280718 6.43224501,285.199969 C6.12207811,285.114691 5.93755752,284.780372 6.01940712,284.454354 C6.1019747,284.129091 6.41429554,283.932877 6.72877032,284.021173 C7.01452593,284.100413 35.479519,291.987477 50.1083399,293.713409 C64.7508025,295.441605 84.2324431,295.775924 84.4284513,295.779697 C84.7486699,295.784225 85.0035524,296.061944 85,296.399282 C84.9949367,296.732847 84.7350283,297 84.4191176,297" id="Fill-58" fill="#1D1D1B"></path>
                <path d="M67.4129839,304 L67.4035516,304 C67.3070521,303.999308 57.4582986,303.849127 44.8952245,303.416578 C32.271929,302.980569 5.69973947,296.167752 5.43345889,296.098544 C5.12074246,296.018955 4.93572462,295.710289 5.02061516,295.413387 C5.10478014,295.115102 5.42547773,294.940006 5.73964527,295.018903 C6.00447473,295.086726 32.4489656,301.867015 44.9387581,302.297488 C57.4880465,302.731421 67.3244655,302.880218 67.4224162,302.881602 C67.7467415,302.885754 68.0035898,303.140439 68,303.449798 C67.9948831,303.755004 67.7322303,304 67.4129839,304" id="Fill-60" fill="#1D1D1B"></path>
                <path d="M65.4188251,317 L65.4051786,317 C65.2708683,316.997238 51.7644164,316.697577 39.6161512,315.687428 C27.4233554,314.674517 5.6262907,308.157228 5.40722833,308.092324 C5.10125926,307.999802 4.93103702,307.686331 5.02656258,307.392194 C5.12280638,307.098747 5.44673138,306.932345 5.75485517,307.026248 C5.97176283,307.091152 27.6488819,313.571846 39.7159862,314.575091 C51.8269031,315.581787 65.297443,315.880758 65.4317534,315.88352 C65.7528055,315.890424 66.0063432,316.146587 66,316.455224 C65.993415,316.757647 65.7341313,317 65.4188251,317" id="Fill-62" fill="#1D1D1B"></path>
                <path d="M124,318 L126.419185,402.522508 C126.419185,402.522508 166.63428,414.855481 206.245116,413.952755 C245.855952,413.050743 277,401.620495 277,401.620495 L273.372298,320.104934 C273.372298,320.104934 208.361813,323.715124 190.522207,324.016032 C172.681883,324.316228 124,318 124,318" id="Fill-64" fill="#34E0A1"></path>
                <path d="M267,365 C267,382.67286 252.673022,397 235.000361,397 C217.326978,397 203,382.67286 203,365 C203,347.326417 217.326978,333 235.000361,333 C252.673022,333 267,347.326417 267,365" id="Fill-66" fill="#FFFFFF"></path>
                <path d="M267.440465,332 C267.307615,332 267.174765,331.954553 267.068209,331.860947 L259.18648,324.957135 C258.956069,324.754999 258.936695,324.409063 259.142197,324.183186 C259.347699,323.95731 259.701273,323.937639 259.931684,324.139096 L267.813413,331.042908 C268.043824,331.245044 268.063198,331.590981 267.858388,331.816857 C267.74768,331.937596 267.594764,332 267.440465,332" id="Fill-68" fill="#1B1C1C"></path>
                <path d="M259.57283,332 C259.397824,332 259.225651,331.918196 259.114412,331.762623 C258.924526,331.501144 258.976248,331.131567 259.230611,330.936553 L268.085106,324.119098 C268.336634,323.921162 268.697275,323.975941 268.886453,324.238882 C269.074922,324.4989 269.023908,324.869208 268.769545,325.064952 L259.914342,331.882407 C259.812313,331.961289 259.692572,332 259.57283,332" id="Fill-70" fill="#1B1C1C"></path>
                <path d="M234.656444,397 C242.861009,397 250.341281,393.909121 256,388.83305 C255.9899,388.818644 248.804684,378.348842 246.219881,376.641691 C243.633636,374.93238 238.345721,376.110098 238.080243,375.464694 C237.813322,374.81857 237.852278,371.513757 238.650154,370.488026 C239.449474,369.463016 239.905403,366.42472 239.905403,366.42472 C239.905403,366.42472 241.541555,366.842504 242.378387,366.08257 C243.21522,365.322636 244.166756,361.638216 243.329202,359.929625 C242.49237,358.220314 240.362054,359.320958 240.362054,359.320958 C240.362054,359.320958 241.123139,347.775002 232.221694,348.003343 C223.320249,348.230963 226.363867,360.536852 226.363867,360.536852 C226.363867,360.536852 225.754999,360.080892 224.233551,360.232878 C222.711382,360.385586 222.3312,363.043554 223.491223,365.6511 C224.651246,368.257206 226.668301,367.601718 226.668301,367.601718 C226.668301,367.601718 228.493461,370.336039 229.406763,371.02034 C230.320064,371.703921 230.014909,375.426517 229.406763,376.034464 C228.797895,376.641691 222.711382,377.021298 220.581787,378.008852 C218.46085,378.992084 217.013707,391.574575 217,391.684784 C222.059229,395.040739 228.127708,397 234.656444,397" id="Fill-72" fill="#FFCE00"></path>
                <path d="M234.50036,333.165218 C217.221888,333.165218 203.165926,347.222057 203.165926,364.5 C203.165926,381.777943 217.221888,395.834782 234.50036,395.834782 C251.778112,395.834782 265.834074,381.777943 265.834074,364.5 C265.834074,347.222057 251.778112,333.165218 234.50036,333.165218 M234.50036,397 C216.579116,397 202,382.421443 202,364.5 C202,346.578557 216.579116,332 234.50036,332 C252.420884,332 267,346.578557 267,364.5 C267,382.421443 252.420884,397 234.50036,397" id="Fill-74" fill="#1B1C1C"></path>
                <path d="M0,104 L0,232.476691 C0,232.476691 42.2994954,245.845251 78.9125274,249.017294 C115.526997,252.189337 146,250.603674 146,250.603674 L144.180706,137.535276 C144.180706,137.535276 76.6382296,134.363233 47.0745144,125.752379 C17.5107993,117.142242 0,104 0,104" id="Fill-76" fill="#34E0A1"></path>
                <path d="M139,190 C139,211.539159 121.538998,229 99.9996405,229 C78.4602826,229 61,211.539159 61,190 C61,168.460841 78.4602826,151 99.9996405,151 C121.538998,151 139,168.460841 139,190" id="Fill-78" fill="#FFFFFF"></path>
                <path d="M136.441153,152 C136.30761,152 136.175451,151.954552 136.068202,151.860942 L128.187104,144.956896 C127.955999,144.754075 127.936625,144.408805 128.142129,144.182921 C128.349016,143.957037 128.701209,143.938043 128.931623,144.138829 L136.813412,151.042198 C137.043825,151.245018 137.063199,151.590288 136.858387,151.816851 C136.747678,151.937594 136.595453,152 136.441153,152" id="Fill-80" fill="#1B1C1C"></path>
                <path d="M128.572526,152 C128.398228,152 128.226055,151.918187 128.114107,151.762597 C127.92493,151.50182 127.975944,151.131472 128.230306,150.936436 L137.08551,144.118963 C137.336329,143.921736 137.695554,143.97506 137.886148,144.23949 C138.075326,144.499537 138.023603,144.869886 137.769241,145.064921 L128.914746,151.882394 C128.812009,151.962016 128.692268,152 128.572526,152" id="Fill-82" fill="#1B1C1C"></path>
                <path d="M99.9599508,229 C109.038513,229 117.382874,225.875263 124,220.653483 C123.972037,220.524931 121.681246,209.879567 121.005121,206.040255 C120.323978,202.177962 118.283417,201.837552 117.829561,201.998421 C117.375704,202.160008 116.808563,199.678747 116.808563,197.974541 C116.808563,196.270335 114.426713,195.475326 113.746287,193.459436 C113.065144,191.442827 115.333709,188.658501 114.993854,186.065206 C114.653283,183.471193 110.684011,182.637403 109.323159,181.501265 C107.96159,180.365128 108.756018,168.32365 98.8880467,167.073324 C89.0200758,165.823717 88.4529345,180.933196 87.319369,182.903124 C86.1850866,184.873051 82.8955239,185.818875 82.6689542,187.780903 C82.4416675,189.744366 84.1430913,194.453376 83.9165216,196.724933 C83.6899519,198.997208 80.5136741,200.133346 78.6996825,201.156013 C76.8914268,202.173653 75.0150568,219.773012 75,219.911618 C81.7547885,225.581533 90.4576462,229 99.9599508,229" id="Fill-84" fill="#FF4D00"></path>
                <path d="M99.4996412,151.160287 C78.3595945,151.160287 61.1602558,168.359377 61.1602558,189.5 C61.1602558,210.640623 78.3595945,227.839713 99.4996412,227.839713 C120.639688,227.839713 137.839744,210.640623 137.839744,189.5 C137.839744,168.359377 120.639688,151.160287 99.4996412,151.160287 M99.4996412,229 C77.7195524,229 60,211.280682 60,189.5 C60,167.720035 77.7195524,150 99.4996412,150 C121.27973,150 139,167.720035 139,189.5 C139,211.280682 121.27973,229 99.4996412,229" id="Fill-86" fill="#1B1C1C"></path>
                <path d="M192,62.877687 L197.690722,170.256584 C197.690722,170.256584 242.764635,179.750485 296.487955,174.325807 C350.211276,168.900415 388,157.370831 388,157.370831 L380.715531,57 C380.715531,57 296.715325,64.9126557 267.349359,64.2338565 C237.983392,63.5557718 192,62.877687 192,62.877687" id="Fill-88" fill="#473FF4"></path>
                <path d="M371,115.999642 C371,138.64397 352.64397,157 330.000358,157 C307.356746,157 289,138.64397 289,115.999642 C289,93.3560303 307.356746,75 330.000358,75 C352.64397,75 371,93.3560303 371,115.999642" id="Fill-90" fill="#FFFFFF"></path>
                <path d="M330.06076,158 C339.453877,158 348.100593,154.779528 355,149.378845 C354.966494,149.268317 351.844722,139.127949 348.535459,136.343087 C345.209086,133.543776 336.131069,134.400546 334.889917,133.485984 C333.650191,132.572144 333.085577,128.45806 333.53684,127.258149 C333.988104,126.058238 336.581619,124.915397 337.14552,123.544276 C337.709421,122.172433 337.935409,118.459283 337.935409,118.459283 C337.935409,118.459283 339.626398,119.144843 341.3181,118.173212 C343.009802,117.20158 344.193923,111.373956 342.220626,110.174045 C340.246617,108.974134 338.780903,110.345255 338.780903,110.345255 C338.780903,110.345255 339.006178,104.28863 338.780903,102.403159 C338.555628,100.517687 337.25887,100.688897 336.976564,100.117476 C336.69497,99.5460555 338.330353,94.1749907 337.87909,93.6035701 C337.427827,93.0321495 336.412663,94.975413 335.510849,94.7464114 C334.608323,94.5181321 335.736125,93.0892193 335.059586,92.3465893 C334.382335,91.6039592 333.593159,94.1179209 332.747665,94.0608511 C331.90217,94.0037813 332.521676,92.1753798 332.127445,92.0041704 C331.733214,91.8322385 328.687722,97.0320938 327.164976,97.3181653 C325.642943,97.6035144 318.989485,98.4032143 318.086958,99.717265 C317.184432,101.032038 317.918002,109.830904 317.918002,109.830904 C317.918002,109.830904 316.620531,108.917065 315.024357,108.974134 C313.428183,109.031204 312.279708,111.316887 312.78729,114.972967 C313.294159,118.630493 316.885016,118.420996 316.885016,118.420996 C316.885016,118.420996 317.184432,120.249397 317.786116,121.515047 C318.387801,122.780697 320.342561,124.972467 321.54593,125.887029 C322.748585,126.800868 323.500691,128.325138 322.748585,131.372233 C321.99648,134.419328 313.576466,134.419328 310.719178,135.815733 C307.86902,137.209248 307.004277,150.709511 307,150.770915 C313.56292,155.329277 321.503156,158 330.06076,158" id="Fill-92" fill="#34E0A1"></path>
                <path d="M330.000361,75.1687748 C307.486254,75.1687748 289.168785,93.4846404 289.168785,115.999277 C289.168785,138.513914 307.486254,156.830502 330.000361,156.830502 C352.515192,156.830502 370.831938,138.513914 370.831938,115.999277 C370.831938,93.4846404 352.515192,75.1687748 330.000361,75.1687748 M330.000361,158 C306.841507,158 288,139.158656 288,115.999277 C288,92.8406216 306.841507,74 330.000361,74 C353.159216,74 372,92.8406216 372,115.999277 C372,139.158656 353.159216,158 330.000361,158" id="Fill-94" fill="#1B1C1C"></path>
                <path d="M374.440486,70 C374.307625,70 374.174764,69.9538759 374.068199,69.860271 L366.186496,62.9572537 C365.956065,62.7544433 365.936689,62.4091906 366.142209,62.1826398 C366.349112,61.9567673 366.701332,61.9384533 366.931763,62.1385506 L374.812774,69.0422462 C375.043897,69.2450567 375.063272,69.5903093 374.858445,69.8161818 C374.747035,69.9375968 374.594799,70 374.440486,70" id="Fill-96" fill="#1B1C1C"></path>
                <path d="M366.572543,70 C366.39824,70 366.226062,69.9181889 366.114111,69.7626018 C365.924928,69.5010985 365.975943,69.1314876 366.230313,68.9364558 L375.085078,62.1191086 C375.338031,61.921155 375.697266,61.9759392 375.886449,62.2389034 C376.074924,62.4996763 376.023908,62.8700175 375.769538,63.0650493 L366.914774,69.8823966 C366.812034,69.9612858 366.692289,70 366.572543,70" id="Fill-98" fill="#1B1C1C"></path>
            </g>
        </g>
    </g>
</svg>